{"glyphs":{"0":{"ha":797,"x_min":74,"x_max":724,"o":"m 399 -15 q 227 34 300 -15 q 114 182 154 83 q 74 429 74 281 q 114 675 74 577 q 227 823 154 774 q 399 872 300 872 q 570 823 497 872 q 684 675 643 774 q 724 429 724 577 q 684 182 724 281 q 570 34 643 83 q 399 -15 497 -15 m 399 60 q 580 157 519 60 q 640 429 640 253 q 580 701 640 605 q 399 798 519 798 q 219 701 281 798 q 158 429 158 605 q 219 157 158 253 q 399 60 281 60 z "},"1":{"ha":441,"x_min":71,"x_max":294,"o":"m 225 859 l 294 859 l 294 0 l 214 0 l 214 765 q 145 725 182 739 q 71 710 108 712 l 71 790 q 153 813 113 797 q 225 859 192 830 z "},"2":{"ha":788,"x_min":92,"x_max":685,"o":"m 92 0 l 92 117 q 117 242 92 192 q 187 324 142 292 q 289 378 232 356 l 455 445 q 560 519 525 474 q 596 634 596 565 q 545 753 596 708 q 406 799 495 799 q 261 763 317 799 q 197 655 205 727 l 107 655 q 150 771 113 722 q 252 845 188 819 q 406 872 316 872 q 549 840 486 872 q 649 753 613 808 q 685 627 685 698 q 660 513 685 561 q 591 429 635 464 q 492 372 548 394 l 321 301 q 210 232 248 273 q 172 124 172 190 l 172 75 l 675 75 l 675 0 l 92 0 z "},"3":{"ha":798,"x_min":79,"x_max":706,"o":"m 401 -15 q 281 2 339 -15 q 177 55 223 20 q 106 141 132 90 q 79 258 79 192 l 160 258 q 193 148 160 192 q 281 82 226 104 q 401 60 335 60 q 561 111 505 60 q 617 239 617 163 q 594 325 617 288 q 518 385 570 363 q 379 408 466 408 l 291 408 l 291 472 l 340 472 q 518 516 453 472 q 583 636 583 559 q 531 751 583 703 q 388 798 480 798 q 264 770 318 798 q 188 664 210 742 l 108 664 q 159 785 119 740 q 258 851 199 831 q 387 872 317 872 q 532 842 468 872 q 633 760 596 813 q 669 641 669 708 q 630 524 669 572 q 515 449 590 476 q 652 374 598 428 q 706 234 706 320 q 669 106 706 162 q 565 17 633 49 q 401 -15 497 -15 z "},"4":{"ha":750,"x_min":39,"x_max":715,"o":"m 494 872 l 567 872 l 567 286 l 715 286 l 715 219 l 567 219 l 567 0 l 488 0 l 488 219 l 39 219 l 39 282 l 494 872 m 490 737 l 135 282 l 490 282 l 490 737 z "},"5":{"ha":772,"x_min":96,"x_max":682,"o":"m 381 -15 q 241 13 306 -15 q 136 95 176 41 q 96 230 96 150 l 175 230 q 235 103 175 147 q 381 60 295 60 q 541 121 484 60 q 597 273 597 183 q 365 456 597 456 l 153 456 l 188 858 l 643 858 l 643 785 l 253 785 l 271 817 l 240 495 l 226 506 q 300 517 260 514 q 374 519 341 519 q 599 458 517 519 q 682 273 682 397 q 646 126 682 191 q 542 23 610 60 q 381 -15 474 -15 z "},"6":{"ha":771,"x_min":74,"x_max":685,"o":"m 403 -15 q 229 42 303 -15 q 114 196 155 99 q 74 414 74 293 q 115 659 74 556 q 234 817 156 762 q 422 872 313 872 q 549 844 494 872 q 638 767 603 816 q 680 652 672 717 l 590 652 q 539 758 578 719 q 424 798 499 798 q 227 690 298 798 q 156 396 156 583 q 158 329 156 367 q 164 258 159 291 q 203 409 167 354 q 295 488 240 465 q 413 511 350 511 q 551 477 489 511 q 649 384 613 444 q 685 246 685 324 q 650 109 685 168 q 551 17 614 50 q 403 -15 488 -15 m 403 60 q 544 110 490 60 q 599 247 599 160 q 544 385 599 335 q 403 435 490 435 q 303 410 347 435 q 234 342 259 385 q 208 247 208 300 q 264 110 208 160 q 403 60 319 60 z "},"7":{"ha":633,"x_min":33,"x_max":608,"o":"m 92 0 l 513 783 l 33 783 l 33 858 l 608 858 l 608 786 l 199 0 l 92 0 z "},"8":{"ha":831,"x_min":81,"x_max":751,"o":"m 415 -15 q 243 17 319 -15 q 124 104 167 49 q 81 231 81 160 q 115 346 81 298 q 210 420 149 394 q 349 446 271 446 q 380 445 364 446 q 411 440 395 444 l 411 413 q 281 387 337 413 q 195 322 226 362 q 165 235 165 281 q 197 139 165 178 q 287 80 230 100 q 415 60 344 60 q 598 100 530 60 q 665 206 665 140 q 628 293 665 259 q 528 349 592 326 l 296 437 q 210 481 253 453 q 138 550 167 508 q 109 649 109 592 q 146 763 109 712 q 251 842 183 813 q 415 872 320 872 q 573 841 505 872 q 679 758 641 810 q 717 638 717 705 q 691 536 717 583 q 611 460 664 489 q 480 432 558 432 q 450 433 465 432 q 419 440 436 435 l 419 468 q 530 489 481 468 q 606 548 578 510 q 633 635 633 586 q 606 719 633 682 q 530 777 578 756 q 415 798 481 798 q 302 777 352 798 q 224 722 253 756 q 195 646 195 688 q 231 562 195 593 q 328 508 267 531 l 556 422 q 701 339 651 388 q 751 208 751 290 q 711 92 751 142 q 597 13 672 42 q 415 -15 522 -15 z "},"9":{"ha":785,"x_min":101,"x_max":711,"o":"m 385 -15 q 239 20 303 -15 q 140 116 176 55 q 104 254 104 177 l 188 254 q 240 113 189 165 q 384 60 292 60 q 523 109 469 60 q 601 249 576 158 q 626 463 626 339 q 625 518 626 493 q 619 576 624 543 q 579 450 612 501 q 493 373 547 399 q 370 347 440 347 q 235 381 296 347 q 137 475 174 415 q 101 613 101 535 q 136 750 101 692 q 234 840 171 808 q 382 872 298 872 q 515 842 454 872 q 619 757 575 813 q 687 623 663 701 q 711 447 711 544 q 677 201 711 305 q 570 41 642 98 q 385 -15 499 -15 m 381 423 q 482 448 438 423 q 552 516 526 474 q 578 610 578 558 q 522 748 578 697 q 382 799 465 799 q 240 748 295 799 q 185 610 185 697 q 240 473 185 524 q 381 423 295 423 z "},"\r":{"ha":833,"x_min":0,"x_max":0,"o":""}," ":{"ha":319,"x_min":0,"x_max":0,"o":""}," ":{"ha":319,"x_min":0,"x_max":0,"o":""},",":{"ha":260,"x_min":46,"x_max":213,"o":"m 108 -133 l 46 -103 q 106 -63 82 -85 q 136 -7 129 -41 q 92 9 110 -6 q 74 49 74 24 q 91 89 74 72 q 135 106 108 106 q 190 81 168 106 q 213 20 213 56 q 187 -64 213 -22 q 108 -133 162 -106 z "},".":{"ha":222,"x_min":46,"x_max":176,"o":"m 46 49 q 64 94 46 74 q 110 113 83 113 q 157 94 138 113 q 176 49 176 74 q 157 6 176 24 q 110 -12 138 -12 q 64 6 83 -12 q 46 49 46 24 z "},";":{"ha":330,"x_min":81,"x_max":248,"o":"m 144 -133 l 81 -103 q 141 -63 117 -85 q 172 -7 165 -41 q 128 9 146 -6 q 110 49 110 24 q 126 89 110 72 q 170 106 143 106 q 226 81 203 106 q 248 20 248 56 q 223 -64 248 -22 q 144 -133 197 -106 m 112 537 q 130 581 112 562 q 176 601 149 601 q 223 581 203 601 q 242 537 242 562 q 223 493 242 511 q 176 475 203 475 q 130 493 149 475 q 112 537 112 511 z "},":":{"ha":293,"x_min":81,"x_max":212,"o":"m 81 106 q 100 151 81 131 q 145 170 118 170 q 192 151 173 170 q 212 106 212 131 q 192 63 212 81 q 145 44 173 44 q 100 63 118 44 q 81 106 81 81 m 81 537 q 100 581 81 562 q 145 601 118 601 q 192 581 173 601 q 212 537 212 562 q 192 493 212 511 q 145 475 173 475 q 100 493 118 475 q 81 537 81 511 z "},"-":{"ha":466,"x_min":47,"x_max":419,"o":"m 47 362 l 47 432 l 419 432 l 419 362 l 47 362 z "},"–":{"ha":619,"x_min":76,"x_max":544,"o":"m 76 362 l 76 432 l 544 432 l 544 362 l 76 362 z "},"—":{"ha":976,"x_min":76,"x_max":902,"o":"m 76 362 l 76 432 l 902 432 l 902 362 l 76 362 z "},"!":{"ha":374,"x_min":124,"x_max":254,"o":"m 158 215 l 147 844 l 231 844 l 219 215 l 158 215 m 188 -12 q 142 6 160 -12 q 124 49 124 24 q 142 94 124 75 q 188 113 160 113 q 235 94 216 113 q 254 49 254 75 q 235 6 254 24 q 188 -12 216 -12 z "},"a":{"ha":740,"x_min":87,"x_max":618,"o":"m 548 0 l 538 137 l 538 428 q 494 569 538 528 q 372 611 451 611 q 289 598 327 611 q 228 557 251 585 q 205 483 205 529 l 113 483 q 148 595 113 553 q 241 656 183 638 q 372 674 300 674 q 498 650 442 674 q 586 570 553 625 q 618 427 618 516 l 618 0 l 548 0 m 319 -15 q 188 14 240 -15 q 112 88 137 42 q 87 181 87 133 q 120 292 87 250 q 211 352 154 333 q 335 371 267 371 q 440 359 385 371 q 544 328 494 348 l 544 274 q 445 303 501 292 q 343 315 389 315 q 222 284 272 315 q 172 181 172 253 q 209 88 172 126 q 329 49 247 49 q 433 76 385 49 q 509 144 480 103 q 538 225 538 184 l 558 225 q 528 107 558 162 q 445 18 499 52 q 319 -15 391 -15 z "},"b":{"ha":808,"x_min":146,"x_max":719,"o":"m 430 -15 q 307 19 362 -15 q 221 119 253 53 q 189 276 189 184 l 226 276 q 255 155 226 204 q 329 81 284 106 q 425 56 374 56 q 529 89 481 56 q 606 183 577 122 q 635 332 635 245 q 606 478 635 418 q 529 572 577 539 q 424 604 481 604 q 328 579 373 604 q 255 505 283 554 q 226 383 226 456 l 189 383 q 220 539 189 474 q 307 639 252 604 q 434 674 363 674 q 576 633 511 674 q 680 515 641 592 q 719 332 719 438 q 680 148 719 226 q 574 27 640 70 q 430 -15 508 -15 m 146 0 l 146 944 l 226 944 l 226 150 l 207 0 l 146 0 z "},"c":{"ha":707,"x_min":74,"x_max":626,"o":"m 368 -15 q 224 27 291 -15 q 115 147 156 69 q 74 331 74 225 q 115 516 74 439 q 224 633 156 592 q 368 674 291 674 q 461 659 419 674 q 536 618 503 644 q 591 556 568 591 q 626 481 614 521 l 542 468 q 476 568 522 532 q 367 604 431 604 q 265 573 313 604 q 188 481 217 542 q 158 331 158 420 q 184 189 158 251 q 258 91 211 126 q 367 56 306 56 q 497 98 451 56 q 542 215 542 140 l 626 215 q 594 95 626 147 q 503 14 561 43 q 368 -15 444 -15 z "},"d":{"ha":808,"x_min":88,"x_max":661,"o":"m 378 -15 q 233 27 299 -15 q 127 148 167 70 q 88 332 88 226 q 127 515 88 438 q 231 633 166 592 q 373 674 296 674 q 500 639 444 674 q 587 539 556 604 q 618 383 618 474 l 581 383 q 553 505 581 456 q 480 579 525 554 q 383 604 435 604 q 279 572 327 604 q 201 478 231 539 q 172 332 172 418 q 201 183 172 245 q 278 89 230 122 q 384 56 327 56 q 478 81 433 56 q 552 155 523 106 q 581 276 581 204 l 618 276 q 586 119 618 184 q 500 19 555 53 q 378 -15 446 -15 m 593 0 l 581 150 l 581 944 l 661 944 l 661 0 l 593 0 z "},"e":{"ha":701,"x_min":74,"x_max":629,"o":"m 366 -15 q 214 29 280 -15 q 111 150 149 73 q 74 327 74 228 q 111 513 74 435 q 214 633 148 591 q 366 674 279 674 q 490 645 439 674 q 572 565 541 615 q 616 450 603 514 q 626 318 629 386 l 140 318 l 140 374 l 577 374 l 545 353 q 540 443 547 398 q 513 525 533 488 q 458 585 493 563 q 367 608 422 608 q 249 572 296 608 q 178 477 201 535 q 155 353 155 419 l 155 319 q 178 183 155 244 q 248 88 201 123 q 366 52 295 52 q 485 88 439 52 q 540 193 531 124 l 626 193 q 580 81 616 127 q 490 9 544 34 q 366 -15 435 -15 z "},"f":{"ha":458,"x_min":68,"x_max":466,"o":"m 181 0 l 181 772 q 204 875 181 835 q 269 934 228 915 q 361 953 310 953 q 413 950 387 953 q 466 937 440 946 l 451 871 q 407 884 428 880 q 366 889 385 889 q 318 880 342 889 q 277 846 294 871 q 260 772 260 821 l 260 0 l 181 0 m 68 601 l 68 659 l 405 659 l 405 601 l 68 601 z "},"g":{"ha":772,"x_min":50,"x_max":753,"o":"m 368 -338 q 201 -311 273 -338 q 90 -237 130 -283 q 50 -133 50 -190 q 109 -12 50 -53 q 262 29 167 29 l 292 -5 q 171 -39 214 -5 q 128 -131 128 -73 q 188 -231 128 -189 q 368 -272 248 -272 q 527 -247 458 -272 q 634 -180 595 -222 q 672 -91 672 -139 q 646 -31 672 -56 q 567 -5 620 -5 l 292 -5 q 180 15 225 -5 q 111 66 135 34 q 88 134 88 98 q 111 204 88 176 q 172 247 135 232 q 249 261 208 261 l 259 228 q 215 218 238 228 q 177 188 193 208 q 162 138 162 168 q 190 80 162 103 q 292 56 217 56 l 567 56 q 704 17 654 56 q 753 -88 753 -23 q 708 -207 753 -149 q 576 -301 662 -265 q 368 -338 490 -338 m 393 188 q 259 218 318 188 q 167 305 201 249 q 133 431 133 360 q 167 558 133 503 q 259 644 201 613 q 393 674 318 674 q 524 644 466 674 q 616 558 582 613 q 650 431 650 503 q 616 305 650 360 q 524 218 582 249 q 393 188 466 188 m 392 247 q 523 300 475 247 q 570 431 570 352 q 523 562 570 511 q 393 613 475 613 q 262 562 310 613 q 214 431 214 511 q 262 300 214 352 q 392 247 310 247 m 601 570 l 561 580 q 582 681 561 638 q 642 749 602 724 q 741 773 682 773 l 733 691 q 635 661 669 691 q 601 570 601 632 z "},"h":{"ha":824,"x_min":146,"x_max":701,"o":"m 623 0 l 623 388 q 573 549 623 493 q 434 604 522 604 q 323 569 369 604 q 251 469 276 533 q 226 320 226 406 l 191 320 q 220 508 191 428 q 308 631 250 588 q 452 674 366 674 q 584 640 528 674 q 671 542 640 606 q 701 388 701 478 l 701 0 l 623 0 m 146 0 l 146 944 l 226 944 l 226 0 l 146 0 z "},"i":{"ha":393,"x_min":132,"x_max":247,"o":"m 190 833 q 148 849 164 833 q 132 889 132 865 q 148 927 132 913 q 190 941 164 941 q 232 927 217 941 q 247 889 247 913 q 232 849 247 865 q 190 833 217 833 m 149 0 l 149 660 l 230 660 l 230 0 l 149 0 z "},"j":{"ha":421,"x_min":-126,"x_max":274,"o":"m 217 833 q 176 849 190 833 q 161 889 161 865 q 176 927 161 913 q 217 941 190 941 q 259 927 243 941 q 274 889 274 913 q 259 849 274 865 q 217 833 243 833 m 56 -338 q -34 -325 10 -338 q -126 -283 -78 -312 l -119 -212 q -36 -252 -76 -237 q 47 -268 3 -268 q 143 -226 108 -268 q 178 -101 178 -185 l 178 662 l 256 662 l 256 -101 q 200 -283 256 -227 q 56 -338 143 -338 z "},"k":{"ha":763,"x_min":146,"x_max":707,"o":"m 146 0 l 146 944 l 226 944 l 226 0 l 146 0 m 213 362 l 576 659 l 692 659 l 213 274 l 213 362 m 607 0 l 285 415 l 372 425 l 707 0 l 607 0 z "},"l":{"ha":372,"x_min":146,"x_max":226,"o":"m 146 0 l 146 944 l 226 944 l 226 0 l 146 0 z "},"m":{"ha":1290,"x_min":146,"x_max":1168,"o":"m 1088 0 l 1088 388 q 1038 549 1088 493 q 901 604 988 604 q 752 530 803 604 q 701 331 701 455 l 660 331 q 677 476 660 412 q 726 584 694 540 q 807 651 759 628 q 919 674 856 674 q 1051 640 995 674 q 1138 542 1107 606 q 1168 388 1168 478 l 1168 0 l 1088 0 m 146 0 l 146 659 l 214 659 l 224 517 q 311 633 253 591 q 452 674 369 674 q 584 640 528 674 q 671 542 640 606 q 701 388 701 478 l 701 0 l 623 0 l 623 388 q 573 549 623 493 q 434 604 522 604 q 323 569 369 604 q 251 469 276 533 q 226 320 226 406 l 226 0 l 146 0 z "},"n":{"ha":824,"x_min":146,"x_max":701,"o":"m 623 0 l 623 388 q 573 549 623 493 q 434 604 522 604 q 323 569 369 604 q 251 469 276 533 q 226 320 226 406 l 191 320 q 220 508 191 428 q 308 631 250 588 q 452 674 366 674 q 584 640 528 674 q 671 542 640 606 q 701 388 701 478 l 701 0 l 623 0 m 146 0 l 146 659 l 214 659 l 226 497 l 226 0 l 146 0 z "},"o":{"ha":745,"x_min":74,"x_max":673,"o":"m 374 -15 q 218 24 285 -15 q 112 141 151 64 q 74 330 74 218 q 112 518 74 442 q 218 635 151 595 q 374 674 285 674 q 529 635 462 674 q 635 518 597 595 q 673 330 673 442 q 635 141 673 218 q 529 24 597 64 q 374 -15 462 -15 m 372 55 q 494 89 445 55 q 566 185 542 124 q 590 330 590 247 q 537 530 590 454 q 375 606 484 606 q 254 571 302 606 q 182 475 206 537 q 158 330 158 413 q 211 131 158 206 q 372 55 264 55 z "},"p":{"ha":794,"x_min":146,"x_max":719,"o":"m 429 -15 q 302 19 357 -15 q 218 117 248 53 q 188 270 188 181 l 226 270 q 255 152 226 200 q 327 81 283 105 q 422 56 372 56 q 526 88 477 56 q 605 182 574 120 q 635 331 635 243 q 606 479 635 418 q 529 572 577 540 q 423 604 481 604 q 328 579 373 604 q 255 506 283 554 q 226 386 226 458 l 188 386 q 219 542 188 478 q 306 641 251 607 q 430 674 360 674 q 573 633 507 674 q 679 515 639 592 q 719 331 719 438 q 679 145 719 223 q 572 26 638 67 q 429 -15 506 -15 m 146 -325 l 146 659 l 214 659 l 226 509 l 226 -325 l 146 -325 z "},"q":{"ha":794,"x_min":74,"x_max":751,"o":"m 366 -15 q 222 26 289 -15 q 114 145 155 67 q 74 331 74 223 q 114 515 74 438 q 222 633 155 592 q 364 674 288 674 q 489 641 433 674 q 576 542 544 607 q 608 386 608 478 l 567 386 q 539 506 567 458 q 465 579 510 554 q 370 604 420 604 q 265 572 313 604 q 187 479 217 540 q 158 331 158 418 q 188 182 158 243 q 267 88 218 120 q 371 56 316 56 q 466 80 421 56 q 539 152 510 104 q 567 270 567 199 l 599 270 q 571 120 599 184 q 490 20 542 56 q 366 -15 438 -15 m 721 -338 q 601 -261 635 -313 q 567 -112 567 -209 l 567 509 l 588 659 l 646 659 l 646 -117 q 655 -196 646 -167 q 688 -242 665 -225 q 751 -273 711 -259 l 721 -338 z "},"r":{"ha":481,"x_min":146,"x_max":486,"o":"m 146 0 l 146 660 l 226 660 l 226 0 l 146 0 m 197 302 q 218 508 197 426 q 285 631 240 590 q 400 672 330 672 q 445 668 424 672 q 486 657 465 665 l 477 578 q 433 591 457 586 q 390 597 408 597 q 293 559 328 597 q 242 455 257 522 q 226 302 226 389 l 197 302 z "},"s":{"ha":728,"x_min":93,"x_max":637,"o":"m 378 -15 q 220 13 283 -15 q 127 88 158 40 q 93 193 96 135 l 174 193 q 230 87 178 123 q 374 51 283 51 q 461 67 421 51 q 526 110 501 83 q 551 172 551 138 q 518 242 551 217 q 415 285 485 267 l 294 321 q 162 392 208 346 q 116 503 116 438 q 183 627 116 581 q 359 674 251 674 q 543 628 477 674 q 613 512 609 581 l 529 512 q 478 585 522 561 q 359 609 435 609 q 242 574 283 609 q 200 499 200 540 q 336 383 200 419 l 454 346 q 590 279 543 321 q 637 172 637 238 q 606 81 637 124 q 517 11 575 38 q 378 -15 460 -15 z "},"t":{"ha":509,"x_min":49,"x_max":476,"o":"m 338 -15 q 247 5 287 -15 q 184 65 207 25 q 162 163 162 104 l 162 847 l 240 847 l 240 164 q 344 51 240 51 q 403 58 375 51 q 465 78 431 65 l 476 19 q 408 -6 442 3 q 338 -15 374 -15 m 49 601 l 49 659 l 463 659 l 463 601 l 49 601 z "},"u":{"ha":826,"x_min":124,"x_max":679,"o":"m 599 660 l 679 660 l 679 0 l 599 0 l 599 660 m 124 660 l 204 660 l 204 246 q 249 106 204 154 q 378 58 294 58 q 497 95 448 58 q 573 196 547 133 q 599 335 599 259 l 637 335 q 604 151 637 230 q 512 30 572 73 q 370 -12 452 -12 q 239 16 294 -12 q 153 101 183 44 q 124 242 124 158 l 124 660 z "},"v":{"ha":686,"x_min":29,"x_max":658,"o":"m 29 659 l 120 659 l 352 69 l 335 69 l 567 659 l 658 659 l 386 0 l 301 0 l 29 659 z "},"w":{"ha":983,"x_min":29,"x_max":950,"o":"m 29 659 l 113 659 l 294 83 l 281 83 l 460 629 l 522 629 l 699 82 l 688 82 l 869 659 l 950 659 l 734 0 l 656 0 l 483 512 l 496 512 l 324 0 l 247 0 l 29 659 z "},"x":{"ha":681,"x_min":43,"x_max":638,"o":"m 43 0 l 289 330 l 43 660 l 140 660 l 343 391 l 540 660 l 638 660 l 389 330 l 635 0 l 538 0 l 336 271 l 140 0 l 43 0 z "},"y":{"ha":620,"x_min":-12,"x_max":592,"o":"m 33 659 l 121 659 l 356 70 l 333 70 l 508 659 l 592 659 l 346 -139 q 270 -284 319 -229 q 140 -338 221 -338 q 63 -325 99 -338 q -12 -287 26 -312 l -12 -210 q 58 -255 24 -241 q 129 -268 92 -268 q 205 -237 176 -268 q 254 -160 235 -207 q 287 -67 273 -114 l 306 0 l 33 659 z "},"z":{"ha":645,"x_min":71,"x_max":576,"o":"m 71 0 l 71 65 l 483 594 l 71 594 l 71 659 l 576 659 l 576 594 l 167 65 l 576 65 l 576 0 l 71 0 z "},"A":{"ha":763,"x_min":39,"x_max":723,"o":"m 39 0 l 335 858 l 431 858 l 723 0 l 638 0 l 559 238 l 206 238 l 123 0 l 39 0 m 226 303 l 537 303 l 381 758 l 226 303 z "},"B":{"ha":845,"x_min":146,"x_max":741,"o":"m 146 0 l 146 858 l 453 858 q 606 826 545 858 q 696 744 666 795 q 726 635 726 694 q 685 505 726 561 q 559 431 644 449 q 655 393 614 424 q 718 320 696 363 q 741 231 741 277 q 726 144 741 186 q 677 70 711 103 q 589 19 644 38 q 453 0 533 0 l 146 0 m 226 70 l 453 70 q 609 117 563 70 q 656 235 656 163 q 604 351 656 307 q 453 394 552 394 l 226 394 l 226 70 m 226 789 l 226 463 l 451 463 q 590 506 536 463 q 643 631 643 550 q 591 748 643 706 q 452 789 540 789 l 226 789 z "},"C":{"ha":838,"x_min":74,"x_max":771,"o":"m 436 -15 q 242 43 323 -15 q 117 204 160 102 q 74 436 74 306 q 122 675 74 578 q 252 822 170 772 q 436 872 335 872 q 650 805 567 872 q 769 632 733 738 l 681 613 q 586 750 652 699 q 436 800 521 800 q 300 759 363 800 q 199 636 238 717 q 160 436 160 555 q 190 244 160 330 q 281 108 219 158 q 436 58 342 58 q 614 117 547 58 q 681 276 681 177 l 771 276 q 728 121 771 186 q 609 20 685 56 q 436 -15 533 -15 z "},"D":{"ha":899,"x_min":146,"x_max":803,"o":"m 146 858 l 383 858 q 607 805 513 858 q 752 655 701 751 q 803 429 803 559 q 752 204 803 301 q 607 54 701 108 q 383 0 513 0 l 146 0 l 146 858 m 226 788 l 226 68 l 383 68 q 563 115 488 68 q 678 244 638 163 q 719 429 719 326 q 678 614 719 533 q 563 742 638 695 q 383 788 488 788 l 226 788 z "},"E":{"ha":764,"x_min":144,"x_max":661,"o":"m 144 0 l 144 858 l 661 858 l 661 789 l 225 789 l 225 468 l 636 468 l 636 399 l 225 399 l 225 70 l 661 70 l 661 0 l 144 0 z "},"F":{"ha":713,"x_min":146,"x_max":658,"o":"m 146 0 l 146 858 l 658 858 l 658 789 l 226 789 l 226 472 l 631 472 l 631 403 l 226 403 l 226 0 l 146 0 z "},"G":{"ha":872,"x_min":74,"x_max":769,"o":"m 442 -15 q 257 37 341 -15 q 123 186 173 89 q 74 417 74 283 q 106 617 74 531 q 195 759 139 702 q 324 843 252 815 q 475 872 397 872 q 638 836 565 872 q 769 723 710 800 l 699 688 q 590 772 646 746 q 473 798 533 798 q 317 752 389 798 q 202 621 245 706 q 158 417 158 535 q 193 233 158 314 q 291 106 227 153 q 445 60 356 60 q 564 90 511 60 q 646 185 616 121 q 676 349 676 249 l 708 349 q 682 156 708 238 q 597 30 656 74 q 442 -15 538 -15 m 694 0 l 676 209 l 676 350 l 449 358 l 449 417 l 756 417 l 756 0 l 694 0 z "},"H":{"ha":903,"x_min":146,"x_max":756,"o":"m 146 858 l 226 858 l 226 469 l 678 469 l 678 858 l 756 858 l 756 0 l 678 0 l 678 401 l 226 401 l 226 0 l 146 0 l 146 858 z "},"I":{"ha":372,"x_min":146,"x_max":226,"o":"m 146 0 l 146 858 l 226 858 l 226 0 l 146 0 z "},"J":{"ha":533,"x_min":6,"x_max":419,"o":"m 6 46 l 6 133 q 99 82 51 101 q 194 63 147 63 q 306 110 274 63 q 339 239 339 158 l 339 858 l 419 858 l 419 239 q 392 94 419 151 q 316 11 366 38 q 197 -15 267 -15 q 97 2 144 -15 q 6 46 50 19 z "},"K":{"ha":812,"x_min":146,"x_max":773,"o":"m 638 858 l 750 858 l 212 301 l 212 419 l 638 858 m 363 492 l 773 0 l 666 0 l 303 439 l 363 492 m 146 858 l 228 858 l 228 0 l 146 0 l 146 858 z "},"L":{"ha":631,"x_min":146,"x_max":624,"o":"m 226 858 l 226 70 l 624 70 l 624 0 l 146 0 l 146 858 l 226 858 z "},"M":{"ha":1158,"x_min":146,"x_max":1012,"o":"m 146 858 l 262 858 l 585 229 l 575 229 l 898 858 l 1012 858 l 1012 0 l 930 0 l 930 783 l 947 783 l 608 115 l 553 115 l 215 778 l 226 778 l 226 0 l 146 0 l 146 858 z "},"N":{"ha":927,"x_min":145,"x_max":781,"o":"m 145 858 l 249 858 l 709 102 l 701 102 l 701 858 l 781 858 l 781 0 l 683 0 l 214 772 l 226 772 l 226 0 l 145 0 l 145 858 z "},"O":{"ha":871,"x_min":74,"x_max":798,"o":"m 436 -15 q 251 33 333 -15 q 122 180 169 82 q 74 426 74 278 q 122 675 74 576 q 251 823 169 774 q 436 872 333 872 q 620 823 538 872 q 750 675 702 774 q 798 426 798 576 q 750 179 798 277 q 620 33 702 81 q 436 -15 538 -15 m 436 60 q 640 153 565 60 q 714 428 714 246 q 640 703 714 607 q 436 799 565 799 q 233 703 308 799 q 158 426 158 606 q 233 153 158 245 q 436 60 308 60 z "},"P":{"ha":750,"x_min":144,"x_max":688,"o":"m 144 0 l 144 858 l 406 858 q 617 786 545 858 q 688 597 688 715 q 617 411 688 481 q 406 340 545 340 l 226 340 l 226 0 l 144 0 m 226 410 l 406 410 q 555 460 503 410 q 606 597 606 510 q 555 738 606 686 q 406 789 503 789 l 226 789 l 226 410 z "},"Q":{"ha":881,"x_min":74,"x_max":803,"o":"m 436 -15 q 251 33 333 -15 q 122 180 169 82 q 74 426 74 278 q 122 675 74 576 q 251 823 169 774 q 436 872 333 872 q 620 823 538 872 q 750 675 702 774 q 798 426 798 576 q 750 179 798 277 q 620 33 702 81 q 436 -15 538 -15 m 690 -223 q 588 -194 632 -223 q 502 -108 543 -165 l 413 16 l 494 32 l 574 -79 q 623 -125 599 -112 q 669 -140 647 -138 q 737 -129 706 -140 q 803 -101 768 -119 l 803 -196 q 745 -216 773 -209 q 690 -223 717 -223 m 436 60 q 640 153 565 60 q 714 428 714 246 q 640 703 714 607 q 436 799 565 799 q 233 703 308 799 q 158 426 158 606 q 233 153 158 245 q 436 60 308 60 z "},"R":{"ha":829,"x_min":146,"x_max":739,"o":"m 146 0 l 146 858 l 435 858 q 650 789 578 858 q 722 608 722 719 q 650 429 722 498 q 435 360 578 360 l 226 360 l 226 0 l 146 0 m 635 0 l 380 383 l 469 383 l 739 0 l 635 0 m 226 419 l 431 419 q 586 471 533 419 q 640 606 640 523 q 587 740 640 690 q 435 789 535 789 l 226 789 l 226 419 z "},"S":{"ha":817,"x_min":99,"x_max":717,"o":"m 408 -15 q 253 16 324 -15 q 141 106 183 47 q 99 251 99 165 l 176 251 q 208 143 176 185 q 293 80 240 101 q 406 60 345 60 q 526 83 476 60 q 603 144 576 106 q 630 224 630 181 q 593 324 630 285 q 485 383 556 362 l 343 429 q 177 515 233 467 q 122 651 122 563 q 195 810 122 748 q 407 872 269 872 q 602 815 531 872 q 685 665 674 758 l 605 665 q 544 764 594 729 q 407 798 494 798 q 261 755 313 798 q 209 647 209 713 q 242 562 209 593 q 344 508 274 531 l 517 452 q 662 370 607 424 q 717 225 717 317 q 682 107 717 162 q 578 18 647 52 q 408 -15 509 -15 z "},"T":{"ha":674,"x_min":8,"x_max":666,"o":"m 8 789 l 8 858 l 666 858 l 666 789 l 358 789 l 376 808 l 376 0 l 296 0 l 296 808 l 314 789 l 8 789 z "},"U":{"ha":881,"x_min":124,"x_max":752,"o":"m 124 858 l 204 858 l 204 303 q 269 117 204 174 q 439 60 333 60 q 607 117 543 60 q 672 303 672 174 l 672 858 l 752 858 l 752 303 q 713 125 752 195 q 603 19 674 54 q 439 -15 533 -15 q 274 19 345 -15 q 163 125 203 54 q 124 303 124 195 l 124 858 z "},"V":{"ha":753,"x_min":25,"x_max":729,"o":"m 370 83 l 642 858 l 729 858 l 417 0 l 335 0 l 25 858 l 111 858 l 383 83 l 370 83 z "},"W":{"ha":1205,"x_min":22,"x_max":1181,"o":"m 22 858 l 114 858 l 344 72 l 317 72 l 558 752 l 613 752 l 844 74 l 817 74 l 1092 858 l 1181 858 l 874 0 l 789 0 l 575 622 l 599 622 l 374 0 l 290 0 l 22 858 z "},"X":{"ha":862,"x_min":75,"x_max":781,"o":"m 78 0 l 380 426 l 75 858 l 170 858 l 433 487 l 681 858 l 779 858 l 477 426 l 781 0 l 683 0 l 423 363 l 175 0 l 78 0 z "},"Y":{"ha":735,"x_min":14,"x_max":721,"o":"m 14 858 l 113 858 l 380 416 l 354 416 l 624 858 l 721 858 l 408 351 l 408 0 l 326 0 l 326 351 l 14 858 z "},"Z":{"ha":796,"x_min":101,"x_max":721,"o":"m 101 0 l 101 75 l 642 810 l 642 779 l 101 785 l 101 858 l 721 858 l 721 782 l 190 62 l 179 78 l 721 73 l 721 0 l 101 0 z "},"'":{"ha":158,"x_min":37,"x_max":122,"o":"m 37 940 l 122 940 l 110 647 l 47 647 l 37 940 z "},"ʼ":{"ha":217,"x_min":50,"x_max":217,"o":"m 113 608 l 50 638 q 110 678 86 656 q 140 734 133 700 q 97 750 115 735 q 78 790 78 765 q 95 830 78 813 q 139 847 112 847 q 194 822 172 847 q 217 761 217 797 q 191 677 217 719 q 113 608 166 635 z "},"‘":{"ha":254,"x_min":50,"x_max":217,"o":"m 128 610 q 89 621 106 610 q 60 653 71 633 q 50 699 50 674 q 77 782 50 740 q 157 851 103 824 l 217 821 q 157 778 181 802 q 125 723 133 755 q 171 708 154 722 q 188 669 188 694 q 172 628 188 646 q 128 610 156 610 z "},"’":{"ha":254,"x_min":11,"x_max":176,"o":"m 71 610 l 11 640 q 71 682 47 659 q 101 736 94 706 q 56 753 74 738 q 38 793 38 768 q 55 834 38 817 q 101 851 73 851 q 141 840 124 851 q 167 808 158 828 q 176 762 176 788 q 150 681 176 722 q 71 610 124 640 z "},"(":{"ha":463,"x_min":101,"x_max":426,"o":"m 369 991 l 426 953 q 294 785 347 874 q 214 605 241 697 q 188 419 188 512 q 248 141 188 279 q 426 -115 308 3 l 369 -156 q 171 115 240 -35 q 101 419 101 265 q 171 723 101 574 q 369 991 240 872 z "},")":{"ha":463,"x_min":36,"x_max":363,"o":"m 95 -156 l 36 -115 q 216 141 155 3 q 276 419 276 279 q 249 605 276 512 q 169 785 222 697 q 36 953 115 874 l 95 991 q 293 723 223 872 q 363 419 363 574 q 331 214 363 316 q 240 18 300 113 q 95 -156 180 -76 z "},"+":{"ha":713,"x_min":22,"x_max":692,"o":"m 317 692 l 396 692 l 396 385 l 692 385 l 692 317 l 396 317 l 396 10 l 317 10 l 317 317 l 22 317 l 22 385 l 317 385 l 317 692 z "},"−":{"ha":713,"x_min":127,"x_max":585,"o":"m 127 317 l 127 386 l 585 386 l 585 317 l 127 317 z "},"=":{"ha":713,"x_min":135,"x_max":578,"o":"m 135 431 l 135 500 l 578 500 l 578 431 l 135 431 m 135 177 l 135 246 l 578 246 l 578 177 l 135 177 z "},"$":{"ha":835,"x_min":99,"x_max":738,"o":"m 419 -15 q 295 2 353 -15 q 193 53 238 19 q 124 137 149 88 q 99 251 99 187 l 176 251 q 209 143 176 185 q 297 80 241 101 q 421 60 352 60 q 545 83 494 60 q 621 145 595 107 q 647 226 647 183 q 610 323 647 284 q 506 383 574 362 l 422 410 l 422 485 l 537 449 q 682 367 627 421 q 738 224 738 314 q 702 110 738 165 q 596 20 667 56 q 419 -15 525 -15 m 383 -119 l 383 972 l 452 972 l 452 -119 l 383 -119 m 407 411 l 351 429 q 180 515 238 466 q 123 651 123 563 q 198 810 123 748 q 417 872 274 872 q 618 814 546 872 q 704 665 690 757 l 623 665 q 560 765 613 729 q 417 800 507 800 q 262 757 315 800 q 209 647 209 714 q 240 562 209 594 q 342 509 272 531 l 407 487 l 407 411 z "},"?":{"ha":679,"x_min":46,"x_max":605,"o":"m 247 199 l 247 265 q 259 364 247 325 q 301 433 272 403 q 384 492 331 462 q 461 541 432 518 q 505 591 491 563 q 518 659 518 619 q 469 758 518 718 q 336 798 421 798 q 196 764 244 798 q 133 665 148 729 l 46 665 q 129 814 56 756 q 335 872 201 872 q 480 842 419 872 q 573 763 540 812 q 605 656 605 714 q 569 537 605 585 q 451 444 533 490 q 376 395 403 417 q 337 342 349 372 q 326 262 326 312 l 326 199 l 247 199 m 288 -15 q 242 3 260 -15 q 224 47 224 22 q 242 92 224 72 q 287 111 260 111 q 334 92 314 111 q 354 47 354 73 q 334 3 354 22 q 288 -15 314 -15 z "},"£":{"ha":758,"x_min":26,"x_max":708,"o":"m 63 44 l 63 68 q 143 99 117 68 q 168 195 168 131 l 168 592 q 193 740 168 677 q 272 837 219 803 q 410 872 325 872 q 558 823 498 872 q 635 681 618 775 l 555 681 q 503 770 544 742 q 410 798 462 798 q 291 748 333 798 q 249 592 249 699 l 249 198 q 211 80 249 115 q 63 44 173 44 m 26 0 l 26 68 l 483 68 q 581 98 549 68 q 624 191 613 128 l 708 191 q 651 52 700 105 q 483 0 601 0 l 26 0 m 36 361 l 36 421 l 507 421 l 507 361 l 36 361 z "},"`":{"ha":425,"x_min":74,"x_max":353,"o":"m 311 784 l 74 1006 l 133 1054 l 353 817 l 311 784 z "},"´":{"ha":425,"x_min":74,"x_max":353,"o":"m 115 784 l 74 817 l 294 1054 l 353 1006 l 115 784 z "},"à":{"ha":740,"x_min":87,"x_max":618,"o":"m 548 0 l 538 137 l 538 428 q 494 569 538 528 q 372 611 451 611 q 289 598 327 611 q 228 557 251 585 q 205 483 205 529 l 113 483 q 148 595 113 553 q 241 656 183 638 q 372 674 300 674 q 498 650 442 674 q 586 570 553 625 q 618 427 618 516 l 618 0 l 548 0 m 319 -15 q 188 14 240 -15 q 112 88 137 42 q 87 181 87 133 q 120 292 87 250 q 211 352 154 333 q 335 371 267 371 q 440 359 385 371 q 544 328 494 348 l 544 274 q 445 303 501 292 q 343 315 389 315 q 222 284 272 315 q 172 181 172 253 q 209 88 172 126 q 329 49 247 49 q 433 76 385 49 q 509 144 480 103 q 538 225 538 184 l 558 225 q 528 107 558 162 q 445 18 499 52 q 319 -15 391 -15 m 472 784 l 235 1006 l 294 1054 l 514 817 l 472 784 z "},"è":{"ha":701,"x_min":74,"x_max":629,"o":"m 366 -15 q 214 29 280 -15 q 111 150 149 73 q 74 327 74 228 q 111 513 74 435 q 214 633 148 591 q 366 674 279 674 q 490 645 439 674 q 572 565 541 615 q 616 450 603 514 q 626 318 629 386 l 140 318 l 140 374 l 577 374 l 545 353 q 540 443 547 398 q 513 525 533 488 q 458 585 493 563 q 367 608 422 608 q 249 572 296 608 q 178 477 201 535 q 155 353 155 419 l 155 319 q 178 183 155 244 q 248 88 201 123 q 366 52 295 52 q 485 88 439 52 q 540 193 531 124 l 626 193 q 580 81 616 127 q 490 9 544 34 q 366 -15 435 -15 m 453 784 l 216 1006 l 275 1054 l 495 817 l 453 784 z "},"ò":{"ha":745,"x_min":74,"x_max":673,"o":"m 374 -15 q 218 24 285 -15 q 112 141 151 64 q 74 330 74 218 q 112 518 74 442 q 218 635 151 595 q 374 674 285 674 q 529 635 462 674 q 635 518 597 595 q 673 330 673 442 q 635 141 673 218 q 529 24 597 64 q 374 -15 462 -15 m 372 55 q 494 89 445 55 q 566 185 542 124 q 590 330 590 247 q 537 530 590 454 q 375 606 484 606 q 254 571 302 606 q 182 475 206 537 q 158 330 158 413 q 211 131 158 206 q 372 55 264 55 m 475 784 l 238 1006 l 297 1054 l 517 817 l 475 784 z "},"À":{"ha":763,"x_min":39,"x_max":723,"o":"m 39 0 l 335 858 l 431 858 l 723 0 l 638 0 l 559 238 l 206 238 l 123 0 l 39 0 m 226 303 l 537 303 l 381 758 l 226 303 m 485 983 l 248 1205 l 307 1253 l 527 1017 l 485 983 z "},"È":{"ha":764,"x_min":144,"x_max":661,"o":"m 144 0 l 144 858 l 661 858 l 661 789 l 225 789 l 225 468 l 636 468 l 636 399 l 225 399 l 225 70 l 661 70 l 661 0 l 144 0 m 484 983 l 247 1205 l 306 1253 l 526 1017 l 484 983 z "},"ù":{"ha":826,"x_min":124,"x_max":679,"o":"m 599 660 l 679 660 l 679 0 l 599 0 l 599 660 m 124 660 l 204 660 l 204 246 q 249 106 204 154 q 378 58 294 58 q 497 95 448 58 q 573 196 547 133 q 599 335 599 259 l 637 335 q 604 151 637 230 q 512 30 572 73 q 370 -12 452 -12 q 239 16 294 -12 q 153 101 183 44 q 124 242 124 158 l 124 660 m 528 784 l 291 1006 l 350 1054 l 570 817 l 528 784 z "},"á":{"ha":740,"x_min":87,"x_max":618,"o":"m 548 0 l 538 137 l 538 428 q 494 569 538 528 q 372 611 451 611 q 289 598 327 611 q 228 557 251 585 q 205 483 205 529 l 113 483 q 148 595 113 553 q 241 656 183 638 q 372 674 300 674 q 498 650 442 674 q 586 570 553 625 q 618 427 618 516 l 618 0 l 548 0 m 319 -15 q 188 14 240 -15 q 112 88 137 42 q 87 181 87 133 q 120 292 87 250 q 211 352 154 333 q 335 371 267 371 q 440 359 385 371 q 544 328 494 348 l 544 274 q 445 303 501 292 q 343 315 389 315 q 222 284 272 315 q 172 181 172 253 q 209 88 172 126 q 329 49 247 49 q 433 76 385 49 q 509 144 480 103 q 538 225 538 184 l 558 225 q 528 107 558 162 q 445 18 499 52 q 319 -15 391 -15 m 331 779 l 289 813 l 509 1049 l 568 1001 l 331 779 z "},"é":{"ha":701,"x_min":74,"x_max":629,"o":"m 366 -15 q 214 29 280 -15 q 111 150 149 73 q 74 327 74 228 q 111 513 74 435 q 214 633 148 591 q 366 674 279 674 q 490 645 439 674 q 572 565 541 615 q 616 450 603 514 q 626 318 629 386 l 140 318 l 140 374 l 577 374 l 545 353 q 540 443 547 398 q 513 525 533 488 q 458 585 493 563 q 367 608 422 608 q 249 572 296 608 q 178 477 201 535 q 155 353 155 419 l 155 319 q 178 183 155 244 q 248 88 201 123 q 366 52 295 52 q 485 88 439 52 q 540 193 531 124 l 626 193 q 580 81 616 127 q 490 9 544 34 q 366 -15 435 -15 m 312 779 l 270 813 l 490 1049 l 549 1001 l 312 779 z "},"ó":{"ha":745,"x_min":74,"x_max":673,"o":"m 374 -15 q 218 24 285 -15 q 112 141 151 64 q 74 330 74 218 q 112 518 74 442 q 218 635 151 595 q 374 674 285 674 q 529 635 462 674 q 635 518 597 595 q 673 330 673 442 q 635 141 673 218 q 529 24 597 64 q 374 -15 462 -15 m 372 55 q 494 89 445 55 q 566 185 542 124 q 590 330 590 247 q 537 530 590 454 q 375 606 484 606 q 254 571 302 606 q 182 475 206 537 q 158 330 158 413 q 211 131 158 206 q 372 55 264 55 m 333 779 l 292 813 l 512 1049 l 571 1001 l 333 779 z "},"ú":{"ha":826,"x_min":124,"x_max":679,"o":"m 599 660 l 679 660 l 679 0 l 599 0 l 599 660 m 124 660 l 204 660 l 204 246 q 249 106 204 154 q 378 58 294 58 q 497 95 448 58 q 573 196 547 133 q 599 335 599 259 l 637 335 q 604 151 637 230 q 512 30 572 73 q 370 -12 452 -12 q 239 16 294 -12 q 153 101 183 44 q 124 242 124 158 l 124 660 m 387 779 l 345 813 l 565 1049 l 624 1001 l 387 779 z "},"Á":{"ha":763,"x_min":39,"x_max":723,"o":"m 39 0 l 335 858 l 431 858 l 723 0 l 638 0 l 559 238 l 206 238 l 123 0 l 39 0 m 226 303 l 537 303 l 381 758 l 226 303 m 344 978 l 302 1011 l 522 1248 l 581 1199 l 344 978 z "},"É":{"ha":764,"x_min":144,"x_max":661,"o":"m 144 0 l 144 858 l 661 858 l 661 789 l 225 789 l 225 468 l 636 468 l 636 399 l 225 399 l 225 70 l 661 70 l 661 0 l 144 0 m 342 978 l 301 1011 l 521 1248 l 580 1199 l 342 978 z "},"Ì":{"ha":372,"x_min":51,"x_max":330,"o":"m 146 0 l 146 858 l 226 858 l 226 0 l 146 0 m 288 983 l 51 1205 l 110 1253 l 330 1017 l 288 983 z "},"Í":{"ha":372,"x_min":105,"x_max":384,"o":"m 146 0 l 146 858 l 226 858 l 226 0 l 146 0 m 147 978 l 105 1011 l 325 1248 l 384 1199 l 147 978 z "},"Ò":{"ha":871,"x_min":74,"x_max":798,"o":"m 436 -15 q 251 33 333 -15 q 122 180 169 82 q 74 426 74 278 q 122 675 74 576 q 251 823 169 774 q 436 872 333 872 q 620 823 538 872 q 750 675 702 774 q 798 426 798 576 q 750 179 798 277 q 620 33 702 81 q 436 -15 538 -15 m 436 60 q 640 153 565 60 q 714 428 714 246 q 640 703 714 607 q 436 799 565 799 q 233 703 308 799 q 158 426 158 606 q 233 153 158 245 q 436 60 308 60 m 544 983 l 306 1205 l 365 1253 l 585 1017 l 544 983 z "},"Ó":{"ha":871,"x_min":74,"x_max":798,"o":"m 436 -15 q 251 33 333 -15 q 122 180 169 82 q 74 426 74 278 q 122 675 74 576 q 251 823 169 774 q 436 872 333 872 q 620 823 538 872 q 750 675 702 774 q 798 426 798 576 q 750 179 798 277 q 620 33 702 81 q 436 -15 538 -15 m 436 60 q 640 153 565 60 q 714 428 714 246 q 640 703 714 607 q 436 799 565 799 q 233 703 308 799 q 158 426 158 606 q 233 153 158 245 q 436 60 308 60 m 402 978 l 360 1011 l 581 1248 l 640 1199 l 402 978 z "},"Ù":{"ha":881,"x_min":124,"x_max":752,"o":"m 124 858 l 204 858 l 204 303 q 269 117 204 174 q 439 60 333 60 q 607 117 543 60 q 672 303 672 174 l 672 858 l 752 858 l 752 303 q 713 125 752 195 q 603 19 674 54 q 439 -15 533 -15 q 274 19 345 -15 q 163 125 203 54 q 124 303 124 195 l 124 858 m 542 983 l 305 1205 l 364 1253 l 584 1017 l 542 983 z "},"Ú":{"ha":881,"x_min":124,"x_max":752,"o":"m 124 858 l 204 858 l 204 303 q 269 117 204 174 q 439 60 333 60 q 607 117 543 60 q 672 303 672 174 l 672 858 l 752 858 l 752 303 q 713 125 752 195 q 603 19 674 54 q 439 -15 533 -15 q 274 19 345 -15 q 163 125 203 54 q 124 303 124 195 l 124 858 m 401 978 l 360 1011 l 580 1248 l 639 1199 l 401 978 z "},"ˆ":{"ha":560,"x_min":74,"x_max":488,"o":"m 124 753 l 74 792 l 281 1010 l 488 792 l 439 753 l 267 938 l 294 938 l 124 753 z "},"â":{"ha":740,"x_min":87,"x_max":618,"o":"m 548 0 l 538 137 l 538 428 q 494 569 538 528 q 372 611 451 611 q 289 598 327 611 q 228 557 251 585 q 205 483 205 529 l 113 483 q 148 595 113 553 q 241 656 183 638 q 372 674 300 674 q 498 650 442 674 q 586 570 553 625 q 618 427 618 516 l 618 0 l 548 0 m 319 -15 q 188 14 240 -15 q 112 88 137 42 q 87 181 87 133 q 120 292 87 250 q 211 352 154 333 q 335 371 267 371 q 440 359 385 371 q 544 328 494 348 l 544 274 q 445 303 501 292 q 343 315 389 315 q 222 284 272 315 q 172 181 172 253 q 209 88 172 126 q 329 49 247 49 q 433 76 385 49 q 509 144 480 103 q 538 225 538 184 l 558 225 q 528 107 558 162 q 445 18 499 52 q 319 -15 391 -15 m 213 745 l 163 784 l 369 1002 l 576 784 l 528 745 l 356 929 l 383 929 l 213 745 z "},"ê":{"ha":701,"x_min":74,"x_max":629,"o":"m 366 -15 q 214 29 280 -15 q 111 150 149 73 q 74 327 74 228 q 111 513 74 435 q 214 633 148 591 q 366 674 279 674 q 490 645 439 674 q 572 565 541 615 q 616 450 603 514 q 626 318 629 386 l 140 318 l 140 374 l 577 374 l 545 353 q 540 443 547 398 q 513 525 533 488 q 458 585 493 563 q 367 608 422 608 q 249 572 296 608 q 178 477 201 535 q 155 353 155 419 l 155 319 q 178 183 155 244 q 248 88 201 123 q 366 52 295 52 q 485 88 439 52 q 540 193 531 124 l 626 193 q 580 81 616 127 q 490 9 544 34 q 366 -15 435 -15 m 194 745 l 144 784 l 351 1002 l 558 784 l 509 745 l 337 929 l 365 929 l 194 745 z "},"ô":{"ha":745,"x_min":74,"x_max":673,"o":"m 374 -15 q 218 24 285 -15 q 112 141 151 64 q 74 330 74 218 q 112 518 74 442 q 218 635 151 595 q 374 674 285 674 q 529 635 462 674 q 635 518 597 595 q 673 330 673 442 q 635 141 673 218 q 529 24 597 64 q 374 -15 462 -15 m 372 55 q 494 89 445 55 q 566 185 542 124 q 590 330 590 247 q 537 530 590 454 q 375 606 484 606 q 254 571 302 606 q 182 475 206 537 q 158 330 158 413 q 211 131 158 206 q 372 55 264 55 m 215 745 l 165 784 l 372 1002 l 579 784 l 531 745 l 358 929 l 386 929 l 215 745 z "},"û":{"ha":826,"x_min":124,"x_max":679,"o":"m 599 660 l 679 660 l 679 0 l 599 0 l 599 660 m 124 660 l 204 660 l 204 246 q 249 106 204 154 q 378 58 294 58 q 497 95 448 58 q 573 196 547 133 q 599 335 599 259 l 637 335 q 604 151 637 230 q 512 30 572 73 q 370 -12 452 -12 q 239 16 294 -12 q 153 101 183 44 q 124 242 124 158 l 124 660 m 269 745 l 219 784 l 426 1002 l 633 784 l 584 745 l 412 929 l 440 929 l 269 745 z "},"Â":{"ha":763,"x_min":39,"x_max":723,"o":"m 39 0 l 335 858 l 431 858 l 723 0 l 638 0 l 559 238 l 206 238 l 123 0 l 39 0 m 226 303 l 537 303 l 381 758 l 226 303 m 226 944 l 176 983 l 383 1201 l 590 983 l 541 944 l 369 1128 l 397 1128 l 226 944 z "},"Ê":{"ha":764,"x_min":144,"x_max":661,"o":"m 144 0 l 144 858 l 661 858 l 661 789 l 225 789 l 225 468 l 636 468 l 636 399 l 225 399 l 225 70 l 661 70 l 661 0 l 144 0 m 224 944 l 174 983 l 381 1201 l 588 983 l 540 944 l 367 1128 l 395 1128 l 224 944 z "},"Î":{"ha":372,"x_min":-22,"x_max":392,"o":"m 146 0 l 146 858 l 226 858 l 226 0 l 146 0 m 28 944 l -22 983 l 185 1201 l 392 983 l 344 944 l 172 1128 l 199 1128 l 28 944 z "},"Ô":{"ha":871,"x_min":74,"x_max":798,"o":"m 436 -15 q 251 33 333 -15 q 122 180 169 82 q 74 426 74 278 q 122 675 74 576 q 251 823 169 774 q 436 872 333 872 q 620 823 538 872 q 750 675 702 774 q 798 426 798 576 q 750 179 798 277 q 620 33 702 81 q 436 -15 538 -15 m 436 60 q 640 153 565 60 q 714 428 714 246 q 640 703 714 607 q 436 799 565 799 q 233 703 308 799 q 158 426 158 606 q 233 153 158 245 q 436 60 308 60 m 284 944 l 234 983 l 441 1201 l 648 983 l 599 944 l 427 1128 l 455 1128 l 284 944 z "},"Û":{"ha":881,"x_min":124,"x_max":752,"o":"m 124 858 l 204 858 l 204 303 q 269 117 204 174 q 439 60 333 60 q 607 117 543 60 q 672 303 672 174 l 672 858 l 752 858 l 752 303 q 713 125 752 195 q 603 19 674 54 q 439 -15 533 -15 q 274 19 345 -15 q 163 125 203 54 q 124 303 124 195 l 124 858 m 283 944 l 233 983 l 440 1201 l 647 983 l 599 944 l 426 1128 l 454 1128 l 283 944 z "},"˜":{"ha":562,"x_min":74,"x_max":490,"o":"m 108 773 l 74 796 q 119 890 90 858 q 185 922 148 922 q 220 915 201 922 q 286 885 240 909 q 349 854 333 860 q 380 847 365 847 q 419 865 400 847 q 453 922 439 883 l 490 897 q 462 828 478 856 q 425 787 445 801 q 382 773 404 773 q 341 781 363 773 q 270 814 318 790 q 214 841 229 835 q 185 847 199 847 q 144 830 163 847 q 108 773 124 814 z "},"&":{"ha":1235,"x_min":122,"x_max":1176,"o":"m 1002 -15 q 916 4 956 -15 q 829 65 876 23 l 366 467 q 284 566 313 513 q 256 674 256 618 q 287 776 256 732 q 375 846 318 821 q 508 871 431 871 q 632 845 578 871 q 716 776 685 820 q 747 677 747 733 q 723 583 747 627 q 647 500 700 540 q 505 421 594 460 l 458 466 q 586 540 544 505 q 643 609 629 575 q 658 677 658 642 q 616 768 658 731 q 508 804 575 804 q 384 761 425 804 q 342 663 342 719 q 361 585 342 623 q 426 508 381 548 l 892 103 q 944 67 922 78 q 998 56 966 56 q 1062 83 1034 56 q 1096 176 1090 110 l 1176 176 q 1126 34 1170 84 q 1002 -15 1083 -15 m 448 -15 q 317 4 376 -15 q 213 57 257 23 q 145 137 169 92 q 122 234 122 182 q 205 392 122 340 q 451 458 288 444 l 465 407 q 272 352 335 393 q 208 235 208 311 q 236 146 208 187 q 317 81 263 106 q 449 56 371 56 q 610 93 538 56 q 741 195 683 131 q 844 344 800 260 q 919 522 888 428 l 978 490 q 898 296 946 388 q 785 134 850 204 q 636 25 720 65 q 448 -15 553 -15 z "},"@":{"ha":1242,"x_min":93,"x_max":1181,"o":"m 738 -224 q 474 -184 592 -224 q 270 -71 355 -144 q 139 102 185 2 q 93 323 93 203 q 135 539 93 440 q 255 714 178 639 q 438 830 333 788 q 669 872 543 872 q 881 836 786 872 q 1042 737 975 800 q 1145 590 1109 674 q 1181 410 1181 506 q 1157 266 1181 331 q 1094 153 1134 201 q 1004 79 1054 105 q 900 53 954 53 q 812 80 846 53 q 775 156 778 107 l 773 176 q 707 90 749 126 q 597 53 665 53 q 491 82 540 53 q 410 163 441 110 q 379 290 379 216 q 403 411 379 355 q 469 511 427 468 q 564 577 511 553 q 675 601 617 601 q 799 553 753 601 q 845 409 845 506 l 845 183 q 858 128 845 147 q 901 110 872 110 q 990 147 944 110 q 1066 252 1035 184 q 1097 412 1097 319 q 1044 613 1097 525 q 898 751 992 701 q 673 801 803 801 q 468 763 560 801 q 312 657 377 724 q 212 501 247 589 q 177 313 177 413 q 246 66 177 172 q 441 -100 315 -41 q 738 -160 567 -160 l 738 -224 m 605 119 q 702 155 663 119 q 773 256 741 192 l 773 410 q 751 505 773 474 q 679 537 728 537 q 579 507 630 537 q 494 421 528 476 q 460 288 460 365 q 501 163 460 207 q 605 119 542 119 z "},"¨":{"ha":481,"x_min":74,"x_max":409,"o":"m 348 790 q 306 807 323 790 q 288 847 288 823 q 306 889 288 871 q 348 906 323 906 q 391 889 374 906 q 409 847 409 871 q 391 807 409 823 q 348 790 374 790 m 133 790 q 91 807 108 790 q 74 846 74 823 q 91 888 74 871 q 133 905 108 905 q 177 888 159 905 q 194 846 194 871 q 177 807 194 823 q 133 790 159 790 z "},"ä":{"ha":740,"x_min":87,"x_max":618,"o":"m 548 0 l 538 137 l 538 428 q 494 569 538 528 q 372 611 451 611 q 289 598 327 611 q 228 557 251 585 q 205 483 205 529 l 113 483 q 148 595 113 553 q 241 656 183 638 q 372 674 300 674 q 498 650 442 674 q 586 570 553 625 q 618 427 618 516 l 618 0 l 548 0 m 319 -15 q 188 14 240 -15 q 112 88 137 42 q 87 181 87 133 q 120 292 87 250 q 211 352 154 333 q 335 371 267 371 q 440 359 385 371 q 544 328 494 348 l 544 274 q 445 303 501 292 q 343 315 389 315 q 222 284 272 315 q 172 181 172 253 q 209 88 172 126 q 329 49 247 49 q 433 76 385 49 q 509 144 480 103 q 538 225 538 184 l 558 225 q 528 107 558 162 q 445 18 499 52 q 319 -15 391 -15 m 476 790 q 434 807 451 790 q 417 847 417 823 q 434 889 417 871 q 476 906 451 906 q 520 889 502 906 q 538 847 538 871 q 520 807 538 823 q 476 790 502 790 m 262 790 q 219 807 236 790 q 202 846 202 823 q 219 888 202 871 q 262 905 236 905 q 305 888 288 905 q 323 846 323 871 q 305 807 323 823 q 262 790 288 790 z "},"ë":{"ha":701,"x_min":74,"x_max":629,"o":"m 366 -15 q 214 29 280 -15 q 111 150 149 73 q 74 327 74 228 q 111 513 74 435 q 214 633 148 591 q 366 674 279 674 q 490 645 439 674 q 572 565 541 615 q 616 450 603 514 q 626 318 629 386 l 140 318 l 140 374 l 577 374 l 545 353 q 540 443 547 398 q 513 525 533 488 q 458 585 493 563 q 367 608 422 608 q 249 572 296 608 q 178 477 201 535 q 155 353 155 419 l 155 319 q 178 183 155 244 q 248 88 201 123 q 366 52 295 52 q 485 88 439 52 q 540 193 531 124 l 626 193 q 580 81 616 127 q 490 9 544 34 q 366 -15 435 -15 m 458 790 q 415 807 433 790 q 398 847 398 823 q 415 889 398 871 q 458 906 433 906 q 501 889 483 906 q 519 847 519 871 q 501 807 519 823 q 458 790 483 790 m 243 790 q 200 807 217 790 q 183 846 183 823 q 200 888 183 871 q 243 905 217 905 q 286 888 269 905 q 304 846 304 871 q 286 807 304 823 q 243 790 269 790 z "},"ö":{"ha":745,"x_min":74,"x_max":673,"o":"m 374 -15 q 218 24 285 -15 q 112 141 151 64 q 74 330 74 218 q 112 518 74 442 q 218 635 151 595 q 374 674 285 674 q 529 635 462 674 q 635 518 597 595 q 673 330 673 442 q 635 141 673 218 q 529 24 597 64 q 374 -15 462 -15 m 372 55 q 494 89 445 55 q 566 185 542 124 q 590 330 590 247 q 537 530 590 454 q 375 606 484 606 q 254 571 302 606 q 182 475 206 537 q 158 330 158 413 q 211 131 158 206 q 372 55 264 55 m 480 790 q 438 807 455 790 q 420 847 420 823 q 438 889 420 871 q 480 906 455 906 q 523 889 506 906 q 541 847 541 871 q 523 807 541 823 q 480 790 506 790 m 265 790 q 223 807 240 790 q 206 846 206 823 q 223 888 206 871 q 265 905 240 905 q 309 888 291 905 q 326 846 326 871 q 309 807 326 823 q 265 790 291 790 z "},"ü":{"ha":826,"x_min":124,"x_max":679,"o":"m 599 660 l 679 660 l 679 0 l 599 0 l 599 660 m 124 660 l 204 660 l 204 246 q 249 106 204 154 q 378 58 294 58 q 497 95 448 58 q 573 196 547 133 q 599 335 599 259 l 637 335 q 604 151 637 230 q 512 30 572 73 q 370 -12 452 -12 q 239 16 294 -12 q 153 101 183 44 q 124 242 124 158 l 124 660 m 533 790 q 491 807 508 790 q 474 847 474 823 q 491 889 474 871 q 533 906 508 906 q 577 889 559 906 q 594 847 594 871 q 577 807 594 823 q 533 790 559 790 m 319 790 q 276 807 293 790 q 259 846 259 823 q 276 888 259 871 q 319 905 293 905 q 362 888 344 905 q 380 846 380 871 q 362 807 380 823 q 319 790 344 790 z "},"Ä":{"ha":763,"x_min":39,"x_max":723,"o":"m 39 0 l 335 858 l 431 858 l 723 0 l 638 0 l 559 238 l 206 238 l 123 0 l 39 0 m 226 303 l 537 303 l 381 758 l 226 303 m 490 990 q 448 1006 465 990 q 431 1046 431 1022 q 448 1088 431 1070 q 490 1106 465 1106 q 534 1088 516 1106 q 551 1046 551 1070 q 534 1006 551 1022 q 490 990 516 990 m 276 990 q 233 1006 250 990 q 216 1045 216 1022 q 233 1087 216 1070 q 276 1104 250 1104 q 319 1087 301 1104 q 337 1045 337 1070 q 319 1006 337 1022 q 276 990 301 990 z "},"Ë":{"ha":764,"x_min":144,"x_max":661,"o":"m 144 0 l 144 858 l 661 858 l 661 789 l 225 789 l 225 468 l 636 468 l 636 399 l 225 399 l 225 70 l 661 70 l 661 0 l 144 0 m 488 990 q 446 1006 463 990 q 428 1046 428 1022 q 446 1088 428 1070 q 488 1106 463 1106 q 532 1088 514 1106 q 549 1046 549 1070 q 532 1006 549 1022 q 488 990 514 990 m 274 990 q 231 1006 248 990 q 214 1045 214 1022 q 231 1087 214 1070 q 274 1104 248 1104 q 317 1087 299 1104 q 335 1045 335 1070 q 317 1006 335 1022 q 274 990 299 990 z "},"Ï":{"ha":372,"x_min":18,"x_max":353,"o":"m 146 0 l 146 858 l 226 858 l 226 0 l 146 0 m 292 990 q 250 1006 267 990 q 233 1046 233 1022 q 250 1088 233 1070 q 292 1106 267 1106 q 336 1088 318 1106 q 353 1046 353 1070 q 336 1006 353 1022 q 292 990 318 990 m 78 990 q 35 1006 52 990 q 18 1045 18 1022 q 35 1087 18 1070 q 78 1104 52 1104 q 121 1087 103 1104 q 139 1045 139 1070 q 121 1006 139 1022 q 78 990 103 990 z "},"Ö":{"ha":871,"x_min":74,"x_max":798,"o":"m 436 -15 q 251 33 333 -15 q 122 180 169 82 q 74 426 74 278 q 122 675 74 576 q 251 823 169 774 q 436 872 333 872 q 620 823 538 872 q 750 675 702 774 q 798 426 798 576 q 750 179 798 277 q 620 33 702 81 q 436 -15 538 -15 m 436 60 q 640 153 565 60 q 714 428 714 246 q 640 703 714 607 q 436 799 565 799 q 233 703 308 799 q 158 426 158 606 q 233 153 158 245 q 436 60 308 60 m 548 990 q 506 1006 523 990 q 488 1046 488 1022 q 506 1088 488 1070 q 548 1106 523 1106 q 591 1088 574 1106 q 609 1046 609 1070 q 591 1006 609 1022 q 548 990 574 990 m 333 990 q 291 1006 308 990 q 274 1045 274 1022 q 291 1087 274 1070 q 333 1104 308 1104 q 377 1087 359 1104 q 394 1045 394 1070 q 377 1006 394 1022 q 333 990 359 990 z "},"Ü":{"ha":881,"x_min":124,"x_max":752,"o":"m 124 858 l 204 858 l 204 303 q 269 117 204 174 q 439 60 333 60 q 607 117 543 60 q 672 303 672 174 l 672 858 l 752 858 l 752 303 q 713 125 752 195 q 603 19 674 54 q 439 -15 533 -15 q 274 19 345 -15 q 163 125 203 54 q 124 303 124 195 l 124 858 m 547 990 q 505 1006 522 990 q 488 1046 488 1022 q 505 1088 488 1070 q 547 1106 522 1106 q 591 1088 573 1106 q 608 1046 608 1070 q 591 1006 608 1022 q 547 990 573 990 m 333 990 q 290 1006 307 990 q 273 1045 273 1022 q 290 1087 273 1070 q 333 1104 307 1104 q 376 1087 358 1104 q 394 1045 394 1070 q 376 1006 394 1022 q 333 990 358 990 z "},"ì":{"ha":393,"x_min":53,"x_max":332,"o":"m 149 0 l 149 660 l 230 660 l 230 0 l 149 0 m 290 784 l 53 1006 l 112 1054 l 332 817 l 290 784 z "},"í":{"ha":393,"x_min":107,"x_max":387,"o":"m 149 0 l 149 660 l 230 660 l 230 0 l 149 0 m 149 779 l 108 813 l 328 1049 l 387 1001 l 149 779 z "},"î":{"ha":393,"x_min":-19,"x_max":394,"o":"m 149 0 l 149 660 l 230 660 l 230 0 l 149 0 m 31 745 l -19 784 l 188 1002 l 395 784 l 347 745 l 174 929 l 202 929 l 31 745 z "},"ï":{"ha":393,"x_min":21,"x_max":356,"o":"m 149 0 l 149 660 l 230 660 l 230 0 l 149 0 m 295 790 q 253 807 270 790 q 235 847 235 823 q 253 889 235 871 q 295 906 270 906 q 339 889 321 906 q 356 847 356 871 q 339 807 356 823 q 295 790 321 790 m 81 790 q 38 807 55 790 q 21 846 21 823 q 38 888 21 871 q 81 905 55 905 q 124 888 106 905 q 142 846 142 871 q 124 807 142 823 q 81 790 106 790 z "},"<":{"ha":713,"x_min":118,"x_max":594,"o":"m 542 761 l 594 699 l 173 396 l 173 428 l 594 128 l 542 64 l 118 378 l 118 446 l 542 761 z "},">":{"ha":713,"x_min":118,"x_max":594,"o":"m 170 64 l 118 128 l 535 428 l 535 396 l 118 699 l 170 761 l 594 446 l 594 378 l 170 64 z "},"\"":{"ha":369,"x_min":38,"x_max":331,"o":"m 257 651 l 247 944 l 331 944 l 319 651 l 257 651 m 49 651 l 38 944 l 123 944 l 111 651 l 49 651 z "},"#":{"ha":832,"x_min":71,"x_max":779,"o":"m 194 42 l 215 240 l 71 240 l 76 297 l 220 297 l 248 560 l 104 560 l 109 617 l 255 617 l 274 813 l 349 813 l 330 617 l 556 617 l 578 813 l 651 813 l 631 617 l 779 617 l 772 560 l 625 560 l 599 297 l 746 297 l 739 240 l 592 240 l 570 42 l 495 42 l 517 240 l 290 240 l 269 42 l 194 42 m 295 297 l 522 297 l 549 560 l 323 560 l 295 297 z "},"*":{"ha":575,"x_min":82,"x_max":493,"o":"m 121 579 l 249 706 l 82 766 l 111 828 l 263 752 l 253 936 l 322 936 l 312 752 l 464 828 l 493 765 l 327 708 l 455 579 l 402 533 l 289 680 l 175 533 l 121 579 z "},"/":{"ha":572,"x_min":82,"x_max":509,"o":"m 82 -94 l 426 1006 l 509 1006 l 162 -94 l 82 -94 z "},"%":{"ha":981,"x_min":85,"x_max":894,"o":"m 158 0 l 733 858 l 819 858 l 243 0 l 158 0 m 722 -13 q 639 9 678 -13 q 576 75 600 31 q 551 181 551 118 q 576 286 551 244 q 639 351 600 329 q 722 374 678 374 q 807 351 767 374 q 870 286 847 329 q 894 181 894 244 q 870 75 894 118 q 807 9 847 31 q 722 -13 767 -13 m 722 47 q 796 79 767 47 q 825 181 825 112 q 796 282 825 249 q 722 315 767 315 q 648 282 676 315 q 619 181 619 249 q 648 79 619 112 q 722 47 676 47 m 255 486 q 172 508 211 486 q 109 573 133 531 q 85 678 85 616 q 109 784 85 741 q 172 850 133 828 q 255 872 211 872 q 340 850 300 872 q 403 784 379 828 q 428 678 428 741 q 403 573 428 616 q 340 508 379 531 q 255 486 300 486 m 255 544 q 328 577 299 544 q 356 678 356 610 q 328 781 356 747 q 255 815 299 815 q 181 781 209 815 q 153 678 153 747 q 181 577 153 610 q 255 544 209 544 z "},"\\":{"ha":572,"x_min":65,"x_max":492,"o":"m 65 1006 l 145 1006 l 492 -94 l 410 -94 l 65 1006 z "},"|":{"ha":372,"x_min":146,"x_max":226,"o":"m 146 -169 l 146 1028 l 226 1028 l 226 -169 l 146 -169 z "},"[":{"ha":414,"x_min":146,"x_max":385,"o":"m 146 -112 l 146 972 l 385 972 l 385 903 l 226 903 l 226 -43 l 385 -43 l 385 -112 l 146 -112 z "},"]":{"ha":358,"x_min":-26,"x_max":213,"o":"m 213 -112 l -26 -112 l -26 -43 l 132 -43 l 132 903 l -26 903 l -26 972 l 213 972 l 213 -112 z "},"^":{"ha":713,"x_min":99,"x_max":614,"o":"m 99 359 l 326 802 l 387 802 l 614 359 l 523 359 l 342 733 l 371 733 l 192 359 l 99 359 z "},"_":{"ha":976,"x_min":76,"x_max":902,"o":"m 76 0 l 76 70 l 902 70 l 902 0 l 76 0 z "},"{":{"ha":453,"x_min":107,"x_max":440,"o":"m 440 -179 q 284 -138 342 -179 q 202 -27 226 -97 q 177 133 177 44 l 177 260 q 165 348 177 322 q 125 374 152 374 l 107 374 l 107 449 l 125 449 q 165 475 152 449 q 177 563 177 501 l 177 691 q 202 852 177 781 q 284 964 226 924 q 440 1005 342 1005 l 440 935 q 297 871 338 935 q 256 690 256 807 l 256 563 q 239 465 256 500 q 194 414 222 429 l 194 411 q 239 361 222 396 q 256 262 256 326 l 256 135 q 297 -46 256 18 q 440 -110 338 -110 l 440 -179 z "},"}":{"ha":453,"x_min":14,"x_max":347,"o":"m 14 -179 l 14 -110 q 157 -46 116 -110 q 197 135 197 18 l 197 262 q 214 361 197 326 q 260 411 231 396 l 260 414 q 214 465 231 429 q 197 563 197 500 l 197 690 q 157 871 197 807 q 14 935 116 935 l 14 1005 q 170 964 113 1005 q 252 852 227 924 q 276 691 276 781 l 276 563 q 289 475 276 501 q 328 449 301 449 l 347 449 l 347 374 l 328 374 q 289 348 301 374 q 276 260 276 322 l 276 133 q 252 -27 276 44 q 170 -138 227 -97 q 14 -179 113 -179 z "},"~":{"ha":713,"x_min":90,"x_max":623,"o":"m 135 323 l 90 347 q 147 448 112 415 q 224 481 181 481 q 274 473 246 481 q 356 442 303 464 q 443 411 418 418 q 487 404 468 404 q 537 424 513 404 q 579 485 561 444 l 623 456 q 564 356 600 387 q 483 326 528 326 q 432 335 463 326 q 348 365 401 344 q 264 395 289 388 q 220 403 240 403 q 176 386 198 403 q 135 323 155 369 z "},"ã":{"ha":740,"x_min":87,"x_max":618,"o":"m 548 0 l 538 137 l 538 428 q 494 569 538 528 q 372 611 451 611 q 289 598 327 611 q 228 557 251 585 q 205 483 205 529 l 113 483 q 148 595 113 553 q 241 656 183 638 q 372 674 300 674 q 498 650 442 674 q 586 570 553 625 q 618 427 618 516 l 618 0 l 548 0 m 319 -15 q 188 14 240 -15 q 112 88 137 42 q 87 181 87 133 q 120 292 87 250 q 211 352 154 333 q 335 371 267 371 q 440 359 385 371 q 544 328 494 348 l 544 274 q 445 303 501 292 q 343 315 389 315 q 222 284 272 315 q 172 181 172 253 q 209 88 172 126 q 329 49 247 49 q 433 76 385 49 q 509 144 480 103 q 538 225 538 184 l 558 225 q 528 107 558 162 q 445 18 499 52 q 319 -15 391 -15 m 197 767 l 163 790 q 208 884 179 853 q 274 916 237 916 q 309 910 290 916 q 375 879 328 903 q 438 848 422 855 q 469 842 453 842 q 508 859 489 842 q 542 916 528 877 l 578 891 q 551 823 567 851 q 514 781 534 795 q 471 767 493 767 q 430 776 452 767 q 359 808 407 784 q 303 835 318 830 q 274 841 288 841 q 233 825 252 841 q 197 767 213 808 z "},"ñ":{"ha":824,"x_min":146,"x_max":701,"o":"m 623 0 l 623 388 q 573 549 623 493 q 434 604 522 604 q 323 569 369 604 q 251 469 276 533 q 226 320 226 406 l 191 320 q 220 508 191 428 q 308 631 250 588 q 452 674 366 674 q 584 640 528 674 q 671 542 640 606 q 701 388 701 478 l 701 0 l 623 0 m 146 0 l 146 659 l 214 659 l 226 497 l 226 0 l 146 0 m 262 779 l 228 802 q 273 896 244 865 q 339 928 302 928 q 375 922 356 928 q 440 891 394 915 q 503 860 487 867 q 534 853 519 853 q 574 871 554 853 q 608 928 593 889 l 644 903 q 616 835 633 863 q 579 793 599 807 q 536 779 558 779 q 495 788 517 779 q 424 820 472 796 q 368 847 383 842 q 339 853 353 853 q 298 836 317 853 q 262 779 278 820 z "},"õ":{"ha":745,"x_min":74,"x_max":673,"o":"m 374 -15 q 218 24 285 -15 q 112 141 151 64 q 74 330 74 218 q 112 518 74 442 q 218 635 151 595 q 374 674 285 674 q 529 635 462 674 q 635 518 597 595 q 673 330 673 442 q 635 141 673 218 q 529 24 597 64 q 374 -15 462 -15 m 372 55 q 494 89 445 55 q 566 185 542 124 q 590 330 590 247 q 537 530 590 454 q 375 606 484 606 q 254 571 302 606 q 182 475 206 537 q 158 330 158 413 q 211 131 158 206 q 372 55 264 55 m 199 767 l 165 790 q 211 884 182 853 q 276 916 240 916 q 312 910 293 916 q 378 879 331 903 q 440 848 424 855 q 472 842 456 842 q 511 859 492 842 q 545 916 531 877 l 581 891 q 553 823 570 851 q 516 781 537 795 q 474 767 496 767 q 432 776 455 767 q 362 808 410 784 q 306 835 321 830 q 276 841 291 841 q 235 825 255 841 q 199 767 216 808 z "},"Ã":{"ha":763,"x_min":39,"x_max":723,"o":"m 39 0 l 335 858 l 431 858 l 723 0 l 638 0 l 559 238 l 206 238 l 123 0 l 39 0 m 226 303 l 537 303 l 381 758 l 226 303 m 210 967 l 176 990 q 221 1084 192 1052 q 287 1115 250 1115 q 323 1109 303 1115 q 388 1078 342 1103 q 451 1048 435 1054 q 482 1041 467 1041 q 522 1059 502 1041 q 556 1115 541 1076 l 592 1090 q 564 1022 581 1050 q 527 981 547 994 q 484 967 506 967 q 443 975 465 967 q 372 1008 420 983 q 316 1035 331 1029 q 287 1040 301 1040 q 246 1024 265 1040 q 210 967 226 1008 z "},"Ñ":{"ha":927,"x_min":145,"x_max":781,"o":"m 145 858 l 249 858 l 709 102 l 701 102 l 701 858 l 781 858 l 781 0 l 683 0 l 214 772 l 226 772 l 226 0 l 145 0 l 145 858 m 290 967 l 256 990 q 301 1084 272 1052 q 367 1115 330 1115 q 402 1109 383 1115 q 468 1078 422 1103 q 531 1048 515 1054 q 562 1041 547 1041 q 601 1059 582 1041 q 635 1115 621 1076 l 672 1090 q 644 1022 660 1050 q 607 981 627 994 q 564 967 586 967 q 523 975 545 967 q 452 1008 500 983 q 396 1035 411 1029 q 367 1040 381 1040 q 326 1024 345 1040 q 290 967 306 1008 z "},"Õ":{"ha":871,"x_min":74,"x_max":798,"o":"m 436 -15 q 251 33 333 -15 q 122 180 169 82 q 74 426 74 278 q 122 675 74 576 q 251 823 169 774 q 436 872 333 872 q 620 823 538 872 q 750 675 702 774 q 798 426 798 576 q 750 179 798 277 q 620 33 702 81 q 436 -15 538 -15 m 436 60 q 640 153 565 60 q 714 428 714 246 q 640 703 714 607 q 436 799 565 799 q 233 703 308 799 q 158 426 158 606 q 233 153 158 245 q 436 60 308 60 m 268 967 l 234 990 q 280 1084 251 1052 q 345 1115 308 1115 q 381 1109 362 1115 q 447 1078 400 1103 q 509 1048 493 1054 q 540 1041 525 1041 q 580 1059 560 1041 q 614 1115 599 1076 l 650 1090 q 622 1022 639 1050 q 585 981 606 994 q 542 967 565 967 q 501 975 524 967 q 431 1008 478 983 q 375 1035 390 1029 q 345 1040 360 1040 q 304 1024 324 1040 q 268 967 285 1008 z "},"Ă":{"ha":763,"x_min":39,"x_max":723,"o":"m 39 0 l 335 858 l 431 858 l 723 0 l 638 0 l 559 238 l 206 238 l 123 0 l 39 0 m 226 303 l 537 303 l 381 758 l 226 303 m 383 997 q 253 1042 302 997 q 203 1153 203 1088 l 274 1153 q 305 1081 274 1107 q 383 1054 335 1054 q 463 1081 433 1054 q 492 1153 492 1107 l 563 1153 q 514 1042 563 1088 q 383 997 465 997 z "},"Ā":{"ha":763,"x_min":39,"x_max":723,"o":"m 39 0 l 335 858 l 431 858 l 723 0 l 638 0 l 559 238 l 206 238 l 123 0 l 39 0 m 226 303 l 537 303 l 381 758 l 226 303 m 178 1078 l 589 1078 l 589 1010 l 178 1010 l 178 1078 z "},"Ą":{"ha":763,"x_min":39,"x_max":803,"o":"m 39 0 l 335 858 l 431 858 l 723 0 l 638 0 l 559 238 l 206 238 l 123 0 l 39 0 m 226 303 l 537 303 l 381 758 l 226 303 m 803 -233 q 713 -271 761 -258 q 622 -284 665 -284 q 519 -254 557 -284 q 481 -172 481 -224 q 530 -61 481 -115 q 676 27 578 -8 l 718 0 q 591 -74 638 -35 q 544 -156 544 -112 q 570 -205 544 -189 q 635 -222 597 -222 q 704 -210 668 -222 q 783 -176 740 -199 l 803 -233 z "},"Å":{"ha":763,"x_min":39,"x_max":723,"o":"m 39 0 l 335 858 l 431 858 l 723 0 l 638 0 l 559 238 l 206 238 l 123 0 l 39 0 m 226 303 l 537 303 l 381 758 l 226 303 m 383 938 q 320 955 349 938 q 275 1001 292 972 q 258 1065 258 1030 q 275 1128 258 1099 q 320 1174 292 1156 q 384 1191 349 1191 q 447 1174 418 1191 q 493 1128 476 1156 q 510 1065 510 1099 q 493 1001 510 1030 q 447 955 476 972 q 383 938 418 938 m 383 1000 q 430 1019 411 1000 q 448 1065 448 1038 q 430 1110 448 1092 q 383 1129 411 1129 q 338 1110 357 1129 q 319 1065 319 1092 q 338 1019 319 1038 q 383 1000 357 1000 z "},"Æ":{"ha":1138,"x_min":86,"x_max":1035,"o":"m 1035 858 l 1035 789 l 603 789 l 619 804 l 619 435 l 603 461 l 1010 461 l 1010 392 l 603 392 l 619 413 l 619 37 l 603 71 l 1035 71 l 1035 0 l 538 0 l 538 262 l 555 238 l 228 238 l 269 258 l 169 0 l 86 0 l 421 858 l 1035 858 m 555 303 l 538 278 l 538 803 l 555 789 l 452 789 l 487 815 l 281 288 l 265 303 l 555 303 z "},"Ć":{"ha":838,"x_min":74,"x_max":771,"o":"m 436 -15 q 242 43 323 -15 q 117 204 160 102 q 74 436 74 306 q 122 675 74 578 q 252 822 170 772 q 436 872 335 872 q 650 805 567 872 q 769 632 733 738 l 681 613 q 586 750 652 699 q 436 800 521 800 q 300 759 363 800 q 199 636 238 717 q 160 436 160 555 q 190 244 160 330 q 281 108 219 158 q 436 58 342 58 q 614 117 547 58 q 681 276 681 177 l 771 276 q 728 121 771 186 q 609 20 685 56 q 436 -15 533 -15 m 400 978 l 358 1011 l 578 1248 l 638 1199 l 400 978 z "},"Č":{"ha":838,"x_min":74,"x_max":771,"o":"m 436 -15 q 242 43 323 -15 q 117 204 160 102 q 74 436 74 306 q 122 675 74 578 q 252 822 170 772 q 436 872 335 872 q 650 805 567 872 q 769 632 733 738 l 681 613 q 586 750 652 699 q 436 800 521 800 q 300 759 363 800 q 199 636 238 717 q 160 436 160 555 q 190 244 160 330 q 281 108 219 158 q 436 58 342 58 q 614 117 547 58 q 681 276 681 177 l 771 276 q 728 121 771 186 q 609 20 685 56 q 436 -15 533 -15 m 440 965 l 233 1182 l 283 1221 l 454 1032 l 426 1032 l 599 1221 l 647 1182 l 440 965 z "},"Ç":{"ha":838,"x_min":74,"x_max":771,"o":"m 436 -15 q 242 43 323 -15 q 117 204 160 102 q 74 436 74 306 q 122 675 74 578 q 252 822 170 772 q 436 872 335 872 q 650 805 567 872 q 769 632 733 738 l 681 613 q 586 750 652 699 q 436 800 521 800 q 300 759 363 800 q 199 636 238 717 q 160 436 160 555 q 190 244 160 330 q 281 108 219 158 q 436 58 342 58 q 614 117 547 58 q 681 276 681 177 l 771 276 q 728 121 771 186 q 609 20 685 56 q 436 -15 533 -15 m 308 -243 l 324 -203 q 421 -237 378 -233 q 491 -227 465 -242 q 518 -186 517 -212 q 497 -140 520 -160 q 441 -108 474 -121 q 375 -87 407 -94 l 422 31 l 479 28 l 434 -85 l 407 -47 q 510 -82 467 -62 q 575 -128 553 -102 q 594 -189 597 -154 q 560 -252 591 -228 q 485 -282 530 -275 q 392 -279 440 -289 q 308 -243 344 -269 z "},"Ċ":{"ha":838,"x_min":74,"x_max":771,"o":"m 436 -15 q 242 43 323 -15 q 117 204 160 102 q 74 436 74 306 q 122 675 74 578 q 252 822 170 772 q 436 872 335 872 q 650 805 567 872 q 769 632 733 738 l 681 613 q 586 750 652 699 q 436 800 521 800 q 300 759 363 800 q 199 636 238 717 q 160 436 160 555 q 190 244 160 330 q 281 108 219 158 q 436 58 342 58 q 614 117 547 58 q 681 276 681 177 l 771 276 q 728 121 771 186 q 609 20 685 56 q 436 -15 533 -15 m 439 993 q 394 1011 413 993 q 376 1053 376 1028 q 394 1098 376 1079 q 439 1117 413 1117 q 485 1098 466 1117 q 505 1053 505 1079 q 485 1011 505 1028 q 439 993 466 993 z "},"Ď":{"ha":899,"x_min":146,"x_max":803,"o":"m 146 858 l 383 858 q 607 805 513 858 q 752 655 701 751 q 803 429 803 559 q 752 204 803 301 q 607 54 701 108 q 383 0 513 0 l 146 0 l 146 858 m 226 788 l 226 68 l 383 68 q 563 115 488 68 q 678 244 638 163 q 719 429 719 326 q 678 614 719 533 q 563 742 638 695 q 383 788 488 788 l 226 788 m 450 965 l 243 1182 l 293 1221 l 464 1032 l 436 1032 l 608 1221 l 657 1182 l 450 965 z "},"Đ":{"ha":899,"x_min":31,"x_max":803,"o":"m 31 463 l 462 463 l 462 396 l 31 396 l 31 463 m 146 858 l 383 858 q 607 805 513 858 q 752 655 701 751 q 803 429 803 559 q 752 204 803 301 q 607 54 701 108 q 383 0 513 0 l 146 0 l 146 858 m 226 788 l 226 68 l 383 68 q 563 115 488 68 q 678 244 638 163 q 719 429 719 326 q 678 614 719 533 q 563 742 638 695 q 383 788 488 788 l 226 788 z "},"Ð":{"ha":899,"x_min":31,"x_max":803,"o":"m 31 463 l 462 463 l 462 396 l 31 396 l 31 463 m 146 858 l 383 858 q 607 805 513 858 q 752 655 701 751 q 803 429 803 559 q 752 204 803 301 q 607 54 701 108 q 383 0 513 0 l 146 0 l 146 858 m 226 788 l 226 68 l 383 68 q 563 115 488 68 q 678 244 638 163 q 719 429 719 326 q 678 614 719 533 q 563 742 638 695 q 383 788 488 788 l 226 788 z "},"Ě":{"ha":764,"x_min":144,"x_max":661,"o":"m 144 0 l 144 858 l 661 858 l 661 789 l 225 789 l 225 468 l 636 468 l 636 399 l 225 399 l 225 70 l 661 70 l 661 0 l 144 0 m 383 965 l 176 1182 l 226 1221 l 397 1032 l 369 1032 l 541 1221 l 590 1182 l 383 965 z "},"Ė":{"ha":764,"x_min":144,"x_max":661,"o":"m 144 0 l 144 858 l 661 858 l 661 789 l 225 789 l 225 468 l 636 468 l 636 399 l 225 399 l 225 70 l 661 70 l 661 0 l 144 0 m 381 993 q 336 1011 355 993 q 318 1053 318 1028 q 336 1098 318 1079 q 381 1117 355 1117 q 428 1098 408 1117 q 447 1053 447 1079 q 428 1011 447 1028 q 381 993 408 993 z "},"Ē":{"ha":764,"x_min":144,"x_max":661,"o":"m 144 0 l 144 858 l 661 858 l 661 789 l 225 789 l 225 468 l 636 468 l 636 399 l 225 399 l 225 70 l 661 70 l 661 0 l 144 0 m 177 1078 l 588 1078 l 588 1010 l 177 1010 l 177 1078 z "},"Ę":{"ha":764,"x_min":144,"x_max":728,"o":"m 144 0 l 144 858 l 661 858 l 661 789 l 225 789 l 225 468 l 636 468 l 636 399 l 225 399 l 225 70 l 661 70 l 661 0 l 144 0 m 727 -233 q 637 -271 685 -258 q 546 -284 589 -284 q 443 -254 481 -284 q 405 -172 405 -224 q 453 -61 405 -115 q 599 27 502 -8 l 642 0 q 514 -74 561 -35 q 467 -156 467 -112 q 494 -205 467 -189 q 559 -222 520 -222 q 628 -210 592 -222 q 706 -176 664 -199 l 727 -233 z "},"Ğ":{"ha":872,"x_min":74,"x_max":769,"o":"m 442 -15 q 257 37 341 -15 q 123 186 173 89 q 74 417 74 283 q 106 617 74 531 q 195 759 139 702 q 324 843 252 815 q 475 872 397 872 q 638 836 565 872 q 769 723 710 800 l 699 688 q 590 772 646 746 q 473 798 533 798 q 317 752 389 798 q 202 621 245 706 q 158 417 158 535 q 193 233 158 314 q 291 106 227 153 q 445 60 356 60 q 564 90 511 60 q 646 185 616 121 q 676 349 676 249 l 708 349 q 682 156 708 238 q 597 30 656 74 q 442 -15 538 -15 m 694 0 l 676 209 l 676 350 l 449 358 l 449 417 l 756 417 l 756 0 l 694 0 m 436 997 q 306 1042 355 997 q 256 1153 256 1088 l 327 1153 q 357 1081 327 1107 q 436 1054 388 1054 q 515 1081 485 1054 q 545 1153 545 1107 l 616 1153 q 567 1042 616 1088 q 436 997 517 997 z "},"Ģ":{"ha":872,"x_min":74,"x_max":769,"o":"m 442 -15 q 257 37 341 -15 q 123 186 173 89 q 74 417 74 283 q 106 617 74 531 q 195 759 139 702 q 324 843 252 815 q 475 872 397 872 q 638 836 565 872 q 769 723 710 800 l 699 688 q 590 772 646 746 q 473 798 533 798 q 317 752 389 798 q 202 621 245 706 q 158 417 158 535 q 193 233 158 314 q 291 106 227 153 q 445 60 356 60 q 564 90 511 60 q 646 185 616 121 q 676 349 676 249 l 708 349 q 682 156 708 238 q 597 30 656 74 q 442 -15 538 -15 m 694 0 l 676 209 l 676 350 l 449 358 l 449 417 l 756 417 l 756 0 l 694 0 m 403 -301 l 348 -274 q 411 -234 386 -256 q 444 -178 435 -212 q 402 -163 419 -177 q 388 -124 386 -149 q 406 -86 390 -102 q 447 -71 422 -71 q 495 -92 475 -71 q 515 -152 516 -114 q 486 -231 513 -189 q 403 -301 459 -274 z "},"Ġ":{"ha":872,"x_min":74,"x_max":769,"o":"m 442 -15 q 257 37 341 -15 q 123 186 173 89 q 74 417 74 283 q 106 617 74 531 q 195 759 139 702 q 324 843 252 815 q 475 872 397 872 q 638 836 565 872 q 769 723 710 800 l 699 688 q 590 772 646 746 q 473 798 533 798 q 317 752 389 798 q 202 621 245 706 q 158 417 158 535 q 193 233 158 314 q 291 106 227 153 q 445 60 356 60 q 564 90 511 60 q 646 185 616 121 q 676 349 676 249 l 708 349 q 682 156 708 238 q 597 30 656 74 q 442 -15 538 -15 m 694 0 l 676 209 l 676 350 l 449 358 l 449 417 l 756 417 l 756 0 l 694 0 m 435 993 q 391 1011 409 993 q 372 1053 372 1028 q 391 1098 372 1079 q 435 1117 409 1117 q 482 1098 463 1117 q 501 1053 501 1079 q 482 1011 501 1028 q 435 993 463 993 z "},"Ħ":{"ha":903,"x_min":146,"x_max":756,"o":"m 146 0 l 146 858 l 226 858 l 226 442 l 678 442 l 678 858 l 756 858 l 756 0 l 678 0 l 678 374 l 226 374 l 226 0 l 146 0 m 197 570 l 197 635 l 724 635 l 724 570 l 197 570 z "},"Ĳ":{"ha":905,"x_min":146,"x_max":791,"o":"m 146 0 l 146 858 l 226 858 l 226 0 l 146 0 m 378 46 l 378 133 q 471 82 424 101 q 566 63 519 63 q 678 110 646 63 q 711 239 711 158 l 711 858 l 791 858 l 791 239 q 765 94 791 151 q 689 11 738 38 q 569 -15 639 -15 q 469 2 516 -15 q 378 46 422 19 z "},"İ":{"ha":372,"x_min":122,"x_max":251,"o":"m 146 0 l 146 858 l 226 858 l 226 0 l 146 0 m 185 993 q 141 1011 159 993 q 122 1053 122 1028 q 141 1098 122 1079 q 185 1117 159 1117 q 232 1098 213 1117 q 251 1053 251 1079 q 232 1011 251 1028 q 185 993 213 993 z "},"Ī":{"ha":372,"x_min":51,"x_max":322,"o":"m 146 0 l 146 858 l 226 858 l 226 0 l 146 0 m 51 1078 l 322 1078 l 322 1010 l 51 1010 l 51 1078 z "},"Į":{"ha":372,"x_min":-11,"x_max":311,"o":"m 146 0 l 146 858 l 226 858 l 226 0 l 146 0 m 311 -233 q 221 -271 269 -258 q 130 -284 173 -284 q 27 -254 65 -284 q -11 -172 -11 -224 q 38 -61 -11 -115 q 183 27 86 -8 l 226 0 q 98 -74 145 -35 q 51 -156 51 -112 q 78 -205 51 -189 q 143 -222 104 -222 q 212 -210 176 -222 q 290 -176 248 -199 l 311 -233 z "},"Ķ":{"ha":812,"x_min":146,"x_max":773,"o":"m 638 858 l 750 858 l 212 301 l 212 419 l 638 858 m 363 492 l 773 0 l 666 0 l 303 439 l 363 492 m 146 858 l 228 858 l 228 0 l 146 0 l 146 858 m 373 -301 l 318 -274 q 381 -234 356 -256 q 414 -178 406 -212 q 373 -163 389 -177 q 358 -124 356 -149 q 376 -86 360 -102 q 417 -71 392 -71 q 466 -92 445 -71 q 485 -152 486 -114 q 456 -231 483 -189 q 373 -301 429 -274 z "},"Ĺ":{"ha":631,"x_min":146,"x_max":624,"o":"m 226 858 l 226 70 l 624 70 l 624 0 l 146 0 l 146 858 l 226 858 m 281 978 l 240 1011 l 460 1248 l 519 1199 l 281 978 z "},"Ľ":{"ha":631,"x_min":146,"x_max":642,"o":"m 226 858 l 226 70 l 624 70 l 624 0 l 146 0 l 146 858 l 226 858 m 541 631 l 489 658 q 549 698 526 676 q 578 754 572 720 q 536 769 553 755 q 518 808 518 783 q 533 845 518 828 q 574 861 549 861 q 623 838 604 861 q 642 780 642 814 q 618 699 642 740 q 541 631 594 658 z "},"Ļ":{"ha":631,"x_min":146,"x_max":624,"o":"m 226 858 l 226 70 l 624 70 l 624 0 l 146 0 l 146 858 l 226 858 m 283 -301 l 228 -274 q 291 -234 267 -256 q 324 -178 316 -212 q 283 -163 299 -177 q 269 -124 267 -149 q 286 -86 270 -102 q 328 -71 303 -71 q 376 -92 356 -71 q 395 -152 397 -114 q 367 -231 394 -189 q 283 -301 340 -274 z "},"Ł":{"ha":631,"x_min":36,"x_max":624,"o":"m 49 440 l 36 508 l 355 563 l 367 495 l 49 440 m 226 858 l 226 70 l 624 70 l 624 0 l 146 0 l 146 858 l 226 858 z "},"Ń":{"ha":927,"x_min":145,"x_max":781,"o":"m 145 858 l 249 858 l 709 102 l 701 102 l 701 858 l 781 858 l 781 0 l 683 0 l 214 772 l 226 772 l 226 0 l 145 0 l 145 858 m 424 978 l 383 1011 l 603 1248 l 662 1199 l 424 978 z "},"Ň":{"ha":927,"x_min":145,"x_max":781,"o":"m 145 858 l 249 858 l 709 102 l 701 102 l 701 858 l 781 858 l 781 0 l 683 0 l 214 772 l 226 772 l 226 0 l 145 0 l 145 858 m 465 965 l 258 1182 l 308 1221 l 478 1032 l 451 1032 l 623 1221 l 672 1182 l 465 965 z "},"Ņ":{"ha":927,"x_min":145,"x_max":781,"o":"m 145 858 l 249 858 l 709 102 l 701 102 l 701 858 l 781 858 l 781 0 l 683 0 l 214 772 l 226 772 l 226 0 l 145 0 l 145 858 m 431 -301 l 376 -274 q 439 -234 414 -256 q 472 -178 463 -212 q 430 -163 447 -177 q 416 -124 414 -149 q 434 -86 417 -102 q 475 -71 450 -71 q 523 -92 503 -71 q 542 -152 544 -114 q 514 -231 541 -189 q 431 -301 487 -274 z "},"Ŋ":{"ha":927,"x_min":145,"x_max":781,"o":"m 581 -338 q 491 -325 535 -338 q 398 -283 446 -312 l 406 -212 q 488 -252 449 -237 q 572 -268 528 -268 q 669 -226 633 -268 q 705 -101 705 -185 l 703 144 l 781 144 l 781 -101 q 724 -283 781 -227 q 581 -338 667 -338 m 145 858 l 249 858 l 709 102 l 701 102 l 701 858 l 781 858 l 781 0 l 763 -127 l 214 772 l 226 772 l 226 0 l 145 0 l 145 858 z "},"Ő":{"ha":871,"x_min":74,"x_max":798,"o":"m 436 -15 q 251 33 333 -15 q 122 180 169 82 q 74 426 74 278 q 122 675 74 576 q 251 823 169 774 q 436 872 333 872 q 620 823 538 872 q 750 675 702 774 q 798 426 798 576 q 750 179 798 277 q 620 33 702 81 q 436 -15 538 -15 m 436 60 q 640 153 565 60 q 714 428 714 246 q 640 703 714 607 q 436 799 565 799 q 233 703 308 799 q 158 426 158 606 q 233 153 158 245 q 436 60 308 60 m 530 953 l 482 959 l 499 1181 l 568 1172 l 530 953 m 378 956 l 330 961 l 342 1184 l 413 1176 l 378 956 z "},"Ō":{"ha":871,"x_min":74,"x_max":798,"o":"m 436 -15 q 251 33 333 -15 q 122 180 169 82 q 74 426 74 278 q 122 675 74 576 q 251 823 169 774 q 436 872 333 872 q 620 823 538 872 q 750 675 702 774 q 798 426 798 576 q 750 179 798 277 q 620 33 702 81 q 436 -15 538 -15 m 436 60 q 640 153 565 60 q 714 428 714 246 q 640 703 714 607 q 436 799 565 799 q 233 703 308 799 q 158 426 158 606 q 233 153 158 245 q 436 60 308 60 m 237 1078 l 647 1078 l 647 1010 l 237 1010 l 237 1078 z "},"Ø":{"ha":871,"x_min":72,"x_max":797,"o":"m 75 0 l 715 860 l 790 860 l 147 0 l 75 0 m 435 -15 q 251 33 333 -15 q 120 180 169 82 q 72 426 72 278 q 120 675 72 576 q 251 823 169 774 q 435 872 333 872 q 619 823 538 872 q 749 675 701 774 q 797 426 797 576 q 749 179 797 277 q 619 33 701 81 q 435 -15 538 -15 m 435 60 q 639 153 565 60 q 713 428 713 246 q 639 703 713 607 q 435 799 565 799 q 231 703 306 799 q 156 426 156 606 q 231 153 156 245 q 435 60 306 60 z "},"Œ":{"ha":1205,"x_min":74,"x_max":1103,"o":"m 430 -15 q 245 34 326 -15 q 119 181 165 83 q 74 428 74 280 q 119 676 74 577 q 247 823 165 774 q 435 872 328 872 q 575 844 514 872 q 680 754 637 817 l 628 727 q 542 781 588 763 q 435 799 496 799 q 228 702 298 799 q 158 426 158 606 q 228 153 158 246 q 435 60 298 60 q 545 81 502 60 q 629 135 588 101 l 680 83 q 576 13 637 41 q 430 -15 515 -15 m 626 0 l 626 858 l 1103 858 l 1103 789 l 689 789 l 706 808 l 706 450 l 689 468 l 1078 468 l 1078 399 l 689 399 l 706 417 l 706 52 l 689 70 l 1103 70 l 1103 0 l 626 0 z "},"Þ":{"ha":750,"x_min":144,"x_max":688,"o":"m 144 0 l 144 858 l 226 858 l 226 694 l 207 712 l 406 712 q 617 640 545 712 q 688 451 688 569 q 617 265 688 335 q 406 194 545 194 l 207 194 l 226 213 l 226 0 l 144 0 m 226 247 l 207 265 l 406 265 q 555 314 503 265 q 606 451 606 364 q 555 592 606 540 q 406 643 503 643 l 207 643 l 226 662 l 226 247 z "},"Ŕ":{"ha":829,"x_min":146,"x_max":739,"o":"m 146 0 l 146 858 l 435 858 q 650 789 578 858 q 722 608 722 719 q 650 429 722 498 q 435 360 578 360 l 226 360 l 226 0 l 146 0 m 635 0 l 380 383 l 469 383 l 739 0 l 635 0 m 226 419 l 431 419 q 586 471 533 419 q 640 606 640 523 q 587 740 640 690 q 435 789 535 789 l 226 789 l 226 419 m 375 978 l 333 1011 l 553 1248 l 613 1199 l 375 978 z "},"Ř":{"ha":829,"x_min":146,"x_max":739,"o":"m 146 0 l 146 858 l 435 858 q 650 789 578 858 q 722 608 722 719 q 650 429 722 498 q 435 360 578 360 l 226 360 l 226 0 l 146 0 m 635 0 l 380 383 l 469 383 l 739 0 l 635 0 m 226 419 l 431 419 q 586 471 533 419 q 640 606 640 523 q 587 740 640 690 q 435 789 535 789 l 226 789 l 226 419 m 416 965 l 209 1182 l 259 1221 l 430 1032 l 402 1032 l 574 1221 l 623 1182 l 416 965 z "},"Ŗ":{"ha":829,"x_min":146,"x_max":739,"o":"m 146 0 l 146 858 l 435 858 q 650 789 578 858 q 722 608 722 719 q 650 429 722 498 q 435 360 578 360 l 226 360 l 226 0 l 146 0 m 635 0 l 380 383 l 469 383 l 739 0 l 635 0 m 226 419 l 431 419 q 586 471 533 419 q 640 606 640 523 q 587 740 640 690 q 435 789 535 789 l 226 789 l 226 419 m 382 -301 l 327 -274 q 390 -234 365 -256 q 423 -178 415 -212 q 382 -163 398 -177 q 367 -124 365 -149 q 385 -86 369 -102 q 426 -71 401 -71 q 475 -92 454 -71 q 494 -152 495 -114 q 465 -231 492 -189 q 382 -301 438 -274 z "},"Ś":{"ha":817,"x_min":99,"x_max":717,"o":"m 408 -15 q 253 16 324 -15 q 141 106 183 47 q 99 251 99 165 l 176 251 q 208 143 176 185 q 293 80 240 101 q 406 60 345 60 q 526 83 476 60 q 603 144 576 106 q 630 224 630 181 q 593 324 630 285 q 485 383 556 362 l 343 429 q 177 515 233 467 q 122 651 122 563 q 195 810 122 748 q 407 872 269 872 q 602 815 531 872 q 685 665 674 758 l 605 665 q 544 764 594 729 q 407 798 494 798 q 261 755 313 798 q 209 647 209 713 q 242 562 209 593 q 344 508 274 531 l 517 452 q 662 370 607 424 q 717 225 717 317 q 682 107 717 162 q 578 18 647 52 q 408 -15 509 -15 m 369 978 l 328 1011 l 548 1248 l 607 1199 l 369 978 z "},"Š":{"ha":817,"x_min":99,"x_max":717,"o":"m 408 -15 q 253 16 324 -15 q 141 106 183 47 q 99 251 99 165 l 176 251 q 208 143 176 185 q 293 80 240 101 q 406 60 345 60 q 526 83 476 60 q 603 144 576 106 q 630 224 630 181 q 593 324 630 285 q 485 383 556 362 l 343 429 q 177 515 233 467 q 122 651 122 563 q 195 810 122 748 q 407 872 269 872 q 602 815 531 872 q 685 665 674 758 l 605 665 q 544 764 594 729 q 407 798 494 798 q 261 755 313 798 q 209 647 209 713 q 242 562 209 593 q 344 508 274 531 l 517 452 q 662 370 607 424 q 717 225 717 317 q 682 107 717 162 q 578 18 647 52 q 408 -15 509 -15 m 410 965 l 203 1182 l 253 1221 l 424 1032 l 396 1032 l 568 1221 l 617 1182 l 410 965 z "},"Ş":{"ha":817,"x_min":99,"x_max":717,"o":"m 408 -15 q 253 16 324 -15 q 141 106 183 47 q 99 251 99 165 l 176 251 q 208 143 176 185 q 293 80 240 101 q 406 60 345 60 q 526 83 476 60 q 603 144 576 106 q 630 224 630 181 q 593 324 630 285 q 485 383 556 362 l 343 429 q 177 515 233 467 q 122 651 122 563 q 195 810 122 748 q 407 872 269 872 q 602 815 531 872 q 685 665 674 758 l 605 665 q 544 764 594 729 q 407 798 494 798 q 261 755 313 798 q 209 647 209 713 q 242 562 209 593 q 344 508 274 531 l 517 452 q 662 370 607 424 q 717 225 717 317 q 682 107 717 162 q 578 18 647 52 q 408 -15 509 -15 m 276 -243 l 293 -203 q 390 -237 347 -233 q 459 -227 433 -242 q 487 -186 485 -212 q 466 -140 489 -160 q 409 -108 443 -121 q 344 -87 376 -94 l 391 31 l 448 28 l 403 -85 l 376 -47 q 479 -82 436 -62 q 543 -128 522 -102 q 563 -189 565 -154 q 529 -252 560 -228 q 453 -282 499 -275 q 361 -279 408 -289 q 276 -243 313 -269 z "},"Ș":{"ha":817,"x_min":99,"x_max":717,"o":"m 408 -15 q 253 16 324 -15 q 141 106 183 47 q 99 251 99 165 l 176 251 q 208 143 176 185 q 293 80 240 101 q 406 60 345 60 q 526 83 476 60 q 603 144 576 106 q 630 224 630 181 q 593 324 630 285 q 485 383 556 362 l 343 429 q 177 515 233 467 q 122 651 122 563 q 195 810 122 748 q 407 872 269 872 q 602 815 531 872 q 685 665 674 758 l 605 665 q 544 764 594 729 q 407 798 494 798 q 261 755 313 798 q 209 647 209 713 q 242 562 209 593 q 344 508 274 531 l 517 452 q 662 370 607 424 q 717 225 717 317 q 682 107 717 162 q 578 18 647 52 q 408 -15 509 -15 m 377 -301 l 322 -274 q 385 -234 360 -256 q 418 -178 410 -212 q 377 -163 393 -177 q 363 -124 360 -149 q 380 -86 364 -102 q 422 -71 397 -71 q 470 -92 449 -71 q 489 -152 490 -114 q 460 -231 488 -189 q 377 -301 433 -274 z "},"ẞ":{"ha":844,"x_min":144,"x_max":794,"o":"m 510 472 q 657 446 592 472 q 758 367 721 420 q 794 234 794 315 q 760 99 794 155 q 666 14 725 43 q 537 -15 608 -15 q 467 -10 498 -15 q 399 8 437 -5 l 399 83 q 466 63 435 71 q 535 56 497 56 q 626 77 586 56 q 688 137 665 99 q 710 224 710 175 q 690 316 710 275 q 623 382 670 358 q 492 407 575 407 l 417 407 l 417 462 l 613 789 l 225 789 l 225 0 l 144 0 l 144 858 l 708 858 l 708 799 l 510 472 z "},"Ŧ":{"ha":674,"x_min":8,"x_max":666,"o":"m 112 390 l 112 456 l 561 456 l 561 390 l 112 390 m 8 789 l 8 858 l 666 858 l 666 789 l 358 789 l 376 808 l 376 0 l 296 0 l 296 808 l 314 789 l 8 789 z "},"Ť":{"ha":674,"x_min":8,"x_max":666,"o":"m 8 789 l 8 858 l 666 858 l 666 789 l 358 789 l 376 808 l 376 0 l 296 0 l 296 808 l 314 789 l 8 789 m 338 965 l 131 1182 l 181 1221 l 352 1032 l 324 1032 l 497 1221 l 545 1182 l 338 965 z "},"Ţ":{"ha":674,"x_min":8,"x_max":666,"o":"m 8 789 l 8 858 l 666 858 l 666 789 l 358 789 l 376 808 l 376 0 l 296 0 l 296 808 l 314 789 l 8 789 m 188 -258 l 204 -218 q 301 -252 258 -248 q 370 -241 344 -256 q 398 -201 397 -226 q 377 -155 400 -174 q 320 -122 354 -135 q 255 -102 287 -109 l 302 17 l 359 13 l 314 -100 l 287 -62 q 390 -97 347 -77 q 455 -143 433 -117 q 474 -203 476 -169 q 440 -266 471 -243 q 365 -297 410 -290 q 272 -294 319 -303 q 188 -258 224 -284 z "},"Ț":{"ha":674,"x_min":8,"x_max":666,"o":"m 8 789 l 8 858 l 666 858 l 666 789 l 358 789 l 376 808 l 376 0 l 296 0 l 296 808 l 314 789 l 8 789 m 288 -316 l 233 -288 q 295 -248 271 -270 q 328 -192 320 -226 q 287 -177 303 -192 q 273 -139 271 -163 q 291 -101 274 -117 q 332 -85 307 -85 q 380 -107 360 -85 q 399 -167 401 -128 q 371 -246 398 -203 q 288 -316 344 -288 z "},"Ŭ":{"ha":881,"x_min":124,"x_max":752,"o":"m 124 858 l 204 858 l 204 303 q 269 117 204 174 q 439 60 333 60 q 607 117 543 60 q 672 303 672 174 l 672 858 l 752 858 l 752 303 q 713 125 752 195 q 603 19 674 54 q 439 -15 533 -15 q 274 19 345 -15 q 163 125 203 54 q 124 303 124 195 l 124 858 m 441 997 q 310 1042 360 997 q 261 1153 261 1088 l 332 1153 q 362 1081 332 1107 q 441 1054 392 1054 q 520 1081 490 1054 q 550 1153 550 1107 l 621 1153 q 572 1042 621 1088 q 441 997 522 997 z "},"Ű":{"ha":881,"x_min":124,"x_max":752,"o":"m 124 858 l 204 858 l 204 303 q 269 117 204 174 q 439 60 333 60 q 607 117 543 60 q 672 303 672 174 l 672 858 l 752 858 l 752 303 q 713 125 752 195 q 603 19 674 54 q 439 -15 533 -15 q 274 19 345 -15 q 163 125 203 54 q 124 303 124 195 l 124 858 m 529 953 l 481 959 l 498 1181 l 567 1172 l 529 953 m 378 956 l 329 961 l 342 1184 l 412 1176 l 378 956 z "},"Ū":{"ha":881,"x_min":124,"x_max":752,"o":"m 124 858 l 204 858 l 204 303 q 269 117 204 174 q 439 60 333 60 q 607 117 543 60 q 672 303 672 174 l 672 858 l 752 858 l 752 303 q 713 125 752 195 q 603 19 674 54 q 439 -15 533 -15 q 274 19 345 -15 q 163 125 203 54 q 124 303 124 195 l 124 858 m 235 1078 l 646 1078 l 646 1010 l 235 1010 l 235 1078 z "},"Ų":{"ha":881,"x_min":124,"x_max":752,"o":"m 124 858 l 204 858 l 204 303 q 269 117 204 174 q 439 60 333 60 q 607 117 543 60 q 672 303 672 174 l 672 858 l 752 858 l 752 303 q 713 125 752 195 q 603 19 674 54 q 439 -15 533 -15 q 274 19 345 -15 q 163 125 203 54 q 124 303 124 195 l 124 858 m 640 -233 q 549 -271 597 -258 q 458 -284 501 -284 q 355 -254 393 -284 q 317 -172 317 -224 q 366 -61 317 -115 q 512 27 415 -8 l 554 0 q 427 -74 474 -35 q 380 -156 380 -112 q 406 -205 380 -189 q 472 -222 433 -222 q 540 -210 504 -222 q 619 -176 576 -199 l 640 -233 z "},"Ů":{"ha":881,"x_min":124,"x_max":752,"o":"m 124 858 l 204 858 l 204 303 q 269 117 204 174 q 439 60 333 60 q 607 117 543 60 q 672 303 672 174 l 672 858 l 752 858 l 752 303 q 713 125 752 195 q 603 19 674 54 q 439 -15 533 -15 q 274 19 345 -15 q 163 125 203 54 q 124 303 124 195 l 124 858 m 440 938 q 377 955 406 938 q 332 1001 349 972 q 315 1065 315 1030 q 332 1128 315 1099 q 377 1174 349 1156 q 441 1191 406 1191 q 504 1174 475 1191 q 550 1128 533 1156 q 567 1065 567 1099 q 550 1001 567 1030 q 504 955 533 972 q 440 938 475 938 m 440 1000 q 486 1019 468 1000 q 505 1065 505 1038 q 486 1110 505 1092 q 440 1129 468 1129 q 395 1110 414 1129 q 376 1065 376 1092 q 395 1019 376 1038 q 440 1000 414 1000 z "},"Ẃ":{"ha":1205,"x_min":22,"x_max":1181,"o":"m 22 858 l 114 858 l 344 72 l 317 72 l 558 752 l 613 752 l 844 74 l 817 74 l 1092 858 l 1181 858 l 874 0 l 789 0 l 575 622 l 599 622 l 374 0 l 290 0 l 22 858 m 557 992 l 515 1025 l 735 1262 l 794 1213 l 557 992 z "},"Ŵ":{"ha":1205,"x_min":22,"x_max":1181,"o":"m 22 858 l 114 858 l 344 72 l 317 72 l 558 752 l 613 752 l 844 74 l 817 74 l 1092 858 l 1181 858 l 874 0 l 789 0 l 575 622 l 599 622 l 374 0 l 290 0 l 22 858 m 439 958 l 389 997 l 596 1215 l 803 997 l 754 958 l 582 1142 l 610 1142 l 439 958 z "},"Ẅ":{"ha":1205,"x_min":22,"x_max":1181,"o":"m 22 858 l 114 858 l 344 72 l 317 72 l 558 752 l 613 752 l 844 74 l 817 74 l 1092 858 l 1181 858 l 874 0 l 789 0 l 575 622 l 599 622 l 374 0 l 290 0 l 22 858 m 703 1003 q 661 1020 678 1003 q 644 1060 644 1036 q 661 1102 644 1084 q 703 1119 678 1119 q 747 1102 729 1119 q 765 1060 765 1084 q 747 1020 765 1036 q 703 1003 729 1003 m 489 1003 q 446 1020 463 1003 q 429 1059 429 1036 q 446 1101 429 1084 q 489 1118 463 1118 q 532 1101 515 1118 q 550 1059 550 1084 q 532 1020 550 1036 q 489 1003 515 1003 z "},"Ẁ":{"ha":1205,"x_min":22,"x_max":1181,"o":"m 22 858 l 114 858 l 344 72 l 317 72 l 558 752 l 613 752 l 844 74 l 817 74 l 1092 858 l 1181 858 l 874 0 l 789 0 l 575 622 l 599 622 l 374 0 l 290 0 l 22 858 m 699 997 l 461 1219 l 520 1267 l 740 1031 l 699 997 z "},"Ý":{"ha":735,"x_min":14,"x_max":721,"o":"m 14 858 l 113 858 l 380 416 l 354 416 l 624 858 l 721 858 l 408 351 l 408 0 l 326 0 l 326 351 l 14 858 m 328 978 l 287 1011 l 507 1248 l 566 1199 l 328 978 z "},"Ŷ":{"ha":735,"x_min":14,"x_max":721,"o":"m 14 858 l 113 858 l 380 416 l 354 416 l 624 858 l 721 858 l 408 351 l 408 0 l 326 0 l 326 351 l 14 858 m 210 944 l 160 983 l 367 1201 l 574 983 l 526 944 l 353 1128 l 381 1128 l 210 944 z "},"Ÿ":{"ha":735,"x_min":14,"x_max":721,"o":"m 14 858 l 113 858 l 380 416 l 354 416 l 624 858 l 721 858 l 408 351 l 408 0 l 326 0 l 326 351 l 14 858 m 474 990 q 432 1006 449 990 q 415 1046 415 1022 q 432 1088 415 1070 q 474 1106 449 1106 q 518 1088 500 1106 q 535 1046 535 1070 q 518 1006 535 1022 q 474 990 500 990 m 260 990 q 217 1006 234 990 q 200 1045 200 1022 q 217 1087 200 1070 q 260 1104 234 1104 q 303 1087 285 1104 q 321 1045 321 1070 q 303 1006 321 1022 q 260 990 285 990 z "},"Ỳ":{"ha":735,"x_min":14,"x_max":721,"o":"m 14 858 l 113 858 l 380 416 l 354 416 l 624 858 l 721 858 l 408 351 l 408 0 l 326 0 l 326 351 l 14 858 m 470 983 l 233 1205 l 292 1253 l 512 1017 l 470 983 z "},"Ź":{"ha":796,"x_min":101,"x_max":721,"o":"m 101 0 l 101 75 l 642 810 l 642 779 l 101 785 l 101 858 l 721 858 l 721 782 l 190 62 l 179 78 l 721 73 l 721 0 l 101 0 m 384 978 l 342 1011 l 563 1248 l 622 1199 l 384 978 z "},"Ž":{"ha":796,"x_min":101,"x_max":721,"o":"m 101 0 l 101 75 l 642 810 l 642 779 l 101 785 l 101 858 l 721 858 l 721 782 l 190 62 l 179 78 l 721 73 l 721 0 l 101 0 m 425 965 l 218 1182 l 268 1221 l 439 1032 l 411 1032 l 583 1221 l 632 1182 l 425 965 z "},"Ż":{"ha":796,"x_min":101,"x_max":721,"o":"m 101 0 l 101 75 l 642 810 l 642 779 l 101 785 l 101 858 l 721 858 l 721 782 l 190 62 l 179 78 l 721 73 l 721 0 l 101 0 m 423 993 q 378 1011 397 993 q 360 1053 360 1028 q 378 1098 360 1079 q 423 1117 397 1117 q 469 1098 450 1117 q 489 1053 489 1079 q 469 1011 489 1028 q 423 993 450 993 z "},"ă":{"ha":740,"x_min":87,"x_max":618,"o":"m 548 0 l 538 137 l 538 428 q 494 569 538 528 q 372 611 451 611 q 289 598 327 611 q 228 557 251 585 q 205 483 205 529 l 113 483 q 148 595 113 553 q 241 656 183 638 q 372 674 300 674 q 498 650 442 674 q 586 570 553 625 q 618 427 618 516 l 618 0 l 548 0 m 319 -15 q 188 14 240 -15 q 112 88 137 42 q 87 181 87 133 q 120 292 87 250 q 211 352 154 333 q 335 371 267 371 q 440 359 385 371 q 544 328 494 348 l 544 274 q 445 303 501 292 q 343 315 389 315 q 222 284 272 315 q 172 181 172 253 q 209 88 172 126 q 329 49 247 49 q 433 76 385 49 q 509 144 480 103 q 538 225 538 184 l 558 225 q 528 107 558 162 q 445 18 499 52 q 319 -15 391 -15 m 370 797 q 240 843 289 797 q 190 954 190 889 l 261 954 q 291 881 261 908 q 370 855 322 855 q 449 881 419 855 q 479 954 479 908 l 550 954 q 501 843 550 889 q 370 797 451 797 z "},"ā":{"ha":740,"x_min":87,"x_max":618,"o":"m 548 0 l 538 137 l 538 428 q 494 569 538 528 q 372 611 451 611 q 289 598 327 611 q 228 557 251 585 q 205 483 205 529 l 113 483 q 148 595 113 553 q 241 656 183 638 q 372 674 300 674 q 498 650 442 674 q 586 570 553 625 q 618 427 618 516 l 618 0 l 548 0 m 319 -15 q 188 14 240 -15 q 112 88 137 42 q 87 181 87 133 q 120 292 87 250 q 211 352 154 333 q 335 371 267 371 q 440 359 385 371 q 544 328 494 348 l 544 274 q 445 303 501 292 q 343 315 389 315 q 222 284 272 315 q 172 181 172 253 q 209 88 172 126 q 329 49 247 49 q 433 76 385 49 q 509 144 480 103 q 538 225 538 184 l 558 225 q 528 107 558 162 q 445 18 499 52 q 319 -15 391 -15 m 165 879 l 576 879 l 576 811 l 165 811 l 165 879 z "},"ą":{"ha":740,"x_min":87,"x_max":703,"o":"m 548 0 l 538 137 l 538 428 q 494 569 538 528 q 372 611 451 611 q 289 598 327 611 q 228 557 251 585 q 205 483 205 529 l 113 483 q 148 595 113 553 q 241 656 183 638 q 372 674 300 674 q 498 650 442 674 q 586 570 553 625 q 618 427 618 516 l 618 0 l 548 0 m 319 -15 q 188 14 240 -15 q 112 88 137 42 q 87 181 87 133 q 120 292 87 250 q 211 352 154 333 q 335 371 267 371 q 440 359 385 371 q 544 328 494 348 l 544 274 q 445 303 501 292 q 343 315 389 315 q 222 284 272 315 q 172 181 172 253 q 209 88 172 126 q 329 49 247 49 q 433 76 385 49 q 509 144 480 103 q 538 225 538 184 l 558 225 q 528 107 558 162 q 445 18 499 52 q 319 -15 391 -15 m 703 -233 q 613 -271 661 -258 q 522 -284 565 -284 q 419 -254 457 -284 q 381 -172 381 -224 q 430 -61 381 -115 q 576 27 478 -8 l 618 0 q 491 -74 538 -35 q 444 -156 444 -112 q 470 -205 444 -189 q 535 -222 497 -222 q 604 -210 568 -222 q 683 -176 640 -199 l 703 -233 z "},"å":{"ha":740,"x_min":87,"x_max":618,"o":"m 548 0 l 538 137 l 538 428 q 494 569 538 528 q 372 611 451 611 q 289 598 327 611 q 228 557 251 585 q 205 483 205 529 l 113 483 q 148 595 113 553 q 241 656 183 638 q 372 674 300 674 q 498 650 442 674 q 586 570 553 625 q 618 427 618 516 l 618 0 l 548 0 m 319 -15 q 188 14 240 -15 q 112 88 137 42 q 87 181 87 133 q 120 292 87 250 q 211 352 154 333 q 335 371 267 371 q 440 359 385 371 q 544 328 494 348 l 544 274 q 445 303 501 292 q 343 315 389 315 q 222 284 272 315 q 172 181 172 253 q 209 88 172 126 q 329 49 247 49 q 433 76 385 49 q 509 144 480 103 q 538 225 538 184 l 558 225 q 528 107 558 162 q 445 18 499 52 q 319 -15 391 -15 m 370 739 q 307 756 336 739 q 261 802 278 773 q 244 865 244 831 q 261 928 244 900 q 307 974 278 957 q 371 992 336 992 q 434 974 405 992 q 480 928 463 957 q 497 865 497 900 q 480 802 497 831 q 434 756 463 773 q 370 739 405 739 m 370 801 q 416 819 398 801 q 435 865 435 838 q 416 911 435 892 q 370 930 398 930 q 325 911 344 930 q 306 865 306 892 q 325 819 306 838 q 370 801 344 801 z "},"æ":{"ha":1166,"x_min":87,"x_max":1094,"o":"m 546 210 l 535 210 l 535 428 q 491 569 535 527 q 369 611 448 611 q 288 598 325 611 q 228 557 251 585 q 205 483 205 529 l 113 483 q 148 595 113 553 q 239 656 183 638 q 357 674 294 674 q 488 648 433 674 q 574 566 544 622 q 605 421 605 510 l 605 255 l 546 210 m 313 -15 q 192 11 242 -15 q 114 84 141 38 q 87 185 87 129 q 120 292 87 251 q 209 352 153 333 q 329 371 265 371 q 439 359 384 371 q 542 328 494 347 l 542 274 q 442 303 499 292 q 340 315 385 315 q 222 284 272 315 q 172 183 172 253 q 209 88 172 126 q 319 49 247 49 q 430 76 381 49 q 507 143 478 103 q 535 225 535 184 l 588 225 q 553 109 588 164 q 456 19 518 53 q 313 -15 394 -15 m 835 -15 q 680 29 747 -15 q 576 152 613 74 q 539 333 539 231 q 576 511 539 434 q 678 631 613 588 q 830 674 743 674 q 954 645 903 674 q 1036 565 1005 615 q 1081 450 1067 514 q 1090 318 1094 386 l 604 318 l 604 374 l 1042 374 l 1010 353 q 1005 443 1012 398 q 977 525 997 488 q 922 585 958 563 q 831 608 885 608 q 714 572 760 608 q 643 477 667 535 q 619 353 619 419 l 619 319 q 642 183 619 244 q 713 88 665 123 q 832 52 760 52 q 948 87 901 52 q 1005 193 996 122 l 1090 193 q 1045 82 1081 128 q 956 10 1010 35 q 835 -15 901 -15 z "},"ć":{"ha":707,"x_min":74,"x_max":626,"o":"m 368 -15 q 224 27 291 -15 q 115 147 156 69 q 74 331 74 225 q 115 516 74 439 q 224 633 156 592 q 368 674 291 674 q 461 659 419 674 q 536 618 503 644 q 591 556 568 591 q 626 481 614 521 l 542 468 q 476 568 522 532 q 367 604 431 604 q 265 573 313 604 q 188 481 217 542 q 158 331 158 420 q 184 189 158 251 q 258 91 211 126 q 367 56 306 56 q 497 98 451 56 q 542 215 542 140 l 626 215 q 594 95 626 147 q 503 14 561 43 q 368 -15 444 -15 m 328 779 l 286 813 l 506 1049 l 565 1001 l 328 779 z "},"č":{"ha":707,"x_min":74,"x_max":626,"o":"m 368 -15 q 224 27 291 -15 q 115 147 156 69 q 74 331 74 225 q 115 516 74 439 q 224 633 156 592 q 368 674 291 674 q 461 659 419 674 q 536 618 503 644 q 591 556 568 591 q 626 481 614 521 l 542 468 q 476 568 522 532 q 367 604 431 604 q 265 573 313 604 q 188 481 217 542 q 158 331 158 420 q 184 189 158 251 q 258 91 211 126 q 367 56 306 56 q 497 98 451 56 q 542 215 542 140 l 626 215 q 594 95 626 147 q 503 14 561 43 q 368 -15 444 -15 m 368 765 l 161 983 l 211 1022 l 382 833 l 354 833 l 526 1022 l 575 983 l 368 765 z "},"ç":{"ha":707,"x_min":74,"x_max":626,"o":"m 368 -15 q 224 27 291 -15 q 115 147 156 69 q 74 331 74 225 q 115 516 74 439 q 224 633 156 592 q 368 674 291 674 q 461 659 419 674 q 536 618 503 644 q 591 556 568 591 q 626 481 614 521 l 542 468 q 476 568 522 532 q 367 604 431 604 q 265 573 313 604 q 188 481 217 542 q 158 331 158 420 q 184 189 158 251 q 258 91 211 126 q 367 56 306 56 q 497 98 451 56 q 542 215 542 140 l 626 215 q 594 95 626 147 q 503 14 561 43 q 368 -15 444 -15 m 234 -242 l 251 -203 q 348 -237 304 -233 q 417 -226 391 -241 q 444 -185 443 -211 q 424 -140 447 -159 q 367 -107 401 -120 q 301 -87 333 -94 l 349 32 l 406 28 l 360 -85 l 333 -47 q 436 -82 394 -62 q 501 -127 479 -101 q 520 -188 523 -153 q 487 -251 517 -228 q 411 -281 456 -274 q 318 -278 366 -288 q 234 -242 271 -269 z "},"ċ":{"ha":707,"x_min":74,"x_max":626,"o":"m 368 -15 q 224 27 291 -15 q 115 147 156 69 q 74 331 74 225 q 115 516 74 439 q 224 633 156 592 q 368 674 291 674 q 461 659 419 674 q 536 618 503 644 q 591 556 568 591 q 626 481 614 521 l 542 468 q 476 568 522 532 q 367 604 431 604 q 265 573 313 604 q 188 481 217 542 q 158 331 158 420 q 184 189 158 251 q 258 91 211 126 q 367 56 306 56 q 497 98 451 56 q 542 215 542 140 l 626 215 q 594 95 626 147 q 503 14 561 43 q 368 -15 444 -15 m 367 794 q 322 811 340 794 q 303 854 303 829 q 322 899 303 880 q 367 918 340 918 q 413 899 394 918 q 433 854 433 880 q 413 811 433 829 q 367 794 394 794 z "},"ď":{"ha":808,"x_min":88,"x_max":867,"o":"m 378 -15 q 233 27 299 -15 q 127 148 167 70 q 88 332 88 226 q 127 515 88 438 q 231 633 166 592 q 373 674 296 674 q 500 639 444 674 q 587 539 556 604 q 618 383 618 474 l 581 383 q 553 505 581 456 q 480 579 525 554 q 383 604 435 604 q 279 572 327 604 q 201 478 231 539 q 172 332 172 418 q 201 183 172 245 q 278 89 230 122 q 384 56 327 56 q 478 81 433 56 q 552 155 523 106 q 581 276 581 204 l 618 276 q 586 119 618 184 q 500 19 555 53 q 378 -15 446 -15 m 593 0 l 581 150 l 581 944 l 661 944 l 661 0 l 593 0 m 766 721 l 714 749 q 774 789 751 767 q 803 844 797 810 q 761 859 778 845 q 743 898 743 874 q 758 935 743 919 q 799 951 774 951 q 848 928 829 951 q 867 870 867 904 q 843 789 867 830 q 766 721 819 749 z "},"đ":{"ha":808,"x_min":88,"x_max":772,"o":"m 378 -15 q 233 27 299 -15 q 127 148 167 70 q 88 332 88 226 q 127 515 88 438 q 231 633 166 592 q 373 674 296 674 q 500 639 444 674 q 587 539 556 604 q 618 383 618 474 l 581 383 q 553 505 581 456 q 480 579 525 554 q 383 604 435 604 q 279 572 327 604 q 201 478 231 539 q 172 332 172 418 q 201 183 172 245 q 278 89 230 122 q 384 56 327 56 q 478 81 433 56 q 552 155 523 106 q 581 276 581 204 l 618 276 q 586 119 618 184 q 500 19 555 53 q 378 -15 446 -15 m 593 0 l 581 150 l 581 944 l 661 944 l 661 0 l 593 0 m 390 772 l 390 835 l 772 835 l 772 772 l 390 772 z "},"ð":{"ha":775,"x_min":88,"x_max":701,"o":"m 379 -15 q 234 27 300 -15 q 127 148 167 70 q 88 333 88 226 q 127 515 88 438 q 231 633 166 591 q 372 674 296 674 q 504 636 445 674 q 598 528 563 599 q 633 361 633 458 l 597 361 q 564 499 597 445 q 484 578 532 552 q 385 604 435 604 q 278 572 327 604 q 201 478 230 539 q 172 331 172 417 q 200 184 172 245 q 278 89 229 122 q 388 56 326 56 q 497 94 453 56 q 566 198 542 131 q 596 349 590 264 q 583 575 603 467 q 522 775 563 683 q 424 939 481 867 q 300 1056 367 1010 l 356 1110 q 478 992 420 1065 q 580 827 535 919 q 651 630 625 735 q 677 417 677 526 q 656 241 677 320 q 594 104 634 161 q 500 16 555 47 q 379 -15 446 -15 m 316 778 l 290 833 l 675 1017 l 701 961 l 316 778 z "},"ě":{"ha":701,"x_min":74,"x_max":629,"o":"m 366 -15 q 214 29 280 -15 q 111 150 149 73 q 74 327 74 228 q 111 513 74 435 q 214 633 148 591 q 366 674 279 674 q 490 645 439 674 q 572 565 541 615 q 616 450 603 514 q 626 318 629 386 l 140 318 l 140 374 l 577 374 l 545 353 q 540 443 547 398 q 513 525 533 488 q 458 585 493 563 q 367 608 422 608 q 249 572 296 608 q 178 477 201 535 q 155 353 155 419 l 155 319 q 178 183 155 244 q 248 88 201 123 q 366 52 295 52 q 485 88 439 52 q 540 193 531 124 l 626 193 q 580 81 616 127 q 490 9 544 34 q 366 -15 435 -15 m 352 765 l 145 983 l 195 1022 l 366 833 l 338 833 l 510 1022 l 559 983 l 352 765 z "},"ė":{"ha":701,"x_min":74,"x_max":629,"o":"m 366 -15 q 214 29 280 -15 q 111 150 149 73 q 74 327 74 228 q 111 513 74 435 q 214 633 148 591 q 366 674 279 674 q 490 645 439 674 q 572 565 541 615 q 616 450 603 514 q 626 318 629 386 l 140 318 l 140 374 l 577 374 l 545 353 q 540 443 547 398 q 513 525 533 488 q 458 585 493 563 q 367 608 422 608 q 249 572 296 608 q 178 477 201 535 q 155 353 155 419 l 155 319 q 178 183 155 244 q 248 88 201 123 q 366 52 295 52 q 485 88 439 52 q 540 193 531 124 l 626 193 q 580 81 616 127 q 490 9 544 34 q 366 -15 435 -15 m 351 794 q 306 811 324 794 q 288 854 288 829 q 306 899 288 880 q 351 918 324 918 q 397 899 378 918 q 417 854 417 880 q 397 811 417 829 q 351 794 378 794 z "},"ē":{"ha":701,"x_min":74,"x_max":629,"o":"m 366 -15 q 214 29 280 -15 q 111 150 149 73 q 74 327 74 228 q 111 513 74 435 q 214 633 148 591 q 366 674 279 674 q 490 645 439 674 q 572 565 541 615 q 616 450 603 514 q 626 318 629 386 l 140 318 l 140 374 l 577 374 l 545 353 q 540 443 547 398 q 513 525 533 488 q 458 585 493 563 q 367 608 422 608 q 249 572 296 608 q 178 477 201 535 q 155 353 155 419 l 155 319 q 178 183 155 244 q 248 88 201 123 q 366 52 295 52 q 485 88 439 52 q 540 193 531 124 l 626 193 q 580 81 616 127 q 490 9 544 34 q 366 -15 435 -15 m 147 879 l 557 879 l 557 811 l 147 811 l 147 879 z "},"ę":{"ha":701,"x_min":74,"x_max":629,"o":"m 607 -233 q 517 -271 565 -258 q 426 -284 469 -284 q 323 -252 360 -284 q 287 -166 287 -220 q 312 -84 287 -123 q 383 -10 338 -44 q 490 51 428 24 l 528 33 q 439 -28 479 1 q 374 -89 398 -58 q 349 -153 349 -119 q 375 -205 349 -188 q 438 -222 400 -222 q 508 -210 472 -222 q 586 -176 544 -199 l 607 -233 m 366 -15 q 214 29 280 -15 q 111 150 149 73 q 74 327 74 228 q 111 513 74 435 q 214 633 148 591 q 366 674 279 674 q 490 645 439 674 q 572 565 541 615 q 616 450 603 514 q 626 318 629 386 l 140 318 l 140 374 l 577 374 l 545 353 q 540 443 547 398 q 513 525 533 488 q 458 585 493 563 q 367 608 422 608 q 249 572 296 608 q 178 477 201 535 q 155 353 155 419 l 155 319 q 178 183 155 244 q 248 88 201 123 q 366 52 295 52 q 485 88 439 52 q 540 193 531 124 l 626 193 q 580 81 616 127 q 490 9 544 34 q 366 -15 435 -15 z "},"ğ":{"ha":772,"x_min":50,"x_max":753,"o":"m 368 -338 q 201 -311 273 -338 q 90 -237 130 -283 q 50 -133 50 -190 q 109 -12 50 -53 q 262 29 167 29 l 292 -5 q 171 -39 214 -5 q 128 -131 128 -73 q 188 -231 128 -189 q 368 -272 248 -272 q 527 -247 458 -272 q 634 -180 595 -222 q 672 -91 672 -139 q 646 -31 672 -56 q 567 -5 620 -5 l 292 -5 q 180 15 225 -5 q 111 66 135 34 q 88 134 88 98 q 111 204 88 176 q 172 247 135 232 q 249 261 208 261 l 259 228 q 215 218 238 228 q 177 188 193 208 q 162 138 162 168 q 190 80 162 103 q 292 56 217 56 l 567 56 q 704 17 654 56 q 753 -88 753 -23 q 708 -207 753 -149 q 576 -301 662 -265 q 368 -338 490 -338 m 393 188 q 259 218 318 188 q 167 305 201 249 q 133 431 133 360 q 167 558 133 503 q 259 644 201 613 q 393 674 318 674 q 524 644 466 674 q 616 558 582 613 q 650 431 650 503 q 616 305 650 360 q 524 218 582 249 q 393 188 466 188 m 392 247 q 523 300 475 247 q 570 431 570 352 q 523 562 570 511 q 393 613 475 613 q 262 562 310 613 q 214 431 214 511 q 262 300 214 352 q 392 247 310 247 m 601 570 l 561 580 q 582 681 561 638 q 642 749 602 724 q 741 773 682 773 l 733 691 q 635 661 669 691 q 601 570 601 632 m 386 797 q 256 843 305 797 q 206 954 206 889 l 277 954 q 307 881 277 908 q 386 855 338 855 q 465 881 435 855 q 495 954 495 908 l 566 954 q 517 843 566 889 q 386 797 467 797 z "},"ģ":{"ha":772,"x_min":50,"x_max":753,"o":"m 368 -338 q 201 -311 273 -338 q 90 -237 130 -283 q 50 -133 50 -190 q 109 -12 50 -53 q 262 29 167 29 l 292 -5 q 171 -39 214 -5 q 128 -131 128 -73 q 188 -231 128 -189 q 368 -272 248 -272 q 527 -247 458 -272 q 634 -180 595 -222 q 672 -91 672 -139 q 646 -31 672 -56 q 567 -5 620 -5 l 292 -5 q 180 15 225 -5 q 111 66 135 34 q 88 134 88 98 q 111 204 88 176 q 172 247 135 232 q 249 261 208 261 l 259 228 q 215 218 238 228 q 177 188 193 208 q 162 138 162 168 q 190 80 162 103 q 292 56 217 56 l 567 56 q 704 17 654 56 q 753 -88 753 -23 q 708 -207 753 -149 q 576 -301 662 -265 q 368 -338 490 -338 m 393 188 q 259 218 318 188 q 167 305 201 249 q 133 431 133 360 q 167 558 133 503 q 259 644 201 613 q 393 674 318 674 q 524 644 466 674 q 616 558 582 613 q 650 431 650 503 q 616 305 650 360 q 524 218 582 249 q 393 188 466 188 m 392 247 q 523 300 475 247 q 570 431 570 352 q 523 562 570 511 q 393 613 475 613 q 262 562 310 613 q 214 431 214 511 q 262 300 214 352 q 392 247 310 247 m 601 570 l 561 580 q 582 681 561 638 q 642 749 602 724 q 741 773 682 773 l 733 691 q 635 661 669 691 q 601 570 601 632 m 442 952 l 497 925 q 434 885 459 907 q 401 828 410 863 q 443 814 426 828 q 457 776 459 800 q 439 738 456 753 q 399 722 423 722 q 350 744 370 722 q 331 803 330 766 q 360 882 333 840 q 442 952 387 925 z "},"ġ":{"ha":772,"x_min":50,"x_max":753,"o":"m 368 -338 q 201 -311 273 -338 q 90 -237 130 -283 q 50 -133 50 -190 q 109 -12 50 -53 q 262 29 167 29 l 292 -5 q 171 -39 214 -5 q 128 -131 128 -73 q 188 -231 128 -189 q 368 -272 248 -272 q 527 -247 458 -272 q 634 -180 595 -222 q 672 -91 672 -139 q 646 -31 672 -56 q 567 -5 620 -5 l 292 -5 q 180 15 225 -5 q 111 66 135 34 q 88 134 88 98 q 111 204 88 176 q 172 247 135 232 q 249 261 208 261 l 259 228 q 215 218 238 228 q 177 188 193 208 q 162 138 162 168 q 190 80 162 103 q 292 56 217 56 l 567 56 q 704 17 654 56 q 753 -88 753 -23 q 708 -207 753 -149 q 576 -301 662 -265 q 368 -338 490 -338 m 393 188 q 259 218 318 188 q 167 305 201 249 q 133 431 133 360 q 167 558 133 503 q 259 644 201 613 q 393 674 318 674 q 524 644 466 674 q 616 558 582 613 q 650 431 650 503 q 616 305 650 360 q 524 218 582 249 q 393 188 466 188 m 392 247 q 523 300 475 247 q 570 431 570 352 q 523 562 570 511 q 393 613 475 613 q 262 562 310 613 q 214 431 214 511 q 262 300 214 352 q 392 247 310 247 m 601 570 l 561 580 q 582 681 561 638 q 642 749 602 724 q 741 773 682 773 l 733 691 q 635 661 669 691 q 601 570 601 632 m 386 794 q 341 811 360 794 q 323 854 323 829 q 341 899 323 880 q 386 918 360 918 q 433 899 413 918 q 452 854 452 880 q 433 811 452 829 q 386 794 413 794 z "},"ħ":{"ha":824,"x_min":35,"x_max":701,"o":"m 623 0 l 623 388 q 573 549 623 493 q 434 604 522 604 q 323 569 369 604 q 251 469 276 533 q 226 320 226 406 l 191 320 q 220 508 191 428 q 308 631 250 588 q 452 674 366 674 q 584 640 528 674 q 671 542 640 606 q 701 388 701 478 l 701 0 l 623 0 m 146 0 l 146 944 l 226 944 l 226 0 l 146 0 m 35 772 l 35 835 l 419 835 l 419 772 l 35 772 z "},"ı":{"ha":393,"x_min":149,"x_max":230,"o":"m 149 0 l 149 660 l 230 660 l 230 0 l 149 0 z "},"ī":{"ha":393,"x_min":53,"x_max":324,"o":"m 149 0 l 149 660 l 230 660 l 230 0 l 149 0 m 53 879 l 324 879 l 324 811 l 53 811 l 53 879 z "},"į":{"ha":393,"x_min":-8,"x_max":315,"o":"m 149 0 l 149 660 l 230 660 l 230 0 l 149 0 m 188 794 q 143 811 162 794 q 125 854 125 829 q 143 899 125 880 q 188 918 162 918 q 235 899 215 918 q 254 854 254 880 q 235 811 254 829 q 188 794 215 794 m 315 -233 q 224 -271 272 -258 q 133 -284 176 -284 q 30 -254 68 -284 q -8 -172 -8 -224 q 41 -61 -8 -115 q 187 27 90 -8 l 229 0 q 102 -74 149 -35 q 55 -156 55 -112 q 81 -205 55 -189 q 147 -222 108 -222 q 215 -210 179 -222 q 294 -176 251 -199 l 315 -233 z "},"ĳ":{"ha":814,"x_min":132,"x_max":667,"o":"m 190 833 q 148 849 164 833 q 132 889 132 865 q 148 927 132 913 q 190 941 164 941 q 232 927 217 941 q 247 889 247 913 q 232 849 247 865 q 190 833 217 833 m 149 0 l 149 660 l 230 660 l 230 0 l 149 0 m 610 833 q 569 849 583 833 q 554 889 554 865 q 569 927 554 913 q 610 941 583 941 q 652 927 636 941 q 667 889 667 913 q 652 849 667 865 q 610 833 636 833 m 449 -338 q 359 -325 403 -338 q 267 -283 315 -312 l 274 -212 q 357 -252 317 -237 q 440 -268 396 -268 q 536 -226 501 -268 q 571 -101 571 -185 l 571 662 l 649 662 l 649 -101 q 593 -283 649 -227 q 449 -338 536 -338 z "},"ȷ":{"ha":421,"x_min":-126,"x_max":256,"o":"m 56 -338 q -34 -325 10 -338 q -126 -283 -78 -312 l -119 -212 q -36 -252 -76 -237 q 47 -268 3 -268 q 143 -226 108 -268 q 178 -101 178 -185 l 178 662 l 256 662 l 256 -101 q 200 -283 256 -227 q 56 -338 143 -338 z "},"ķ":{"ha":763,"x_min":146,"x_max":707,"o":"m 146 0 l 146 944 l 226 944 l 226 0 l 146 0 m 213 362 l 576 659 l 692 659 l 213 274 l 213 362 m 607 0 l 285 415 l 372 425 l 707 0 l 607 0 m 349 -301 l 294 -274 q 357 -234 333 -256 q 390 -178 382 -212 q 349 -163 365 -177 q 335 -124 333 -149 q 352 -86 336 -102 q 394 -71 369 -71 q 442 -92 422 -71 q 461 -152 463 -114 q 433 -231 460 -189 q 349 -301 406 -274 z "},"ĺ":{"ha":372,"x_min":105,"x_max":384,"o":"m 146 0 l 146 944 l 226 944 l 226 0 l 146 0 m 147 1067 l 105 1100 l 325 1337 l 384 1288 l 147 1067 z "},"ľ":{"ha":372,"x_min":146,"x_max":431,"o":"m 146 0 l 146 944 l 226 944 l 226 0 l 146 0 m 330 721 l 278 749 q 338 789 315 767 q 367 844 361 810 q 325 859 342 845 q 307 898 307 874 q 322 935 307 919 q 363 951 338 951 q 412 928 393 951 q 431 870 431 904 q 407 789 431 830 q 330 721 383 749 z "},"ļ":{"ha":372,"x_min":99,"x_max":267,"o":"m 146 0 l 146 944 l 226 944 l 226 0 l 146 0 m 153 -301 l 99 -274 q 161 -234 137 -256 q 194 -178 186 -212 q 153 -163 169 -177 q 139 -124 137 -149 q 157 -86 140 -102 q 198 -71 173 -71 q 246 -92 226 -71 q 265 -152 267 -114 q 237 -231 264 -189 q 153 -301 210 -274 z "},"ł":{"ha":372,"x_min":35,"x_max":365,"o":"m 47 508 l 35 566 l 354 622 l 365 563 l 47 508 m 146 0 l 146 944 l 226 944 l 226 0 l 146 0 z "},"ń":{"ha":824,"x_min":146,"x_max":701,"o":"m 623 0 l 623 388 q 573 549 623 493 q 434 604 522 604 q 323 569 369 604 q 251 469 276 533 q 226 320 226 406 l 191 320 q 220 508 191 428 q 308 631 250 588 q 452 674 366 674 q 584 640 528 674 q 671 542 640 606 q 701 388 701 478 l 701 0 l 623 0 m 146 0 l 146 659 l 214 659 l 226 497 l 226 0 l 146 0 m 397 790 l 355 824 l 575 1060 l 634 1012 l 397 790 z "},"ň":{"ha":824,"x_min":146,"x_max":701,"o":"m 623 0 l 623 388 q 573 549 623 493 q 434 604 522 604 q 323 569 369 604 q 251 469 276 533 q 226 320 226 406 l 191 320 q 220 508 191 428 q 308 631 250 588 q 452 674 366 674 q 584 640 528 674 q 671 542 640 606 q 701 388 701 478 l 701 0 l 623 0 m 146 0 l 146 659 l 214 659 l 226 497 l 226 0 l 146 0 m 437 777 l 230 994 l 280 1033 l 451 844 l 423 844 l 595 1033 l 644 994 l 437 777 z "},"ņ":{"ha":824,"x_min":146,"x_max":701,"o":"m 623 0 l 623 388 q 573 549 623 493 q 434 604 522 604 q 323 569 369 604 q 251 469 276 533 q 226 320 226 406 l 191 320 q 220 508 191 428 q 308 631 250 588 q 452 674 366 674 q 584 640 528 674 q 671 542 640 606 q 701 388 701 478 l 701 0 l 623 0 m 146 0 l 146 659 l 214 659 l 226 497 l 226 0 l 146 0 m 380 -301 l 325 -274 q 388 -234 363 -256 q 421 -178 413 -212 q 380 -163 396 -177 q 365 -124 363 -149 q 383 -86 367 -102 q 424 -71 399 -71 q 473 -92 452 -71 q 492 -152 493 -114 q 463 -231 490 -189 q 380 -301 436 -274 z "},"ŋ":{"ha":848,"x_min":146,"x_max":702,"o":"m 501 -338 q 411 -325 456 -338 q 319 -283 367 -312 l 326 -212 q 409 -252 369 -237 q 492 -268 448 -268 q 589 -226 553 -268 q 624 -101 624 -185 l 624 372 l 702 372 l 702 -101 q 645 -283 702 -227 q 501 -338 588 -338 m 623 0 l 623 388 q 573 549 623 493 q 434 604 522 604 q 323 569 369 604 q 251 469 276 533 q 226 320 226 406 l 191 320 q 220 508 191 428 q 308 631 250 588 q 452 674 366 674 q 584 640 528 674 q 671 542 640 606 q 701 388 701 478 l 701 0 l 623 0 m 146 0 l 146 659 l 214 659 l 226 497 l 226 0 l 146 0 z "},"ő":{"ha":745,"x_min":74,"x_max":673,"o":"m 374 -15 q 218 24 285 -15 q 112 141 151 64 q 74 330 74 218 q 112 518 74 442 q 218 635 151 595 q 374 674 285 674 q 529 635 462 674 q 635 518 597 595 q 673 330 673 442 q 635 141 673 218 q 529 24 597 64 q 374 -15 462 -15 m 372 55 q 494 89 445 55 q 566 185 542 124 q 590 330 590 247 q 537 530 590 454 q 375 606 484 606 q 254 571 302 606 q 182 475 206 537 q 158 330 158 413 q 211 131 158 206 q 372 55 264 55 m 461 754 l 413 760 l 430 982 l 499 973 l 461 754 m 310 757 l 261 762 l 274 985 l 344 977 l 310 757 z "},"ō":{"ha":745,"x_min":74,"x_max":673,"o":"m 374 -15 q 218 24 285 -15 q 112 141 151 64 q 74 330 74 218 q 112 518 74 442 q 218 635 151 595 q 374 674 285 674 q 529 635 462 674 q 635 518 597 595 q 673 330 673 442 q 635 141 673 218 q 529 24 597 64 q 374 -15 462 -15 m 372 55 q 494 89 445 55 q 566 185 542 124 q 590 330 590 247 q 537 530 590 454 q 375 606 484 606 q 254 571 302 606 q 182 475 206 537 q 158 330 158 413 q 211 131 158 206 q 372 55 264 55 m 168 879 l 578 879 l 578 811 l 168 811 l 168 879 z "},"ø":{"ha":745,"x_min":71,"x_max":685,"o":"m 71 0 l 607 659 l 685 659 l 147 0 l 71 0 m 374 -15 q 218 24 285 -15 q 112 141 151 64 q 74 330 74 218 q 112 518 74 442 q 218 635 151 595 q 374 674 285 674 q 529 635 462 674 q 635 518 597 595 q 673 330 673 442 q 635 141 673 218 q 529 24 597 64 q 374 -15 462 -15 m 372 55 q 494 89 445 55 q 566 185 542 124 q 590 330 590 247 q 537 530 590 454 q 375 606 484 606 q 254 571 302 606 q 182 475 206 537 q 158 330 158 413 q 211 131 158 206 q 372 55 264 55 z "},"œ":{"ha":1169,"x_min":74,"x_max":1096,"o":"m 360 -15 q 211 24 276 -15 q 110 141 147 64 q 74 330 74 218 q 110 518 74 442 q 211 635 147 595 q 360 674 276 674 q 507 635 443 674 q 608 518 572 595 q 644 330 644 442 q 608 141 644 218 q 507 24 572 64 q 360 -15 443 -15 m 358 55 q 473 89 427 55 q 543 185 519 124 q 566 330 566 247 q 515 530 566 454 q 360 606 465 606 q 245 571 291 606 q 176 475 199 537 q 153 330 153 413 q 204 131 153 206 q 358 55 254 55 m 845 -15 q 700 29 763 -15 q 602 150 638 73 q 567 327 567 228 q 602 513 567 435 q 700 633 638 591 q 845 674 763 674 q 963 645 915 674 q 1042 565 1012 615 q 1084 450 1072 514 q 1093 318 1096 386 l 630 318 l 630 374 l 1047 374 l 1016 353 q 1011 443 1018 398 q 985 525 1004 488 q 933 585 967 563 q 846 608 899 608 q 734 572 778 608 q 667 477 689 535 q 644 353 644 419 l 644 319 q 666 183 644 244 q 733 88 688 123 q 845 52 778 52 q 958 88 915 52 q 1011 193 1002 124 l 1093 193 q 1049 81 1083 127 q 963 9 1015 34 q 845 -15 910 -15 z "},"þ":{"ha":833,"x_min":146,"x_max":719,"o":"m 429 -15 q 302 19 357 -15 q 218 117 248 53 q 188 270 188 181 l 226 270 q 255 152 226 200 q 327 81 283 105 q 422 56 372 56 q 526 88 477 56 q 605 182 574 120 q 635 331 635 243 q 606 479 635 418 q 529 572 577 540 q 423 604 481 604 q 328 579 373 604 q 255 506 283 554 q 226 386 226 458 l 188 386 q 219 542 188 478 q 306 641 251 607 q 430 674 360 674 q 573 633 507 674 q 679 515 639 592 q 719 331 719 438 q 679 145 719 223 q 572 26 638 67 q 429 -15 506 -15 m 146 -325 l 146 858 l 226 858 l 226 -325 l 146 -325 z "},"ŕ":{"ha":481,"x_min":146,"x_max":516,"o":"m 146 0 l 146 660 l 226 660 l 226 0 l 146 0 m 197 302 q 218 508 197 426 q 285 631 240 590 q 400 672 330 672 q 445 668 424 672 q 486 657 465 665 l 477 578 q 433 591 457 586 q 390 597 408 597 q 293 559 328 597 q 242 455 257 522 q 226 302 226 389 l 197 302 m 278 779 l 237 813 l 457 1049 l 516 1001 l 278 779 z "},"ř":{"ha":481,"x_min":112,"x_max":526,"o":"m 146 0 l 146 660 l 226 660 l 226 0 l 146 0 m 197 302 q 218 508 197 426 q 285 631 240 590 q 400 672 330 672 q 445 668 424 672 q 486 657 465 665 l 477 578 q 433 591 457 586 q 390 597 408 597 q 293 559 328 597 q 242 455 257 522 q 226 302 226 389 l 197 302 m 319 765 l 112 983 l 162 1022 l 333 833 l 305 833 l 477 1022 l 526 983 l 319 765 z "},"ŗ":{"ha":481,"x_min":146,"x_max":486,"o":"m 146 0 l 146 660 l 226 660 l 226 0 l 146 0 m 197 302 q 218 508 197 426 q 285 631 240 590 q 400 672 330 672 q 445 668 424 672 q 486 657 465 665 l 477 578 q 433 591 457 586 q 390 597 408 597 q 293 559 328 597 q 242 455 257 522 q 226 302 226 389 l 197 302 m 281 -296 l 226 -268 q 289 -228 264 -250 q 322 -172 313 -206 q 280 -157 297 -172 q 266 -119 264 -143 q 284 -81 267 -97 q 325 -65 300 -65 q 373 -87 353 -65 q 392 -147 394 -108 q 364 -226 391 -183 q 281 -296 337 -268 z "},"ś":{"ha":728,"x_min":93,"x_max":637,"o":"m 378 -15 q 220 13 283 -15 q 127 88 158 40 q 93 193 96 135 l 174 193 q 230 87 178 123 q 374 51 283 51 q 461 67 421 51 q 526 110 501 83 q 551 172 551 138 q 518 242 551 217 q 415 285 485 267 l 294 321 q 162 392 208 346 q 116 503 116 438 q 183 627 116 581 q 359 674 251 674 q 543 628 477 674 q 613 512 609 581 l 529 512 q 478 585 522 561 q 359 609 435 609 q 242 574 283 609 q 200 499 200 540 q 336 383 200 419 l 454 346 q 590 279 543 321 q 637 172 637 238 q 606 81 637 124 q 517 11 575 38 q 378 -15 460 -15 m 325 779 l 283 813 l 503 1049 l 563 1001 l 325 779 z "},"š":{"ha":728,"x_min":93,"x_max":637,"o":"m 378 -15 q 220 13 283 -15 q 127 88 158 40 q 93 193 96 135 l 174 193 q 230 87 178 123 q 374 51 283 51 q 461 67 421 51 q 526 110 501 83 q 551 172 551 138 q 518 242 551 217 q 415 285 485 267 l 294 321 q 162 392 208 346 q 116 503 116 438 q 183 627 116 581 q 359 674 251 674 q 543 628 477 674 q 613 512 609 581 l 529 512 q 478 585 522 561 q 359 609 435 609 q 242 574 283 609 q 200 499 200 540 q 336 383 200 419 l 454 346 q 590 279 543 321 q 637 172 637 238 q 606 81 637 124 q 517 11 575 38 q 378 -15 460 -15 m 366 765 l 159 983 l 209 1022 l 380 833 l 352 833 l 524 1022 l 573 983 l 366 765 z "},"ş":{"ha":728,"x_min":93,"x_max":637,"o":"m 378 -15 q 220 13 283 -15 q 127 88 158 40 q 93 193 96 135 l 174 193 q 230 87 178 123 q 374 51 283 51 q 461 67 421 51 q 526 110 501 83 q 551 172 551 138 q 518 242 551 217 q 415 285 485 267 l 294 321 q 162 392 208 346 q 116 503 116 438 q 183 627 116 581 q 359 674 251 674 q 543 628 477 674 q 613 512 609 581 l 529 512 q 478 585 522 561 q 359 609 435 609 q 242 574 283 609 q 200 499 200 540 q 336 383 200 419 l 454 346 q 590 279 543 321 q 637 172 637 238 q 606 81 637 124 q 517 11 575 38 q 378 -15 460 -15 m 239 -242 l 256 -203 q 352 -237 309 -233 q 422 -226 396 -241 q 449 -185 448 -211 q 428 -140 451 -159 q 372 -107 406 -120 q 306 -87 338 -94 l 353 32 l 410 28 l 365 -85 l 338 -47 q 441 -82 399 -62 q 506 -127 484 -101 q 525 -188 528 -153 q 492 -251 522 -228 q 416 -281 461 -274 q 323 -278 371 -288 q 239 -242 276 -269 z "},"ș":{"ha":728,"x_min":93,"x_max":637,"o":"m 378 -15 q 220 13 283 -15 q 127 88 158 40 q 93 193 96 135 l 174 193 q 230 87 178 123 q 374 51 283 51 q 461 67 421 51 q 526 110 501 83 q 551 172 551 138 q 518 242 551 217 q 415 285 485 267 l 294 321 q 162 392 208 346 q 116 503 116 438 q 183 627 116 581 q 359 674 251 674 q 543 628 477 674 q 613 512 609 581 l 529 512 q 478 585 522 561 q 359 609 435 609 q 242 574 283 609 q 200 499 200 540 q 336 383 200 419 l 454 346 q 590 279 543 321 q 637 172 637 238 q 606 81 637 124 q 517 11 575 38 q 378 -15 460 -15 m 340 -301 l 285 -273 q 348 -233 323 -255 q 381 -177 372 -211 q 339 -162 356 -176 q 325 -124 323 -148 q 343 -86 326 -101 q 384 -70 359 -70 q 432 -92 412 -70 q 451 -151 453 -113 q 423 -231 450 -188 q 340 -301 396 -273 z "},"ß":{"ha":828,"x_min":146,"x_max":736,"o":"m 644 747 q 624 660 644 695 q 576 601 603 626 q 528 554 549 576 q 508 503 508 531 q 531 452 508 474 q 588 408 554 430 q 656 360 622 387 q 713 293 690 333 q 736 195 736 253 q 708 87 736 135 q 633 11 681 39 q 524 -16 585 -16 q 434 -4 485 -16 q 344 27 383 8 l 347 102 q 429 60 383 74 q 514 45 474 45 q 593 65 563 45 q 638 116 624 85 q 651 182 651 148 q 629 265 651 231 q 573 325 606 299 q 507 374 540 351 q 451 426 474 398 q 428 492 428 454 q 449 558 428 531 q 498 610 470 585 q 547 665 526 635 q 568 740 568 695 q 526 836 568 796 q 401 877 485 877 q 271 824 316 877 q 226 647 226 771 l 226 0 l 146 0 l 146 648 q 175 805 146 739 q 262 907 203 871 q 409 942 320 942 q 542 915 490 942 q 619 843 594 888 q 644 747 644 799 z "},"ŧ":{"ha":509,"x_min":49,"x_max":476,"o":"m 49 394 l 49 456 l 463 456 l 463 394 l 49 394 m 338 -15 q 247 5 287 -15 q 184 65 207 25 q 162 163 162 104 l 162 847 l 240 847 l 240 164 q 344 51 240 51 q 403 58 375 51 q 465 78 431 65 l 476 19 q 408 -6 442 3 q 338 -15 374 -15 m 49 601 l 49 659 l 463 659 l 463 601 l 49 601 z "},"ť":{"ha":509,"x_min":49,"x_max":499,"o":"m 338 -15 q 247 5 287 -15 q 184 65 207 25 q 162 163 162 104 l 162 847 l 240 847 l 240 164 q 344 51 240 51 q 403 58 375 51 q 465 78 431 65 l 476 19 q 408 -6 442 3 q 338 -15 374 -15 m 49 601 l 49 659 l 463 659 l 463 601 l 49 601 m 398 750 l 346 778 q 406 818 383 796 q 435 874 429 840 q 393 889 410 874 q 375 927 375 903 q 390 964 375 948 q 431 981 406 981 q 480 957 461 981 q 499 899 499 933 q 475 818 499 859 q 398 750 451 778 z "},"ţ":{"ha":509,"x_min":49,"x_max":476,"o":"m 338 -15 q 247 5 287 -15 q 184 65 207 25 q 162 163 162 104 l 162 847 l 240 847 l 240 164 q 344 51 240 51 q 403 58 375 51 q 465 78 431 65 l 476 19 q 408 -6 442 3 q 338 -15 374 -15 m 49 601 l 49 659 l 463 659 l 463 601 l 49 601 m 171 -242 l 188 -202 q 284 -236 241 -232 q 354 -225 328 -240 q 381 -185 380 -210 q 360 -139 383 -158 q 304 -106 338 -119 q 238 -86 270 -93 l 285 33 l 342 29 l 297 -84 l 270 -46 q 373 -81 331 -61 q 438 -127 416 -101 q 457 -187 460 -153 q 424 -250 454 -227 q 348 -281 393 -274 q 255 -278 303 -287 q 171 -242 208 -268 z "},"ț":{"ha":509,"x_min":49,"x_max":476,"o":"m 338 -15 q 247 5 287 -15 q 184 65 207 25 q 162 163 162 104 l 162 847 l 240 847 l 240 164 q 344 51 240 51 q 403 58 375 51 q 465 78 431 65 l 476 19 q 408 -6 442 3 q 338 -15 374 -15 m 49 601 l 49 659 l 463 659 l 463 601 l 49 601 m 271 -300 l 216 -272 q 279 -232 254 -254 q 312 -176 303 -210 q 270 -161 287 -176 q 256 -123 254 -147 q 274 -85 258 -101 q 315 -69 290 -69 q 364 -91 343 -69 q 383 -151 384 -112 q 354 -230 381 -187 q 271 -300 327 -272 z "},"ŭ":{"ha":826,"x_min":124,"x_max":679,"o":"m 599 660 l 679 660 l 679 0 l 599 0 l 599 660 m 124 660 l 204 660 l 204 246 q 249 106 204 154 q 378 58 294 58 q 497 95 448 58 q 573 196 547 133 q 599 335 599 259 l 637 335 q 604 151 637 230 q 512 30 572 73 q 370 -12 452 -12 q 239 16 294 -12 q 153 101 183 44 q 124 242 124 158 l 124 660 m 426 797 q 296 843 345 797 q 247 954 247 889 l 317 954 q 348 881 317 908 q 426 855 378 855 q 506 881 476 855 q 535 954 535 908 l 606 954 q 557 843 606 889 q 426 797 508 797 z "},"ű":{"ha":826,"x_min":124,"x_max":679,"o":"m 599 660 l 679 660 l 679 0 l 599 0 l 599 660 m 124 660 l 204 660 l 204 246 q 249 106 204 154 q 378 58 294 58 q 497 95 448 58 q 573 196 547 133 q 599 335 599 259 l 637 335 q 604 151 637 230 q 512 30 572 73 q 370 -12 452 -12 q 239 16 294 -12 q 153 101 183 44 q 124 242 124 158 l 124 660 m 515 754 l 467 760 l 483 982 l 553 973 l 515 754 m 363 757 l 315 762 l 327 985 l 397 977 l 363 757 z "},"ū":{"ha":826,"x_min":124,"x_max":679,"o":"m 599 660 l 679 660 l 679 0 l 599 0 l 599 660 m 124 660 l 204 660 l 204 246 q 249 106 204 154 q 378 58 294 58 q 497 95 448 58 q 573 196 547 133 q 599 335 599 259 l 637 335 q 604 151 637 230 q 512 30 572 73 q 370 -12 452 -12 q 239 16 294 -12 q 153 101 183 44 q 124 242 124 158 l 124 660 m 222 879 l 632 879 l 632 811 l 222 811 l 222 879 z "},"ų":{"ha":826,"x_min":124,"x_max":765,"o":"m 599 660 l 679 660 l 679 0 l 599 0 l 599 660 m 124 660 l 204 660 l 204 246 q 249 106 204 154 q 378 58 294 58 q 497 95 448 58 q 573 196 547 133 q 599 335 599 259 l 637 335 q 604 151 637 230 q 512 30 572 73 q 370 -12 452 -12 q 239 16 294 -12 q 153 101 183 44 q 124 242 124 158 l 124 660 m 765 -233 q 674 -271 722 -258 q 583 -284 626 -284 q 480 -254 518 -284 q 442 -172 442 -224 q 491 -61 442 -115 q 637 27 540 -8 l 679 0 q 552 -74 599 -35 q 505 -156 505 -112 q 531 -205 505 -189 q 597 -222 558 -222 q 665 -210 629 -222 q 744 -176 701 -199 l 765 -233 z "},"ů":{"ha":826,"x_min":124,"x_max":679,"o":"m 599 660 l 679 660 l 679 0 l 599 0 l 599 660 m 124 660 l 204 660 l 204 246 q 249 106 204 154 q 378 58 294 58 q 497 95 448 58 q 573 196 547 133 q 599 335 599 259 l 637 335 q 604 151 637 230 q 512 30 572 73 q 370 -12 452 -12 q 239 16 294 -12 q 153 101 183 44 q 124 242 124 158 l 124 660 m 426 739 q 364 756 392 739 q 318 802 335 773 q 301 865 301 831 q 318 928 301 900 q 364 974 335 957 q 427 992 392 992 q 490 974 461 992 q 536 928 519 957 q 553 865 553 900 q 536 802 553 831 q 490 756 519 773 q 426 739 461 739 m 426 801 q 473 819 454 801 q 491 865 491 838 q 473 911 491 892 q 426 930 454 930 q 381 911 400 930 q 363 865 363 892 q 381 819 363 838 q 426 801 400 801 z "},"ẃ":{"ha":983,"x_min":29,"x_max":950,"o":"m 29 659 l 113 659 l 294 83 l 281 83 l 460 629 l 522 629 l 699 82 l 688 82 l 869 659 l 950 659 l 734 0 l 656 0 l 483 512 l 496 512 l 324 0 l 247 0 l 29 659 m 452 779 l 410 813 l 631 1049 l 690 1001 l 452 779 z "},"ŵ":{"ha":983,"x_min":29,"x_max":950,"o":"m 29 659 l 113 659 l 294 83 l 281 83 l 460 629 l 522 629 l 699 82 l 688 82 l 869 659 l 950 659 l 734 0 l 656 0 l 483 512 l 496 512 l 324 0 l 247 0 l 29 659 m 334 745 l 284 784 l 491 1002 l 698 784 l 649 745 l 477 929 l 505 929 l 334 745 z "},"ẅ":{"ha":983,"x_min":29,"x_max":950,"o":"m 29 659 l 113 659 l 294 83 l 281 83 l 460 629 l 522 629 l 699 82 l 688 82 l 869 659 l 950 659 l 734 0 l 656 0 l 483 512 l 496 512 l 324 0 l 247 0 l 29 659 m 598 790 q 556 807 573 790 q 538 847 538 823 q 556 889 538 871 q 598 906 573 906 q 641 889 624 906 q 659 847 659 871 q 641 807 659 823 q 598 790 624 790 m 383 790 q 341 807 358 790 q 324 846 324 823 q 341 888 324 871 q 383 905 358 905 q 427 888 409 905 q 444 846 444 871 q 427 807 444 823 q 383 790 409 790 z "},"ẁ":{"ha":983,"x_min":29,"x_max":950,"o":"m 29 659 l 113 659 l 294 83 l 281 83 l 460 629 l 522 629 l 699 82 l 688 82 l 869 659 l 950 659 l 734 0 l 656 0 l 483 512 l 496 512 l 324 0 l 247 0 l 29 659 m 593 784 l 356 1006 l 415 1054 l 635 817 l 593 784 z "},"ý":{"ha":620,"x_min":-12,"x_max":592,"o":"m 33 659 l 121 659 l 356 70 l 333 70 l 508 659 l 592 659 l 346 -139 q 270 -284 319 -229 q 140 -338 221 -338 q 63 -325 99 -338 q -12 -287 26 -312 l -12 -210 q 58 -255 24 -241 q 129 -268 92 -268 q 205 -237 176 -268 q 254 -160 235 -207 q 287 -67 273 -114 l 306 0 l 33 659 m 271 779 l 229 813 l 449 1049 l 508 1001 l 271 779 z "},"ŷ":{"ha":620,"x_min":-12,"x_max":592,"o":"m 33 659 l 121 659 l 356 70 l 333 70 l 508 659 l 592 659 l 346 -139 q 270 -284 319 -229 q 140 -338 221 -338 q 63 -325 99 -338 q -12 -287 26 -312 l -12 -210 q 58 -255 24 -241 q 129 -268 92 -268 q 205 -237 176 -268 q 254 -160 235 -207 q 287 -67 273 -114 l 306 0 l 33 659 m 153 745 l 103 784 l 310 1002 l 517 784 l 468 745 l 296 929 l 324 929 l 153 745 z "},"ÿ":{"ha":620,"x_min":-12,"x_max":592,"o":"m 33 659 l 121 659 l 356 70 l 333 70 l 508 659 l 592 659 l 346 -139 q 270 -284 319 -229 q 140 -338 221 -338 q 63 -325 99 -338 q -12 -287 26 -312 l -12 -210 q 58 -255 24 -241 q 129 -268 92 -268 q 205 -237 176 -268 q 254 -160 235 -207 q 287 -67 273 -114 l 306 0 l 33 659 m 417 790 q 374 807 392 790 q 357 847 357 823 q 374 889 357 871 q 417 906 392 906 q 460 889 442 906 q 478 847 478 871 q 460 807 478 823 q 417 790 442 790 m 202 790 q 159 807 176 790 q 142 846 142 823 q 159 888 142 871 q 202 905 176 905 q 245 888 228 905 q 263 846 263 871 q 245 807 263 823 q 202 790 228 790 z "},"ỳ":{"ha":620,"x_min":-12,"x_max":592,"o":"m 33 659 l 121 659 l 356 70 l 333 70 l 508 659 l 592 659 l 346 -139 q 270 -284 319 -229 q 140 -338 221 -338 q 63 -325 99 -338 q -12 -287 26 -312 l -12 -210 q 58 -255 24 -241 q 129 -268 92 -268 q 205 -237 176 -268 q 254 -160 235 -207 q 287 -67 273 -114 l 306 0 l 33 659 m 413 784 l 175 1006 l 234 1054 l 454 817 l 413 784 z "},"ź":{"ha":645,"x_min":71,"x_max":576,"o":"m 71 0 l 71 65 l 483 594 l 71 594 l 71 659 l 576 659 l 576 594 l 167 65 l 576 65 l 576 0 l 71 0 m 283 779 l 242 813 l 462 1049 l 521 1001 l 283 779 z "},"ž":{"ha":645,"x_min":71,"x_max":576,"o":"m 71 0 l 71 65 l 483 594 l 71 594 l 71 659 l 576 659 l 576 594 l 167 65 l 576 65 l 576 0 l 71 0 m 324 765 l 117 983 l 167 1022 l 338 833 l 310 833 l 482 1022 l 531 983 l 324 765 z "},"ż":{"ha":645,"x_min":71,"x_max":576,"o":"m 71 0 l 71 65 l 483 594 l 71 594 l 71 659 l 576 659 l 576 594 l 167 65 l 576 65 l 576 0 l 71 0 m 322 794 q 277 811 296 794 q 259 854 259 829 q 277 899 259 880 q 322 918 296 918 q 369 899 349 918 q 388 854 388 880 q 369 811 388 829 q 322 794 349 794 z "},"ﬁ":{"ha":852,"x_min":68,"x_max":706,"o":"m 181 0 l 181 772 q 204 875 181 835 q 269 934 228 915 q 361 953 310 953 q 413 950 387 953 q 466 937 440 946 l 451 871 q 407 884 428 880 q 366 889 385 889 q 318 880 342 889 q 277 846 294 871 q 260 772 260 821 l 260 0 l 181 0 m 68 601 l 68 659 l 405 659 l 405 601 l 68 601 m 648 833 q 606 849 622 833 q 590 889 590 865 q 606 927 590 913 q 648 941 622 941 q 690 927 675 941 q 706 889 706 913 q 690 849 706 865 q 648 833 675 833 m 608 0 l 608 660 l 688 660 l 688 0 l 608 0 z "},"ﬂ":{"ha":831,"x_min":68,"x_max":685,"o":"m 181 0 l 181 772 q 204 875 181 835 q 269 934 228 915 q 361 953 310 953 q 413 950 387 953 q 466 937 440 946 l 451 871 q 407 884 428 880 q 366 889 385 889 q 318 880 342 889 q 277 846 294 871 q 260 772 260 821 l 260 0 l 181 0 m 68 601 l 68 659 l 405 659 l 405 601 l 68 601 m 604 0 l 604 944 l 685 944 l 685 0 l 604 0 z "},"ª":{"ha":740,"x_min":87,"x_max":618,"o":"m 548 0 l 538 137 l 538 428 q 494 569 538 528 q 372 611 451 611 q 289 598 327 611 q 228 557 251 585 q 205 483 205 529 l 113 483 q 148 595 113 553 q 241 656 183 638 q 372 674 300 674 q 498 650 442 674 q 586 570 553 625 q 618 427 618 516 l 618 0 l 548 0 m 319 -15 q 188 14 240 -15 q 112 88 137 42 q 87 181 87 133 q 120 292 87 250 q 211 352 154 333 q 335 371 267 371 q 440 359 385 371 q 544 328 494 348 l 544 274 q 445 303 501 292 q 343 315 389 315 q 222 284 272 315 q 172 181 172 253 q 209 88 172 126 q 329 49 247 49 q 433 76 385 49 q 509 144 480 103 q 538 225 538 184 l 558 225 q 528 107 558 162 q 445 18 499 52 q 319 -15 391 -15 z "},"º":{"ha":745,"x_min":74,"x_max":673,"o":"m 374 -15 q 218 24 285 -15 q 112 141 151 64 q 74 330 74 218 q 112 518 74 442 q 218 635 151 595 q 374 674 285 674 q 529 635 462 674 q 635 518 597 595 q 673 330 673 442 q 635 141 673 218 q 529 24 597 64 q 374 -15 462 -15 m 372 55 q 494 89 445 55 q 566 185 542 124 q 590 330 590 247 q 537 530 590 454 q 375 606 484 606 q 254 571 302 606 q 182 475 206 537 q 158 330 158 413 q 211 131 158 206 q 372 55 264 55 z "},"Δ":{"ha":763,"x_min":39,"x_max":723,"o":"m 39 0 l 335 858 l 431 858 l 723 0 l 638 0 l 381 758 l 123 0 l 39 0 m 94 0 l 94 69 l 673 69 l 673 0 l 94 0 z "},"Ω":{"ha":871,"x_min":74,"x_max":798,"o":"m 367 14 q 264 40 316 14 q 169 116 213 65 q 100 245 126 167 q 74 426 74 322 q 122 675 74 576 q 251 823 169 774 q 436 872 333 872 q 620 823 538 872 q 750 675 702 774 q 798 426 798 576 q 772 244 798 322 q 702 116 745 167 q 607 39 658 65 q 503 14 555 14 l 503 61 q 604 105 556 61 q 683 230 652 148 q 714 428 714 311 q 640 703 714 607 q 436 799 565 799 q 233 703 308 799 q 158 426 158 606 q 189 229 158 310 q 268 105 219 148 q 367 61 316 61 l 367 14 m 74 -1 l 74 61 l 367 61 l 367 -1 l 74 -1 m 503 -1 l 503 61 l 798 61 l 798 -1 l 503 -1 z "},"μ":{"ha":826,"x_min":124,"x_max":679,"o":"m 599 660 l 679 660 l 679 0 l 599 0 l 599 139 q 507 27 566 67 q 370 -12 449 -12 q 204 43 265 -12 l 204 -285 l 124 -285 l 124 660 l 204 660 l 204 246 q 249 106 204 154 q 378 58 294 58 q 497 95 448 58 q 573 196 547 133 q 599 335 599 259 l 599 660 z "},"π":{"ha":844,"x_min":44,"x_max":815,"o":"m 753 -11 q 638 17 689 -11 q 556 103 586 45 q 526 251 526 162 l 526 660 l 605 660 l 605 251 q 653 103 605 147 q 772 59 701 59 l 753 -11 m 228 0 l 228 659 l 308 659 l 308 0 l 228 0 m 44 591 l 44 660 l 815 660 l 815 591 l 44 591 z "},"⁄":{"ha":371,"x_min":-184,"x_max":602,"o":"m -184 -10 l 540 933 l 602 933 l -124 -10 l -184 -10 z "},"½":{"ha":1294,"x_min":71,"x_max":1172,"o":"m 165 934 l 206 934 l 206 417 l 157 417 l 157 878 q 115 853 138 862 q 71 844 93 845 l 71 892 q 120 906 96 897 q 165 934 144 916 m 168 -10 l 892 933 l 954 933 l 228 -10 l 168 -10 m 815 0 l 815 70 q 849 173 815 138 q 934 228 883 207 l 1034 268 q 1098 313 1076 285 q 1119 383 1119 340 q 1089 455 1119 427 q 1005 482 1058 482 q 917 460 951 482 q 879 394 884 438 l 825 394 q 851 465 828 435 q 912 509 873 494 q 1005 525 951 525 q 1091 506 1053 525 q 1151 454 1128 487 q 1173 378 1173 421 q 1140 282 1173 318 q 1057 224 1108 245 l 953 181 q 887 140 910 165 q 864 75 864 115 l 864 45 l 1167 45 l 1167 0 l 815 0 z "},"¼":{"ha":1260,"x_min":71,"x_max":1170,"o":"m 165 934 l 206 934 l 206 417 l 157 417 l 157 878 q 115 853 138 862 q 71 844 93 845 l 71 892 q 120 906 96 897 q 165 934 144 916 m 168 -10 l 892 933 l 954 933 l 228 -10 l 168 -10 m 1037 525 l 1081 525 l 1081 172 l 1170 172 l 1170 131 l 1081 131 l 1081 0 l 1033 0 l 1033 131 l 763 131 l 763 170 l 1037 525 m 1034 444 l 822 170 l 1034 170 l 1034 444 z "},"¾":{"ha":1431,"x_min":79,"x_max":1367,"o":"m 273 401 q 178 420 223 401 q 107 476 134 439 q 79 566 79 513 l 127 566 q 171 476 128 506 q 273 446 214 446 q 369 477 335 446 q 403 554 403 508 q 371 627 403 599 q 260 656 338 656 l 207 656 l 207 695 l 236 695 q 343 721 304 695 q 382 794 382 747 q 351 863 382 835 q 265 892 320 892 q 190 874 223 892 q 144 810 158 857 l 97 810 q 154 907 107 878 q 265 936 201 936 q 386 897 338 936 q 435 797 435 858 q 410 727 435 756 q 342 681 386 698 q 424 636 392 668 q 456 552 456 604 q 408 444 456 487 q 273 401 359 401 m 365 -10 l 1088 933 l 1151 933 l 425 -10 l 365 -10 m 1233 525 l 1277 525 l 1277 172 l 1367 172 l 1367 131 l 1277 131 l 1277 0 l 1229 0 l 1229 131 l 959 131 l 959 170 l 1233 525 m 1231 444 l 1018 170 l 1231 170 l 1231 444 z "},"⅛":{"ha":1321,"x_min":71,"x_max":1208,"o":"m 165 934 l 206 934 l 206 417 l 157 417 l 157 878 q 115 853 138 862 q 71 844 93 845 l 71 892 q 120 906 96 897 q 165 934 144 916 m 168 -10 l 892 933 l 954 933 l 228 -10 l 168 -10 m 1006 -15 q 861 27 919 -15 q 804 133 804 69 q 850 228 804 194 q 965 263 895 263 q 984 262 974 263 q 1003 259 993 262 l 1003 242 q 895 210 935 242 q 854 135 854 177 q 898 56 854 83 q 1006 29 941 29 q 1115 54 1074 29 q 1156 118 1156 78 q 1134 170 1156 150 q 1074 203 1112 190 l 934 257 q 882 283 908 267 q 838 325 856 300 q 821 385 821 350 q 870 481 821 442 q 1006 519 919 519 q 1101 501 1060 519 q 1165 450 1142 482 q 1188 378 1188 419 q 1151 291 1188 328 q 1044 254 1115 254 q 1027 255 1035 254 q 1008 258 1018 256 l 1008 276 q 1100 304 1064 276 q 1137 377 1137 332 q 1101 447 1137 419 q 1006 475 1065 475 q 910 448 949 475 q 872 383 872 421 q 894 333 872 351 q 953 300 916 314 l 1090 248 q 1178 198 1147 227 q 1208 119 1208 168 q 1155 23 1208 60 q 1006 -15 1101 -15 z "},"⅜":{"ha":1492,"x_min":79,"x_max":1404,"o":"m 273 401 q 178 420 223 401 q 107 476 134 439 q 79 566 79 513 l 127 566 q 171 476 128 506 q 273 446 214 446 q 369 477 335 446 q 403 554 403 508 q 371 627 403 599 q 260 656 338 656 l 207 656 l 207 695 l 236 695 q 343 721 304 695 q 382 794 382 747 q 351 863 382 835 q 265 892 320 892 q 190 874 223 892 q 144 810 158 857 l 97 810 q 154 907 107 878 q 265 936 201 936 q 386 897 338 936 q 435 797 435 858 q 410 727 435 756 q 342 681 386 698 q 424 636 392 668 q 456 552 456 604 q 408 444 456 487 q 273 401 359 401 m 365 -10 l 1088 933 l 1151 933 l 425 -10 l 365 -10 m 1202 -15 q 1058 27 1115 -15 q 1001 133 1001 69 q 1046 228 1001 194 q 1162 263 1092 263 q 1180 262 1171 263 q 1199 259 1190 262 l 1199 242 q 1091 210 1132 242 q 1051 135 1051 177 q 1094 56 1051 83 q 1202 29 1138 29 q 1312 54 1271 29 q 1353 118 1353 78 q 1331 170 1353 150 q 1270 203 1308 190 l 1131 257 q 1078 283 1105 267 q 1035 325 1052 300 q 1017 385 1017 350 q 1067 481 1017 442 q 1202 519 1116 519 q 1297 501 1256 519 q 1361 450 1338 482 q 1384 378 1384 419 q 1348 291 1384 328 q 1241 254 1312 254 q 1223 255 1232 254 q 1205 258 1215 256 l 1205 276 q 1297 304 1260 276 q 1333 377 1333 332 q 1297 447 1333 419 q 1202 475 1261 475 q 1107 448 1145 475 q 1069 383 1069 421 q 1091 333 1069 351 q 1150 300 1113 314 l 1287 248 q 1374 198 1344 227 q 1405 119 1405 168 q 1351 23 1405 60 q 1202 -15 1297 -15 z "},"⅝":{"ha":1482,"x_min":96,"x_max":1394,"o":"m 267 401 q 183 418 222 401 q 120 468 144 435 q 96 549 96 501 l 143 549 q 180 472 143 499 q 267 446 216 446 q 364 483 330 446 q 398 575 398 520 q 258 685 398 685 l 131 685 l 152 927 l 425 927 l 425 883 l 191 883 l 201 903 l 183 709 l 174 715 q 219 722 194 720 q 263 724 244 724 q 399 687 349 724 q 449 575 449 650 q 427 486 449 526 q 365 424 405 447 q 267 401 324 401 m 355 -10 l 1078 933 l 1141 933 l 415 -10 l 355 -10 m 1192 -15 q 1048 27 1105 -15 q 990 133 990 69 q 1036 228 990 194 q 1151 263 1081 263 q 1170 262 1160 263 q 1189 259 1179 262 l 1189 242 q 1081 210 1122 242 q 1040 135 1040 177 q 1084 56 1040 83 q 1192 29 1127 29 q 1301 54 1260 29 q 1342 118 1342 78 q 1320 170 1342 150 q 1260 203 1298 190 l 1120 257 q 1068 283 1094 267 q 1024 325 1042 300 q 1007 385 1007 350 q 1056 481 1007 442 q 1192 519 1106 519 q 1287 501 1246 519 q 1351 450 1328 482 q 1374 378 1374 419 q 1338 291 1374 328 q 1231 254 1301 254 q 1213 255 1222 254 q 1194 258 1204 256 l 1194 276 q 1286 304 1250 276 q 1323 377 1323 332 q 1287 447 1323 419 q 1192 475 1251 475 q 1097 448 1135 475 q 1058 383 1058 421 q 1080 333 1058 351 q 1140 300 1102 314 l 1276 248 q 1364 198 1333 227 q 1394 119 1394 168 q 1341 23 1394 60 q 1192 -15 1287 -15 z "},"⅞":{"ha":1310,"x_min":33,"x_max":1260,"o":"m 69 417 l 322 888 l 33 888 l 33 933 l 380 933 l 380 890 l 133 417 l 69 417 m 220 -10 l 944 933 l 1006 933 l 281 -10 l 220 -10 m 1057 -15 q 913 27 970 -15 q 856 133 856 69 q 901 228 856 194 q 1017 263 947 263 q 1035 262 1026 263 q 1054 259 1044 262 l 1054 242 q 946 210 987 242 q 906 135 906 177 q 949 56 906 83 q 1057 29 992 29 q 1167 54 1126 29 q 1208 118 1208 78 q 1185 170 1208 150 q 1125 203 1163 190 l 985 257 q 933 283 960 267 q 890 325 907 300 q 872 385 872 350 q 922 481 872 442 q 1057 519 971 519 q 1152 501 1111 519 q 1216 450 1193 482 q 1239 378 1239 419 q 1203 291 1239 328 q 1096 254 1167 254 q 1078 255 1087 254 q 1060 258 1069 256 l 1060 276 q 1152 304 1115 276 q 1188 377 1188 332 q 1152 447 1188 419 q 1057 475 1116 475 q 962 448 1000 475 q 924 383 924 421 q 945 333 924 351 q 1005 300 967 314 l 1142 248 q 1229 198 1199 227 q 1260 119 1260 168 q 1206 23 1260 60 q 1057 -15 1152 -15 z "},"₀":{"ha":553,"x_min":74,"x_max":481,"o":"m 276 -16 q 129 54 184 -16 q 74 263 74 124 q 129 470 74 401 q 276 539 184 539 q 425 470 369 539 q 481 263 481 401 q 425 54 481 124 q 276 -16 369 -16 m 276 31 q 390 92 352 31 q 428 263 428 153 q 390 433 428 372 q 276 493 352 493 q 165 433 203 493 q 126 263 126 372 q 165 92 126 153 q 276 31 203 31 z "},"₁":{"ha":352,"x_min":71,"x_max":206,"o":"m 164 517 l 206 517 l 206 0 l 157 0 l 157 461 q 115 437 138 446 q 71 428 93 428 l 71 476 q 120 490 96 480 q 164 517 144 499 z "},"₂":{"ha":551,"x_min":92,"x_max":449,"o":"m 92 0 l 92 70 q 125 173 92 138 q 210 228 159 207 l 310 268 q 374 313 353 285 q 395 382 395 340 q 365 455 395 427 q 281 482 335 482 q 194 460 227 482 q 156 394 160 438 l 101 394 q 127 465 105 435 q 188 509 149 494 q 281 525 227 525 q 367 506 329 525 q 427 454 405 487 q 449 378 449 421 q 416 282 449 318 q 333 224 383 245 l 230 181 q 163 140 186 165 q 140 75 140 115 l 140 45 l 443 45 l 443 0 l 92 0 z "},"₃":{"ha":549,"x_min":79,"x_max":457,"o":"m 274 -15 q 178 3 223 -15 q 107 59 134 22 q 79 149 79 96 l 128 149 q 171 59 128 90 q 274 29 214 29 q 369 60 335 29 q 403 138 403 92 q 371 210 403 182 q 260 239 338 239 l 207 239 l 207 278 l 236 278 q 343 305 304 278 q 383 377 383 331 q 352 446 383 418 q 265 474 321 474 q 191 457 223 474 q 144 393 158 440 l 97 393 q 154 490 107 462 q 265 519 201 519 q 386 480 338 519 q 435 380 435 440 q 411 309 435 338 q 342 265 387 281 q 424 219 392 251 q 457 135 457 187 q 408 27 457 69 q 274 -15 360 -15 z "},"₄":{"ha":481,"x_min":39,"x_max":447,"o":"m 313 525 l 357 525 l 357 172 l 447 172 l 447 131 l 357 131 l 357 0 l 309 0 l 309 131 l 39 131 l 39 170 l 313 525 m 311 444 l 97 170 l 311 170 l 311 444 z "},"₅":{"ha":539,"x_min":96,"x_max":449,"o":"m 268 -15 q 183 2 222 -15 q 120 51 144 19 q 96 132 96 84 l 143 132 q 180 56 143 82 q 268 29 216 29 q 364 66 330 29 q 398 158 398 103 q 258 268 398 268 l 131 268 l 151 510 l 426 510 l 426 467 l 191 467 l 201 486 l 183 292 l 174 299 q 219 305 194 303 q 263 307 244 307 q 399 270 349 307 q 449 158 449 233 q 427 70 449 109 q 365 8 406 31 q 268 -15 324 -15 z "},"₆":{"ha":528,"x_min":74,"x_max":442,"o":"m 273 -15 q 168 19 213 -15 q 98 111 123 53 q 74 243 74 170 q 129 445 74 372 q 284 519 185 519 q 390 482 349 519 q 439 386 431 446 l 385 386 q 354 451 378 427 q 285 474 331 474 q 166 409 209 474 q 124 233 124 344 q 124 192 124 215 q 128 149 125 169 q 152 240 131 207 q 207 288 174 274 q 278 301 241 301 q 395 257 347 301 q 442 142 442 213 q 395 28 442 72 q 273 -15 348 -15 m 273 29 q 358 60 324 29 q 391 142 391 90 q 358 226 391 196 q 273 256 324 256 q 188 223 222 256 q 155 142 155 191 q 188 60 155 90 q 273 29 222 29 z "},"₇":{"ha":404,"x_min":33,"x_max":380,"o":"m 69 0 l 322 472 l 33 472 l 33 517 l 380 517 l 380 474 l 133 0 l 69 0 z "},"₈":{"ha":565,"x_min":81,"x_max":485,"o":"m 283 -15 q 138 27 196 -15 q 81 133 81 69 q 126 228 81 194 q 242 263 172 263 q 260 262 251 263 q 280 259 270 261 l 280 242 q 172 210 213 242 q 131 135 131 177 q 174 56 131 83 q 283 29 217 29 q 392 53 351 29 q 433 117 433 78 q 411 170 433 150 q 350 203 389 190 l 210 257 q 159 283 185 267 q 115 325 133 300 q 98 385 98 350 q 147 480 98 442 q 283 519 197 519 q 377 500 336 519 q 441 450 418 482 q 465 378 465 419 q 428 291 465 328 q 322 253 392 253 q 304 255 313 253 q 285 258 295 256 l 285 276 q 377 304 341 276 q 414 376 414 332 q 378 446 414 418 q 283 474 342 474 q 187 447 225 474 q 149 383 149 420 q 171 332 149 351 q 230 300 193 313 l 367 248 q 455 198 424 227 q 485 119 485 168 q 432 22 485 60 q 283 -15 378 -15 z "},"₉":{"ha":542,"x_min":101,"x_max":468,"o":"m 272 -15 q 184 6 222 -15 q 124 64 146 27 q 103 147 103 101 l 153 147 q 184 61 153 93 q 272 29 215 29 q 383 95 349 29 q 417 272 417 160 q 417 306 417 290 q 413 340 416 321 q 366 238 406 274 q 263 202 326 202 q 148 248 196 202 q 101 363 101 293 q 147 476 101 434 q 270 519 194 519 q 373 488 328 519 q 443 399 417 456 q 468 263 468 342 q 421 60 468 135 q 272 -15 374 -15 m 269 249 q 354 281 320 249 q 388 362 388 314 q 354 444 388 414 q 270 475 320 475 q 185 444 218 475 q 151 362 151 414 q 185 279 151 309 q 269 249 218 249 z "},"⁰":{"ha":553,"x_min":74,"x_max":481,"o":"m 276 318 q 169 349 215 318 q 99 441 124 379 q 74 596 74 503 q 99 749 74 688 q 169 841 124 810 q 276 872 215 872 q 383 841 338 872 q 455 749 429 810 q 481 596 481 688 q 455 441 481 503 q 383 349 429 379 q 276 318 338 318 m 276 365 q 390 425 352 365 q 428 596 428 486 q 390 766 428 705 q 276 826 352 826 q 165 766 203 826 q 126 596 126 705 q 165 425 126 486 q 276 365 203 365 z "},"¹":{"ha":352,"x_min":71,"x_max":206,"o":"m 164 859 l 206 859 l 206 342 l 157 342 l 157 802 q 115 778 138 787 q 71 769 93 770 l 71 817 q 120 831 96 822 q 164 859 144 841 z "},"²":{"ha":551,"x_min":92,"x_max":449,"o":"m 92 347 l 92 417 q 107 492 92 463 q 149 541 122 522 q 210 574 176 560 l 310 615 q 374 659 353 632 q 395 728 395 686 q 365 801 395 773 q 281 828 335 828 q 194 807 227 828 q 156 741 160 785 l 101 741 q 127 811 105 781 q 188 856 149 840 q 281 872 227 872 q 367 852 329 872 q 427 800 405 833 q 449 724 449 767 q 434 655 449 684 q 393 605 419 626 q 333 570 367 584 l 230 528 q 163 486 186 510 q 140 422 140 461 l 140 392 l 443 392 l 443 347 l 92 347 z "},"³":{"ha":549,"x_min":79,"x_max":457,"o":"m 274 338 q 200 348 235 338 q 138 379 165 358 q 95 431 111 400 q 79 501 79 462 l 128 501 q 148 436 128 463 q 200 395 167 409 q 274 382 233 382 q 369 413 335 382 q 403 490 403 444 q 389 542 403 519 q 344 578 375 565 q 260 592 313 592 l 207 592 l 207 631 l 236 631 q 343 657 304 631 q 383 729 383 683 q 352 799 383 770 q 265 827 321 827 q 190 810 223 827 q 144 746 158 793 l 97 746 q 127 819 103 792 q 186 859 151 847 q 265 872 222 872 q 352 853 313 872 q 413 804 390 835 q 435 733 435 773 q 411 662 435 691 q 342 617 387 633 q 424 572 392 604 q 457 488 457 539 q 435 410 457 444 q 372 357 413 376 q 274 338 331 338 z "},"⁴":{"ha":481,"x_min":39,"x_max":447,"o":"m 313 872 l 357 872 l 357 519 l 447 519 l 447 478 l 357 478 l 357 347 l 309 347 l 309 478 l 39 478 l 39 517 l 313 872 m 310 790 l 97 517 l 310 517 l 310 790 z "},"⁵":{"ha":539,"x_min":96,"x_max":449,"o":"m 268 332 q 183 349 222 332 q 120 398 144 365 q 96 479 96 431 l 143 479 q 180 403 143 429 q 268 376 216 376 q 364 414 329 376 q 398 505 398 451 q 258 615 398 615 l 131 615 l 151 858 l 426 858 l 426 813 l 191 813 l 201 833 l 183 639 l 174 646 q 219 652 194 650 q 263 654 243 654 q 399 617 349 654 q 449 505 449 580 q 427 416 449 456 q 365 355 406 377 q 268 332 324 332 z "},"⁶":{"ha":528,"x_min":74,"x_max":442,"o":"m 273 338 q 167 372 212 338 q 98 464 123 406 q 74 595 74 523 q 99 743 74 681 q 170 838 124 805 q 284 872 217 872 q 360 855 327 872 q 414 808 393 838 q 439 739 434 778 l 385 739 q 354 803 378 779 q 285 827 331 827 q 166 762 208 827 q 124 585 124 697 q 124 544 124 567 q 128 502 125 522 q 152 593 131 560 q 207 640 174 626 q 278 654 241 654 q 361 634 324 654 q 420 577 399 613 q 442 494 442 542 q 421 412 442 447 q 361 357 399 376 q 273 338 323 338 m 273 382 q 358 413 324 382 q 391 494 391 443 q 358 578 391 548 q 273 608 324 608 q 212 593 238 608 q 170 553 185 578 q 155 494 155 527 q 188 413 155 443 q 273 382 222 382 z "},"⁷":{"ha":404,"x_min":33,"x_max":380,"o":"m 69 341 l 322 812 l 33 812 l 33 858 l 380 858 l 380 815 l 133 341 l 69 341 z "},"⁸":{"ha":565,"x_min":81,"x_max":485,"o":"m 283 338 q 179 357 225 338 q 107 409 133 376 q 81 485 81 442 q 101 555 81 526 q 159 600 122 584 q 242 615 195 615 q 261 615 251 615 q 280 612 270 614 l 280 595 q 201 580 235 595 q 150 540 168 565 q 131 488 131 515 q 151 430 131 453 q 205 394 171 406 q 283 382 239 382 q 392 406 351 382 q 433 470 433 431 q 410 523 433 502 q 350 556 388 543 l 210 610 q 159 636 185 619 q 115 678 133 653 q 98 737 98 703 q 120 806 98 775 q 184 854 142 836 q 283 872 225 872 q 377 853 336 872 q 441 803 418 835 q 465 731 465 771 q 448 669 465 697 q 400 624 432 641 q 322 606 368 606 q 303 607 312 606 q 285 611 295 608 l 285 628 q 351 641 322 628 q 397 677 380 654 q 414 729 414 699 q 397 779 414 757 q 351 814 381 801 q 283 827 322 827 q 214 815 244 827 q 167 781 184 802 q 149 735 149 760 q 171 685 149 703 q 230 653 193 666 l 367 601 q 455 550 424 580 q 485 471 485 521 q 461 402 485 432 q 391 355 437 372 q 283 338 346 338 z "},"⁹":{"ha":542,"x_min":101,"x_max":468,"o":"m 272 338 q 184 358 222 338 q 124 416 146 379 q 103 499 103 453 l 153 499 q 184 414 153 446 q 272 382 215 382 q 355 412 322 382 q 402 496 387 442 q 417 625 417 550 q 416 658 417 643 q 413 693 415 674 q 389 618 408 649 q 337 571 369 587 q 263 555 305 555 q 181 576 218 555 q 123 633 144 597 q 101 715 101 669 q 122 798 101 763 q 181 852 143 833 q 270 872 219 872 q 350 854 313 872 q 413 802 386 836 q 453 722 439 769 q 468 615 468 674 q 448 467 468 530 q 384 371 427 405 q 272 338 340 338 m 269 601 q 330 617 303 601 q 373 657 357 632 q 388 714 388 683 q 354 797 388 767 q 270 828 320 828 q 185 797 218 828 q 151 714 151 767 q 184 632 151 662 q 269 601 217 601 z "},"…":{"ha":672,"x_min":46,"x_max":626,"o":"m 46 49 q 64 94 46 74 q 110 113 83 113 q 157 94 138 113 q 176 49 176 74 q 157 6 176 24 q 110 -12 138 -12 q 64 6 83 -12 q 46 49 46 24 m 276 49 q 295 94 276 74 q 340 113 313 113 q 388 94 368 113 q 407 49 407 74 q 388 6 407 24 q 340 -12 368 -12 q 295 6 313 -12 q 276 49 276 24 m 495 49 q 514 94 495 74 q 559 113 532 113 q 606 94 587 113 q 626 49 626 74 q 606 6 626 24 q 559 -12 587 -12 q 514 6 532 -12 q 495 49 495 24 z "},"¡":{"ha":374,"x_min":124,"x_max":254,"o":"m 158 616 l 219 616 l 231 -13 l 147 -13 l 158 616 m 188 843 q 235 825 216 843 q 254 781 254 807 q 235 737 254 756 q 188 717 216 717 q 142 737 160 717 q 124 781 124 756 q 142 825 124 807 q 188 843 160 843 z "},"¿":{"ha":679,"x_min":46,"x_max":605,"o":"m 403 629 l 403 563 q 391 464 403 503 q 349 395 379 424 q 267 336 319 366 q 189 287 219 310 q 145 237 159 264 q 132 169 132 210 q 181 69 132 109 q 315 30 230 30 q 455 64 406 30 q 517 163 503 99 l 605 163 q 522 14 594 72 q 315 -44 449 -44 q 171 -14 231 -44 q 78 65 110 15 q 46 172 46 114 q 82 291 46 244 q 200 383 118 339 q 275 433 247 410 q 314 486 302 456 q 325 566 325 516 l 325 629 l 403 629 m 363 843 q 408 825 390 843 q 427 781 427 806 q 409 736 427 756 q 364 717 390 717 q 317 736 337 717 q 297 781 297 756 q 317 825 297 806 q 363 843 337 843 z "},"·":{"ha":222,"x_min":46,"x_max":176,"o":"m 46 347 q 64 391 46 372 q 110 410 83 410 q 157 391 138 410 q 176 347 176 372 q 157 303 176 321 q 110 285 138 285 q 64 303 83 285 q 46 347 46 321 z "},"•":{"ha":336,"x_min":46,"x_max":290,"o":"m 46 352 q 80 436 46 400 q 166 472 115 472 q 253 436 217 472 q 290 352 290 400 q 253 270 290 304 q 166 237 217 237 q 80 271 115 237 q 46 352 46 305 z "},"‚":{"ha":295,"x_min":50,"x_max":217,"o":"m 113 -133 l 50 -103 q 110 -63 86 -85 q 140 -7 133 -41 q 97 9 115 -6 q 78 49 78 24 q 95 89 78 72 q 139 106 112 106 q 194 81 172 106 q 217 20 217 56 q 191 -64 217 -22 q 113 -133 166 -106 z "},"„":{"ha":550,"x_min":50,"x_max":472,"o":"m 367 -133 l 305 -103 q 365 -63 341 -85 q 395 -7 388 -41 q 351 9 369 -6 q 333 49 333 24 q 350 89 333 72 q 394 106 367 106 q 449 81 427 106 q 472 20 472 56 q 446 -64 472 -22 q 367 -133 421 -106 m 113 -133 l 50 -103 q 110 -63 86 -85 q 140 -7 133 -41 q 97 9 115 -6 q 78 49 78 24 q 95 89 78 72 q 139 106 112 106 q 194 81 172 106 q 217 20 217 56 q 191 -64 217 -22 q 113 -133 166 -106 z "},"“":{"ha":495,"x_min":50,"x_max":417,"o":"m 328 610 q 289 621 307 610 q 261 653 272 633 q 251 699 251 674 q 277 782 251 740 q 358 851 304 824 l 417 821 q 357 778 381 802 q 326 723 333 755 q 372 708 355 722 q 389 669 389 694 q 373 628 389 646 q 328 610 357 610 m 128 610 q 89 621 106 610 q 60 653 71 633 q 50 699 50 674 q 77 782 50 740 q 157 851 103 824 l 217 821 q 157 778 181 802 q 125 723 133 755 q 171 708 154 722 q 188 669 188 694 q 172 628 188 646 q 128 610 156 610 z "},"”":{"ha":490,"x_min":50,"x_max":412,"o":"m 306 610 l 247 640 q 306 682 283 659 q 336 736 330 706 q 291 753 310 738 q 273 793 273 768 q 291 834 273 817 q 337 851 308 851 q 377 840 360 851 q 403 808 394 828 q 412 762 412 788 q 385 681 412 722 q 306 610 359 640 m 110 610 l 50 640 q 110 682 86 659 q 140 736 133 706 q 95 753 113 738 q 76 793 76 768 q 94 834 76 817 q 140 851 112 851 q 180 840 163 851 q 206 808 197 828 q 215 762 215 788 q 189 681 215 722 q 110 610 163 640 z "},"«":{"ha":758,"x_min":74,"x_max":685,"o":"m 356 68 l 74 365 l 356 662 l 424 626 l 150 347 l 150 383 l 424 104 l 356 68 m 618 68 l 335 365 l 618 662 l 685 626 l 412 347 l 412 383 l 685 104 l 618 68 z "},"»":{"ha":758,"x_min":74,"x_max":685,"o":"m 403 68 l 335 104 l 609 383 l 609 347 l 335 626 l 403 662 l 685 365 l 403 68 m 141 68 l 74 104 l 347 383 l 347 347 l 74 626 l 141 662 l 424 365 l 141 68 z "},"‹":{"ha":496,"x_min":74,"x_max":424,"o":"m 356 68 l 74 365 l 356 662 l 424 626 l 150 347 l 150 383 l 424 104 l 356 68 z "},"›":{"ha":496,"x_min":74,"x_max":424,"o":"m 140 68 l 74 104 l 347 383 l 347 347 l 74 626 l 140 662 l 424 365 l 140 68 z "},"ƒ":{"ha":442,"x_min":-126,"x_max":449,"o":"m 7 601 l 11 659 l 348 659 l 344 601 l 7 601 m -126 -271 l -107 -205 q -64 -218 -85 -214 q -24 -222 -43 -222 q 25 -214 0 -222 q 69 -179 51 -205 q 91 -105 87 -153 l 151 772 q 183 875 156 835 q 251 934 209 915 q 346 953 294 953 q 397 950 371 953 q 449 937 423 946 l 429 871 q 386 884 408 880 q 346 889 365 889 q 297 880 322 889 q 254 846 272 871 q 231 772 235 821 l 171 -106 q 140 -208 166 -168 q 71 -268 113 -249 q -24 -287 28 -287 q -75 -283 -49 -287 q -126 -271 -101 -279 z "},"¶":{"ha":833,"x_min":92,"x_max":640,"o":"m 374 340 q 163 411 234 340 q 92 598 92 481 q 163 786 92 715 q 374 858 234 858 l 618 858 l 618 788 l 426 788 l 426 340 l 374 340 m 392 -175 l 392 858 l 458 858 l 458 -175 l 392 -175 m 575 -175 l 575 858 l 640 858 l 640 -175 l 575 -175 z "},"§":{"ha":833,"x_min":123,"x_max":710,"o":"m 447 283 q 535 299 494 283 q 600 342 575 314 q 625 407 625 370 q 591 473 625 449 q 488 517 556 497 l 368 552 q 236 624 281 577 q 190 733 190 670 q 257 859 190 812 q 435 906 323 906 q 616 859 550 906 q 686 743 683 813 l 603 743 q 551 817 597 793 q 441 840 505 840 q 315 805 355 840 q 274 728 274 770 q 410 614 274 652 l 528 578 q 664 510 617 551 q 710 407 710 469 q 680 313 710 356 q 591 243 649 269 q 452 216 533 216 l 447 283 m 389 547 q 272 511 314 547 q 230 431 230 474 q 366 316 230 354 l 484 280 q 619 212 573 253 q 666 108 666 171 q 636 15 666 59 q 548 -55 607 -28 q 399 -82 488 -82 q 250 -54 311 -82 q 157 21 189 -26 q 123 127 125 69 l 203 127 q 259 22 206 58 q 394 -15 313 -15 q 528 20 476 -15 q 581 108 581 54 q 545 176 581 151 q 444 219 510 200 l 324 254 q 191 326 236 280 q 146 437 146 372 q 213 566 146 518 q 389 613 281 613 l 389 547 z "},"©":{"ha":943,"x_min":33,"x_max":910,"o":"m 472 -8 q 302 26 381 -8 q 162 120 222 60 q 67 260 101 181 q 33 430 33 339 q 67 600 33 520 q 162 740 101 679 q 302 834 222 800 q 472 868 381 868 q 641 834 562 868 q 781 740 721 800 q 876 600 842 679 q 910 430 910 520 q 876 260 910 339 q 781 120 842 181 q 641 26 721 60 q 472 -8 562 -8 m 472 37 q 624 67 553 37 q 749 152 695 98 q 834 277 803 206 q 865 430 865 349 q 834 582 865 511 q 749 708 803 653 q 624 792 695 762 q 472 823 553 823 q 319 792 391 823 q 194 708 248 762 q 109 582 140 653 q 78 430 78 511 q 109 277 78 349 q 194 152 140 206 q 319 67 248 98 q 472 37 391 37 m 469 153 q 348 190 399 153 q 270 290 297 226 q 243 435 243 354 q 273 584 243 524 q 355 676 303 644 q 469 707 406 707 q 602 666 551 707 q 677 558 654 624 l 622 545 q 563 631 604 599 q 469 663 522 663 q 385 636 424 663 q 321 560 345 610 q 297 435 297 510 q 316 316 297 369 q 372 230 334 262 q 469 199 410 199 q 581 236 539 199 q 622 335 622 274 l 678 335 q 619 202 678 251 q 469 153 560 153 z "},"®":{"ha":943,"x_min":33,"x_max":910,"o":"m 472 -8 q 302 26 381 -8 q 162 120 222 60 q 67 260 101 181 q 33 430 33 339 q 67 600 33 520 q 162 740 101 679 q 302 834 222 800 q 472 868 381 868 q 641 834 562 868 q 781 740 721 800 q 876 600 842 679 q 910 430 910 520 q 876 260 910 339 q 781 120 842 181 q 641 26 721 60 q 472 -8 562 -8 m 472 37 q 624 67 553 37 q 749 152 695 98 q 834 277 803 206 q 865 430 865 349 q 834 582 865 511 q 749 708 803 653 q 624 792 695 762 q 472 823 553 823 q 319 792 391 823 q 194 708 248 762 q 109 582 140 653 q 78 430 78 511 q 109 277 78 349 q 194 152 140 206 q 319 67 248 98 q 472 37 391 37 m 608 181 l 458 406 l 510 406 l 669 181 l 608 181 m 319 181 l 319 685 l 490 685 q 617 645 574 685 q 659 539 659 604 q 617 433 659 474 q 490 392 574 392 l 367 392 l 367 181 l 319 181 m 367 428 l 488 428 q 579 458 548 428 q 610 538 610 488 q 580 617 610 588 q 490 646 549 646 l 367 646 l 367 428 z "},"™":{"ha":916,"x_min":4,"x_max":842,"o":"m 4 1055 l 4 1089 l 333 1089 l 333 1055 l 180 1055 l 188 1064 l 188 660 l 148 660 l 148 1064 l 158 1055 l 4 1055 m 410 1089 l 468 1089 l 629 774 l 624 774 l 786 1089 l 842 1089 l 842 660 l 801 660 l 801 1051 l 810 1051 l 641 717 l 613 717 l 444 1049 l 450 1049 l 450 660 l 410 660 l 410 1089 z "},"°":{"ha":440,"x_min":47,"x_max":393,"o":"m 220 658 q 133 682 172 658 q 70 744 94 705 q 47 831 47 784 q 70 919 47 880 q 133 981 94 958 q 220 1005 172 1005 q 307 981 268 1005 q 369 919 346 958 q 393 832 393 880 q 369 744 393 784 q 307 682 346 705 q 220 658 268 658 m 220 717 q 300 751 267 717 q 333 832 333 785 q 300 912 333 878 q 220 945 267 945 q 139 912 173 945 q 106 831 106 878 q 139 751 106 785 q 220 717 173 717 z "},"¦":{"ha":372,"x_min":146,"x_max":226,"o":"m 146 479 l 146 1028 l 226 1028 l 226 479 l 146 479 m 146 -169 l 146 379 l 226 379 l 226 -169 l 146 -169 z "},"†":{"ha":678,"x_min":55,"x_max":623,"o":"m 306 -175 l 295 858 l 383 858 l 371 -175 l 306 -175 m 55 547 l 55 594 l 339 603 l 623 594 l 623 547 l 339 535 l 55 547 z "},"‡":{"ha":678,"x_min":55,"x_max":623,"o":"m 306 -175 l 295 858 l 383 858 l 371 -175 l 306 -175 m 55 547 l 55 594 l 339 603 l 623 594 l 623 547 l 339 535 l 55 547 m 55 332 l 55 379 l 339 389 l 623 379 l 623 332 l 339 321 l 55 332 z "},"¢":{"ha":701,"x_min":74,"x_max":626,"o":"m 333 -144 l 333 4 l 405 4 l 405 -144 l 333 -144 m 333 655 l 333 782 l 405 782 l 405 655 l 333 655 m 368 -15 q 224 27 291 -15 q 115 147 156 69 q 74 331 74 225 q 115 516 74 439 q 224 633 156 592 q 368 674 291 674 q 461 659 419 674 q 536 618 503 644 q 591 556 568 591 q 626 481 614 521 l 542 468 q 476 568 522 532 q 367 604 431 604 q 265 573 313 604 q 188 481 217 542 q 158 331 158 420 q 184 189 158 251 q 258 91 211 126 q 367 56 306 56 q 497 98 451 56 q 542 215 542 140 l 626 215 q 594 95 626 147 q 503 14 561 43 q 368 -15 444 -15 z "},"¤":{"ha":833,"x_min":108,"x_max":726,"o":"m 417 160 q 278 198 340 160 q 178 298 215 235 q 141 438 141 361 q 178 575 141 513 q 278 675 215 638 q 417 712 340 712 q 555 675 493 712 q 654 575 617 638 q 691 438 691 513 q 654 298 691 361 q 555 198 617 235 q 417 160 493 160 m 417 240 q 515 266 470 240 q 586 338 560 293 q 613 438 613 383 q 586 536 613 492 q 515 607 560 581 q 417 633 470 633 q 318 607 363 633 q 247 536 273 581 q 220 438 220 492 q 247 338 220 383 q 318 266 273 293 q 417 240 363 240 m 601 574 l 553 623 l 677 745 l 726 698 l 601 574 m 230 576 l 108 697 l 155 745 l 277 625 l 230 576 m 603 298 l 726 178 l 678 127 l 556 249 l 603 298 m 230 298 l 277 249 l 155 127 l 108 178 l 230 298 z "},"€":{"ha":838,"x_min":40,"x_max":788,"o":"m 459 -15 q 268 43 348 -15 q 144 204 188 102 q 101 436 101 306 q 150 675 101 578 q 279 822 198 772 q 459 872 360 872 q 668 805 586 872 q 786 632 750 738 l 699 613 q 605 750 669 699 q 459 800 540 800 q 327 759 389 800 q 227 636 265 717 q 188 436 188 555 q 218 244 188 330 q 308 108 247 158 q 459 58 368 58 q 632 117 566 58 q 699 276 699 177 l 788 276 q 745 121 788 186 q 628 20 703 56 q 459 -15 553 -15 m 40 339 l 40 394 l 506 394 l 506 339 l 40 339 m 40 473 l 40 528 l 506 528 l 506 473 l 40 473 z "},"₨":{"ha":790,"x_min":134,"x_max":677,"o":"m 134 803 l 134 858 l 677 858 l 677 803 l 134 803 m 134 599 l 134 654 l 677 654 l 677 599 l 134 599 m 134 399 l 185 399 l 635 0 l 521 0 l 134 344 l 134 399 m 163 399 l 213 399 q 403 458 342 399 q 465 603 465 517 q 403 747 465 690 q 213 803 342 803 l 163 803 l 163 844 l 213 844 q 404 812 329 844 q 515 726 479 781 q 551 603 551 672 q 518 474 551 533 q 410 380 484 415 q 213 344 335 344 l 163 344 l 163 399 z "},"¥":{"ha":735,"x_min":14,"x_max":721,"o":"m 326 0 l 326 351 l 14 858 l 113 858 l 380 416 l 354 416 l 624 858 l 721 858 l 408 351 l 408 0 l 326 0 m 136 151 l 136 208 l 598 208 l 598 151 l 136 151 m 136 283 l 136 340 l 598 340 l 598 283 l 136 283 z "},"∕":{"ha":371,"x_min":-184,"x_max":602,"o":"m -184 -10 l 540 933 l 602 933 l -124 -10 l -184 -10 z "},"×":{"ha":713,"x_min":94,"x_max":619,"o":"m 149 83 l 94 140 l 300 347 l 94 551 l 149 608 l 357 402 l 562 608 l 619 551 l 412 347 l 619 140 l 562 83 l 357 289 l 149 83 z "},"÷":{"ha":713,"x_min":127,"x_max":585,"o":"m 127 317 l 127 386 l 585 386 l 585 317 l 127 317 m 356 119 q 314 136 331 119 q 297 176 297 153 q 314 217 297 199 q 356 235 331 235 q 398 217 381 235 q 415 176 415 199 q 398 136 415 153 q 356 119 381 119 m 356 468 q 314 484 331 468 q 297 525 297 501 q 314 565 297 549 q 356 582 331 582 q 398 565 381 582 q 415 525 415 549 q 398 484 415 501 q 356 468 381 468 z "},"≠":{"ha":713,"x_min":135,"x_max":578,"o":"m 219 80 l 426 606 l 488 606 l 281 80 l 219 80 m 135 177 l 135 246 l 578 246 l 578 177 l 135 177 m 135 431 l 135 500 l 578 500 l 578 431 l 135 431 z "},"≥":{"ha":713,"x_min":130,"x_max":583,"o":"m 157 174 l 130 239 l 520 392 l 520 363 l 130 521 l 157 582 l 569 409 l 569 347 l 157 174 m 139 0 l 139 63 l 583 63 l 583 0 l 139 0 z "},"≤":{"ha":713,"x_min":130,"x_max":583,"o":"m 557 174 l 143 347 l 143 409 l 557 582 l 583 521 l 192 363 l 192 392 l 583 239 l 557 174 m 130 0 l 130 63 l 574 63 l 574 0 l 130 0 z "},"±":{"ha":713,"x_min":96,"x_max":617,"o":"m 320 713 l 392 713 l 392 473 l 617 473 l 617 415 l 392 415 l 392 175 l 320 175 l 320 415 l 96 415 l 96 473 l 320 473 l 320 713 m 124 63 l 590 63 l 590 0 l 124 0 l 124 63 z "},"≈":{"ha":713,"x_min":93,"x_max":620,"o":"m 138 342 l 93 365 q 150 466 116 434 q 226 498 184 498 q 276 489 248 498 q 356 459 303 480 q 436 430 410 439 q 481 422 462 422 q 534 440 510 422 q 577 501 557 458 l 620 474 q 562 376 598 406 q 483 345 526 345 q 430 355 460 345 q 348 383 400 364 q 289 406 312 398 q 250 418 265 415 q 224 422 235 422 q 178 405 199 422 q 138 342 157 388 m 138 126 l 93 150 q 150 250 116 219 q 226 282 184 282 q 276 273 248 282 q 356 244 303 265 q 436 214 410 223 q 481 206 462 206 q 534 224 510 206 q 577 285 557 242 l 620 258 q 562 160 598 190 q 483 130 526 130 q 430 139 460 130 q 348 168 400 148 q 289 191 312 182 q 250 203 265 199 q 224 206 235 206 q 178 189 199 206 q 138 126 157 172 z "},"¬":{"ha":713,"x_min":124,"x_max":589,"o":"m 124 426 l 589 426 l 589 202 l 524 202 l 524 390 l 547 362 l 124 362 l 124 426 z "},"∞":{"ha":941,"x_min":39,"x_max":901,"o":"m 253 132 q 149 153 198 132 q 69 221 99 175 q 39 338 39 267 q 69 455 39 409 q 149 522 99 500 q 253 543 198 543 q 339 529 295 543 q 419 480 383 515 q 477 385 456 446 l 463 385 q 521 480 484 446 q 601 529 558 515 q 688 543 645 543 q 792 522 743 543 q 871 455 840 500 q 901 338 901 409 q 871 221 901 267 q 792 153 840 175 q 688 132 743 132 q 601 146 645 132 q 521 195 558 160 q 464 290 485 229 l 478 290 q 420 195 457 229 q 339 146 383 160 q 253 132 295 132 m 263 184 q 380 225 328 184 q 460 351 432 266 l 460 324 q 380 450 432 408 q 263 491 328 491 q 184 474 220 491 q 126 423 148 457 q 104 338 104 389 q 126 252 104 286 q 184 201 148 218 q 263 184 220 184 m 678 184 q 757 201 721 184 q 814 252 792 218 q 836 338 836 286 q 814 423 836 389 q 757 474 792 457 q 678 491 721 491 q 560 450 612 491 q 480 324 508 408 l 480 351 q 560 225 508 266 q 678 184 612 184 z "},"∅":{"ha":833,"x_min":101,"x_max":732,"o":"m 140 72 l 101 109 l 695 703 l 732 665 l 140 72 m 417 132 q 289 167 347 132 q 196 259 231 201 q 161 388 161 317 q 196 517 161 459 q 289 609 231 574 q 417 644 347 644 q 546 609 488 644 q 639 517 604 574 q 673 388 673 459 q 639 259 673 317 q 546 167 604 201 q 417 132 488 132 m 417 189 q 517 216 472 189 q 589 288 562 243 q 616 388 616 333 q 589 488 616 443 q 517 560 562 533 q 417 587 472 587 q 317 560 363 587 q 245 488 272 533 q 218 388 218 443 q 245 288 218 333 q 317 216 272 243 q 417 189 363 189 z "},"∫":{"ha":654,"x_min":39,"x_max":615,"o":"m 39 -271 l 59 -205 q 102 -218 81 -214 q 142 -222 123 -222 q 190 -214 165 -222 q 234 -179 215 -205 q 256 -105 253 -153 l 317 772 q 348 875 322 835 q 417 934 374 915 q 511 953 459 953 q 563 950 537 953 q 615 937 588 946 l 594 871 q 552 884 573 880 q 511 889 531 889 q 463 880 488 889 q 419 846 438 871 q 397 772 401 821 l 336 -106 q 306 -208 332 -168 q 236 -268 279 -249 q 142 -287 194 -287 q 91 -283 117 -287 q 39 -271 65 -279 z "},"∏":{"ha":914,"x_min":146,"x_max":767,"o":"m 146 -325 l 146 858 l 767 858 l 767 -325 l 688 -325 l 688 823 l 717 791 l 196 791 l 225 823 l 225 -325 l 146 -325 z "},"∑":{"ha":768,"x_min":74,"x_max":695,"o":"m 381 266 l 74 791 l 74 858 l 695 858 l 695 791 l 105 791 l 135 823 l 467 266 l 381 266 m 381 266 l 467 266 l 135 -291 l 105 -259 l 695 -259 l 695 -326 l 74 -326 l 74 -259 l 381 266 z "},"√":{"ha":763,"x_min":7,"x_max":756,"o":"m 331 1 l 208 310 l 235 285 l 23 254 l 7 303 l 278 355 l 388 69 l 359 69 l 678 1167 l 756 1167 l 403 1 l 331 1 z "},"µ":{"ha":826,"x_min":124,"x_max":679,"o":"m 599 660 l 679 660 l 679 0 l 599 0 l 599 139 q 507 27 566 67 q 370 -12 449 -12 q 204 43 265 -12 l 204 -285 l 124 -285 l 124 660 l 204 660 l 204 246 q 249 106 204 154 q 378 58 294 58 q 497 95 448 58 q 573 196 547 133 q 599 335 599 259 l 599 660 z "},"∂":{"ha":751,"x_min":88,"x_max":677,"o":"m 379 -15 q 234 27 300 -15 q 127 148 167 70 q 88 333 88 226 q 127 515 88 438 q 231 633 166 591 q 372 674 296 674 q 504 636 445 674 q 598 528 563 599 q 633 361 633 458 l 597 361 q 564 499 597 445 q 484 578 532 552 q 385 604 435 604 q 278 572 327 604 q 201 478 230 539 q 172 331 172 417 q 200 184 172 245 q 278 89 229 122 q 388 56 326 56 q 497 94 453 56 q 566 198 542 131 q 596 349 590 264 q 583 575 603 467 q 522 775 563 683 q 424 939 481 867 q 300 1056 367 1010 l 356 1110 q 478 992 420 1065 q 580 827 535 919 q 651 630 625 735 q 677 417 677 526 q 656 241 677 320 q 594 104 634 161 q 500 16 555 47 q 379 -15 446 -15 z "},"‰":{"ha":1363,"x_min":74,"x_max":1290,"o":"m 1117 -13 q 1034 9 1073 -13 q 972 75 996 31 q 947 181 947 118 q 972 286 947 244 q 1034 351 996 329 q 1117 374 1073 374 q 1203 351 1163 374 q 1266 286 1242 329 q 1290 181 1290 244 q 1266 75 1290 118 q 1203 9 1242 31 q 1117 -13 1163 -13 m 1117 47 q 1192 79 1163 47 q 1221 181 1221 112 q 1192 282 1221 249 q 1117 315 1163 315 q 1043 282 1072 315 q 1015 181 1015 249 q 1043 79 1015 112 q 1117 47 1072 47 m 147 0 l 722 858 l 808 858 l 232 0 l 147 0 m 710 -13 q 628 9 667 -13 q 565 75 589 31 q 540 181 540 118 q 565 286 540 244 q 628 351 589 329 q 710 374 667 374 q 796 351 756 374 q 859 286 835 329 q 883 181 883 244 q 859 75 883 118 q 796 9 835 31 q 710 -13 756 -13 m 710 47 q 785 79 756 47 q 814 181 814 112 q 785 282 814 249 q 710 315 756 315 q 637 282 665 315 q 608 181 608 249 q 637 79 608 112 q 710 47 665 47 m 244 486 q 161 508 200 486 q 98 573 122 531 q 74 678 74 616 q 98 784 74 741 q 161 850 122 828 q 244 872 200 872 q 328 850 289 872 q 392 784 368 828 q 417 678 417 741 q 392 573 417 616 q 328 508 368 531 q 244 486 289 486 m 244 544 q 317 577 288 544 q 345 678 345 610 q 317 781 345 747 q 244 815 288 815 q 170 781 198 815 q 142 678 142 747 q 170 577 142 610 q 244 544 198 544 z "},"◊":{"ha":663,"x_min":74,"x_max":590,"o":"m 74 429 l 302 858 l 363 858 l 590 429 l 363 0 l 302 0 l 74 429 m 157 413 l 157 444 l 342 81 l 324 81 l 506 444 l 506 413 l 324 777 l 342 777 l 157 413 z "},"̈":{"ha":0,"x_min":74,"x_max":409,"o":"m 348 790 q 306 807 323 790 q 288 847 288 823 q 306 889 288 871 q 348 906 323 906 q 391 889 374 906 q 409 847 409 871 q 391 807 409 823 q 348 790 374 790 m 133 790 q 91 807 108 790 q 74 846 74 823 q 91 888 74 871 q 133 905 108 905 q 177 888 159 905 q 194 846 194 871 q 177 807 194 823 q 133 790 159 790 z "},"̇":{"ha":0,"x_min":74,"x_max":203,"o":"m 137 794 q 92 812 110 794 q 74 855 74 830 q 92 900 74 881 q 137 919 110 919 q 183 900 164 919 q 203 855 203 881 q 183 812 203 830 q 137 794 164 794 z "},"̀":{"ha":0,"x_min":69,"x_max":349,"o":"m 307 784 l 69 1006 l 128 1054 l 349 817 l 307 784 z "},"́":{"ha":0,"x_min":74,"x_max":353,"o":"m 115 784 l 74 817 l 294 1054 l 353 1006 l 115 784 z "},"̋":{"ha":0,"x_min":74,"x_max":312,"o":"m 274 754 l 226 760 l 242 982 l 312 973 l 274 754 m 122 757 l 74 762 l 86 985 l 156 977 l 122 757 z "},"̂":{"ha":0,"x_min":74,"x_max":488,"o":"m 124 753 l 74 792 l 281 1010 l 488 792 l 439 753 l 267 938 l 294 938 l 124 753 z "},"̌":{"ha":0,"x_min":74,"x_max":488,"o":"m 281 765 l 74 983 l 124 1022 l 294 833 l 267 833 l 439 1022 l 488 983 l 281 765 z "},"̆":{"ha":0,"x_min":74,"x_max":433,"o":"m 253 797 q 123 843 172 797 q 74 954 74 889 l 144 954 q 175 881 144 908 q 253 855 205 855 q 333 881 303 855 q 363 954 363 908 l 433 954 q 384 843 433 889 q 253 797 335 797 z "},"̊":{"ha":0,"x_min":74,"x_max":326,"o":"m 199 920 q 136 937 165 920 q 91 983 108 954 q 74 1047 74 1012 q 91 1110 74 1081 q 136 1156 108 1138 q 200 1173 165 1173 q 263 1156 234 1173 q 309 1110 292 1138 q 326 1047 326 1081 q 309 983 326 1012 q 263 937 292 954 q 199 920 234 920 m 199 982 q 245 1001 227 982 q 264 1047 264 1019 q 245 1092 264 1074 q 199 1111 227 1111 q 154 1092 173 1111 q 135 1047 135 1074 q 154 1001 135 1019 q 199 982 173 982 z "},"̃":{"ha":0,"x_min":32,"x_max":448,"o":"m 66 773 l 32 796 q 77 890 49 858 q 143 922 106 922 q 179 915 160 922 q 244 885 198 909 q 307 854 291 860 q 338 847 323 847 q 378 865 358 847 q 412 922 397 883 l 448 897 q 420 828 437 856 q 383 787 403 801 q 340 773 363 773 q 299 781 322 773 q 228 814 276 790 q 173 841 188 835 q 143 847 158 847 q 102 830 122 847 q 66 773 83 814 z "},"̄":{"ha":0,"x_min":205,"x_max":615,"o":"m 205 879 l 615 879 l 615 811 l 205 811 l 205 879 z "},"̒":{"ha":0,"x_min":72,"x_max":240,"o":"m 185 952 l 240 925 q 177 885 202 907 q 144 828 153 863 q 186 814 169 828 q 200 776 202 800 q 182 738 199 753 q 142 722 166 722 q 93 744 113 722 q 74 803 72 766 q 102 882 75 840 q 185 952 130 925 z "},"̦":{"ha":0,"x_min":74,"x_max":242,"o":"m 128 -301 l 74 -274 q 136 -234 112 -256 q 169 -178 161 -212 q 128 -163 144 -177 q 114 -124 112 -149 q 132 -86 115 -102 q 173 -71 148 -71 q 221 -92 201 -71 q 240 -152 242 -114 q 212 -231 239 -189 q 128 -301 185 -274 z "},"̧":{"ha":0,"x_min":74,"x_max":363,"o":"m 74 -243 l 90 -203 q 187 -237 144 -233 q 257 -227 231 -242 q 284 -186 283 -212 q 263 -140 286 -160 q 207 -108 240 -121 q 141 -87 173 -94 l 188 31 l 245 28 l 200 -85 l 173 -47 q 276 -82 233 -62 q 341 -128 319 -102 q 360 -189 363 -154 q 326 -252 357 -228 q 251 -282 296 -275 q 158 -279 206 -289 q 74 -243 110 -269 z "},"̨":{"ha":0,"x_min":74,"x_max":396,"o":"m 396 -248 q 306 -286 353 -273 q 215 -299 258 -299 q 111 -269 149 -299 q 74 -187 74 -239 q 122 -77 74 -130 q 268 12 171 -24 l 310 -15 q 183 -89 230 -51 q 136 -171 136 -127 q 163 -220 136 -204 q 228 -237 189 -237 q 297 -226 260 -237 q 375 -191 333 -215 l 396 -248 z "},"˙":{"ha":275,"x_min":74,"x_max":203,"o":"m 137 794 q 92 812 110 794 q 74 855 74 830 q 92 900 74 881 q 137 919 110 919 q 183 900 164 919 q 203 855 203 881 q 183 812 203 830 q 137 794 164 794 z "},"˝":{"ha":384,"x_min":74,"x_max":312,"o":"m 274 754 l 226 760 l 242 982 l 312 973 l 274 754 m 122 757 l 74 762 l 86 985 l 156 977 l 122 757 z "},"ˇ":{"ha":560,"x_min":74,"x_max":488,"o":"m 281 765 l 74 983 l 124 1022 l 294 833 l 267 833 l 439 1022 l 488 983 l 281 765 z "},"˘":{"ha":506,"x_min":74,"x_max":433,"o":"m 253 797 q 123 843 172 797 q 74 954 74 889 l 144 954 q 175 881 144 908 q 253 855 205 855 q 333 881 303 855 q 363 954 363 908 l 433 954 q 384 843 433 889 q 253 797 335 797 z "},"˚":{"ha":399,"x_min":74,"x_max":326,"o":"m 199 920 q 136 937 165 920 q 91 983 108 954 q 74 1047 74 1012 q 91 1110 74 1081 q 136 1156 108 1138 q 200 1173 165 1173 q 263 1156 234 1173 q 309 1110 292 1138 q 326 1047 326 1081 q 309 983 326 1012 q 263 937 292 954 q 199 920 234 920 m 199 982 q 245 1001 227 982 q 264 1047 264 1019 q 245 1092 264 1074 q 199 1111 227 1111 q 154 1092 173 1111 q 135 1047 135 1074 q 154 1001 135 1019 q 199 982 173 982 z "},"¯":{"ha":557,"x_min":74,"x_max":484,"o":"m 74 879 l 484 879 l 484 811 l 74 811 l 74 879 z "},"¸":{"ha":432,"x_min":74,"x_max":363,"o":"m 74 -243 l 90 -203 q 187 -237 144 -233 q 257 -227 231 -242 q 284 -186 283 -212 q 263 -140 286 -160 q 207 -108 240 -121 q 141 -87 173 -94 l 188 31 l 245 28 l 200 -85 l 173 -47 q 276 -82 233 -62 q 341 -128 319 -102 q 360 -189 363 -154 q 326 -252 357 -228 q 251 -282 296 -275 q 158 -279 206 -289 q 74 -243 110 -269 z "},"˛":{"ha":469,"x_min":74,"x_max":396,"o":"m 396 -248 q 306 -286 353 -273 q 215 -299 258 -299 q 111 -269 149 -299 q 74 -187 74 -239 q 122 -77 74 -130 q 268 12 171 -24 l 310 -15 q 183 -89 230 -51 q 136 -171 136 -127 q 163 -220 136 -204 q 228 -237 189 -237 q 297 -226 260 -237 q 375 -191 333 -215 l 396 -248 z "}}}
